<svg xmlns="http://www.w3.org/2000/svg" version="1.1" xmlns:xlink="http://www.w3.org/1999/xlink" xmlns:svgjs="http://svgjs.dev/svgjs" width="2560" height="1381" preserveAspectRatio="none" viewBox="0 0 2560 1381"><g mask="url(&quot;#SvgjsMask1236&quot;)" fill="none"><path d="M605.71 1017.51 a294.21 294.21 0 1 0 588.42 0 a294.21 294.21 0 1 0 -588.42 0z" fill="rgba(28, 83, 142, 0.4)" class="triangle-float3"></path><path d="M1625.692,1550.723C1749.234,1557.026,1863.734,1476.82,1918.483,1365.892C1968.108,1265.347,1930.858,1149.967,1869.952,1055.826C1815.073,971.001,1726.719,913.969,1625.692,913.333C1523.545,912.69,1427.093,964.237,1376.048,1052.718C1325.032,1141.149,1334.693,1247.176,1380.444,1338.443C1432.375,1442.039,1509.96,1544.819,1625.692,1550.723" fill="rgba(28, 83, 142, 0.4)" class="triangle-float1"></path><path d="M1450.938,1094.856C1496.623,1092.034,1526.71,1050.789,1546.493,1009.513C1563.317,974.411,1563.088,934.538,1544.05,900.586C1524.553,865.816,1490.782,840.33,1450.938,839.104C1408.981,837.813,1370.092,859.256,1347.338,894.531C1322.345,933.277,1311.308,981.776,1332.488,1022.731C1355.248,1066.74,1401.486,1097.91,1450.938,1094.856" fill="rgba(28, 83, 142, 0.4)" class="triangle-float3"></path><path d="M370.637,1183.149C437.116,1183.311,499.146,1145.925,529.959,1087.018C558.828,1031.826,543.47,967.163,511.607,913.644C480.617,861.591,431.174,821.701,370.637,819.411C306.083,816.969,242.813,846.644,209.901,902.232C176.404,958.808,180.001,1029.177,212.654,1086.245C245.538,1143.716,304.423,1182.988,370.637,1183.149" fill="rgba(28, 83, 142, 0.4)" class="triangle-float1"></path><path d="M-234.03 245.43 a291.4 291.4 0 1 0 582.8 0 a291.4 291.4 0 1 0 -582.8 0z" fill="rgba(28, 83, 142, 0.4)" class="triangle-float3"></path><path d="M2185.966,1098.838C2294.193,1093.884,2374.219,1007.914,2424.972,912.197C2472.063,823.387,2485.037,717.607,2434.044,630.979C2383.714,545.477,2285.175,505.048,2185.966,506.167C2088.854,507.262,2000.428,555.108,1947.393,636.467C1888.402,726.964,1856.265,839.962,1905.799,935.962C1958.888,1038.853,2070.307,1104.132,2185.966,1098.838" fill="rgba(28, 83, 142, 0.4)" class="triangle-float2"></path><path d="M2160.08,756.223C2274.963,754.783,2382.943,690.381,2433.747,587.332C2479.893,493.73,2442.963,386.285,2385.363,299.262C2334.522,222.45,2252.192,173.195,2160.08,173.869C2069.141,174.534,1991.555,227.305,1940.432,302.516C1880.334,390.93,1827.686,498.12,1874.269,594.343C1925.404,699.967,2042.738,757.693,2160.08,756.223" fill="rgba(28, 83, 142, 0.4)" class="triangle-float3"></path></g><defs><mask id="SvgjsMask1236"><rect width="2560" height="1381" fill="#ffffff"></rect></mask><style>
                @keyframes float1 {
                    0%{transform: translate(0, 0)}
                    50%{transform: translate(-10px, 0)}
                    100%{transform: translate(0, 0)}
                }

                .triangle-float1 {
                    animation: float1 5s infinite;
                }

                @keyframes float2 {
                    0%{transform: translate(0, 0)}
                    50%{transform: translate(-5px, -5px)}
                    100%{transform: translate(0, 0)}
                }

                .triangle-float2 {
                    animation: float2 4s infinite;
                }

                @keyframes float3 {
                    0%{transform: translate(0, 0)}
                    50%{transform: translate(0, -10px)}
                    100%{transform: translate(0, 0)}
                }

                .triangle-float3 {
                    animation: float3 6s infinite;
                }
            </style></defs></svg>