<svg version="1.0" xmlns="http://www.w3.org/2000/svg" width="500" height="500"><path d="M0 250V0h500v500H0V250zm265.6 178c23.6-2.3 46.1-9.5 65.9-21.2 9.2-5.5 25.6-18.3 32.5-25.3l5.5-5.7-8 5.2c-15.5 10-33.1 17.1-51.6 20.7-11.8 2.3-53 2.6-61.9.5-3-.7-6.5-1.5-7.7-1.8-1.9-.3-2.3-1.1-2.3-3.9 0-3.2.4-3.7 5.1-6 31.1-15.8 56.1-40.6 83-82.5 8.2-12.8 8.9-13.5 12.2-13.8 2.8-.2 3.9.2 5.5 2.3 3.8 4.8 20.4 22.9 27.5 29.8 10.9 10.8 18.6 14.8 28.7 14.9 13.9.1 26.4-11.7 27.7-26.1 1-10.8.9-11-41.6-54.1-20.4-20.8-23.1-23.9-23.1-26.7 0-2.2 6.8-16.7 22-46.8 19.5-38.5 22-44.1 22-48.3 0-12.3-12.7-23.7-26.5-23.7-12.5.1-19.9 7-29.9 28-8.7 18.1-17.6 39-17.6 41.2 0 .8-1.4 1.3-4 1.3-3.8 0-4.8-.7-14.8-10.4-27.6-26.7-48.4-41.5-76.5-54.6-9.6-4.5-9.6-4.5-9.7-8.2 0-4.1 0-4.1 9.4-5.7 8.2-1.5 17.9-1.4 32.1.4 18.5 2.3 25 4.1 43.5 12.2 3.2 1.5-7-9.5-14.4-15.3-10.4-8.3-24.7-15.5-38.7-19.5-10.7-3.1-12.3-3.3-27.4-3.3-22.9 0-38 3.6-61.5 14.6-9.5 4.5-32 18.1-32 19.3 0 .2 2.6-.5 5.8-1.7 7.5-2.7 25.5-3 35.6-.5 20.9 5.2 44.8 23 71.2 53.1 12.8 14.5 30.3 37.4 41.1 53.6 3.9 5.8 7.8 11.1 8.7 11.9 2.7 2.3 2.1 9.2-1.4 15.2-8.9 14.9-26.7 38.5-37.5 49.5-30.6 31.2-62.4 48.3-93 50.1-30.3 1.7-50.6-11.8-65.7-43.7-8.4-17.7-12.2-30.7-14.3-49.8-2.1-18.6-1.9-36.3.6-53.3 1.9-13.2 6.8-31.5 10.6-39.4 1.3-2.8 1.3-2.9-.2-1-1.8 2.2-7.8 14.4-11.8 24-4.6 11-8.3 23.3-11.3 37.5-2.4 10.9-2.7 45.2-.5 54.5.7 3.3 2.2 9.8 3.3 14.5 6.9 30.1 21.8 57.4 43.8 80.4 15.3 15.9 37.1 32.2 55.5 41.4 7.7 3.8 31 11.6 39.5 13.2 8.5 1.6 25.3 3.7 31.1 3.9 2.5 0 9.5-.4 15.5-.9z" fill="#fff"/><g fill="#058d78"><path d="M240.8 431.3c-1-.2-1.8-1.1-1.8-1.9 0-1 1.4-1.4 5.5-1.4 4.8 0 5.5.2 5.5 2 0 1.7-.6 2-3.7 1.9-2.1-.1-4.6-.3-5.5-.6zM255 430c0-1.7.7-2 5-2 3.6 0 5 .4 5 1.4 0 1.5-3 2.6-7.2 2.6-2.1 0-2.8-.5-2.8-2zM231.8 430.3c-3.3-.8-2-3.3 1.7-3.3 2.8 0 3.5.4 3.5 2 0 2-1.4 2.3-5.2 1.3zM269 429c0-1.6.7-2 3.5-2 4 0 4.9 2.4 1.3 3.4-3.8 1-4.8.7-4.8-1.4zM216 428c-10.2-2-31.1-9.1-39.5-13.2-11.7-5.9-23.1-13.4-35-22.9-34.4-27.7-55.5-60.1-64.3-98.9-1.1-4.7-2.6-11.2-3.3-14.5-2.2-9.5-1.9-49.6.4-60.5 9.6-44.8 30.8-82 59.1-103.5 15.5-11.9 36.8-23.6 53.1-29 7.6-2.6 22.9-6 31.3-7 4.6-.5 5.2-.4 5.2 1.3 0 1.5-1.4 2.1-8.2 3.2-11.6 1.8-21.4 4.4-30.5 8-9.5 3.8-30.4 14.1-31.8 15.6-.5.7-3 2.4-5.3 3.9-5.2 3.2-5.1 3.9.3 2 5.5-1.9 14.5-2 14.5 0 0 .9-1.4 1.6-3.7 2-13 2-27.5 9.6-36.2 19-13.3 14.4-25 41.6-28.5 66-2.5 17.3-2.5 17.5-4.3 17.5-1.4 0-1.5-1.4-.9-12.2.3-6.8 1.1-12.4 1.6-12.6 1.2-.4 1.3-4.2.1-4.2-1.4 0-2.8 2.3-3.6 6-.4 1.9-1.1 4-1.5 4.5-.4.6-1.1 2.6-1.5 4.5-.4 1.9-1.1 4.1-1.6 5-.4.8-1.3 4.2-1.9 7.5-.6 3.3-1.5 8.3-2.1 11-1.3 6.3-1.3 33.8 0 43C84 312.7 99 344 127.6 373.1c5.3 5.5 10 9.9 10.5 9.9.4 0 1.6 1.1 2.7 2.5s2.5 2.5 3.1 2.5c.6 0 1.6.9 2.3 2 .7 1.1 1.8 2 2.5 2s1.8.9 2.5 2 1.8 2 2.4 2c.6 0 2.3 1.1 3.7 2.4 1.5 1.4 3.6 2.7 4.7 3.1 1.1.3 2 1.1 2 1.6s.6.9 1.4.9c.8 0 2.1.6 2.8 1.3.7.6 5.6 3.2 10.8 5.7 5.2 2.5 9.7 4.8 9.8 5.3.2.4 1.1.7 2.1.7 2.2 0 11.4 3.1 12.1 4 .3.4 1.9 1 3.5 1.3 21.7 3.9 22.5 4.1 22.5 5.9 0 2.2-1.5 2.2-13-.2zM278 428.1c0-1.9 3.4-3.1 8.6-3.1 4.1 0 2.7 2.7-2 3.9-6 1.5-6.6 1.4-6.6-.8zM294 424.4c0-2.1.5-2.4 3.5-2.4 2.2 0 3.5.5 3.5 1.3s-1.6 1.8-3.5 2.4c-3.3 1.1-3.5 1-3.5-1.3zM304 421.5c0-2 .5-2.5 2.5-2.5 1.4 0 2.5-.4 2.5-1 0-.5 1.6-1 3.5-1 2.3 0 3.5-.5 3.5-1.3 0-1.7 4.2-3.7 7.5-3.7 1.5 0 2.5-.6 2.5-1.4 0-.8.7-1.7 1.6-2 2.5-.9 7.4-.7 7.4.4 0 1-16.8 9.5-25.7 12.9L304 424v-2.5zM338 404.5c0-1.8.5-2.5 2-2.5 1.1 0 2-.7 2-1.5s.9-1.5 2-1.5 2-.7 2-1.5c0-1 1.1-1.5 3.5-1.5 1.9 0 3.5.2 3.5.5 0 .7-13.2 10.5-14.1 10.5-.5 0-.9-1.1-.9-2.5zM257 402c0-2.1 1-2.4 4.8-1.4 3.6 1 2.7 3.4-1.3 3.4-2.8 0-3.5-.4-3.5-2zM290 402.6c0-.7 1-1.6 2.3-2 4.1-1.1 5.7-.7 5.7 1.4 0 1.7-.7 2-4 2-2.7 0-4-.4-4-1.4zM247 402c-1.4-.4-4-.8-5.7-.9-3.2-.1-3.3-.2-3.3-4.6 0-4.5 0-4.5 3.5-4.5 4 0 4.5 1.1 1.3 3.3l-2.3 1.5 2.5.5c11.7 2.6 13 3 13 4.3 0 1.6-4.7 1.8-9 .4zM299 401.6c0-.9 1.9-1.8 5-2.5 6.7-1.4 7-1.4 7 .8 0 1.4-1 2-3.7 2.5-6 .9-8.3.7-8.3-.8zM314 398.7c0-1.2 6-3.7 8.9-3.7 2.1 0 1.1 3.8-1.1 4.4-4 1-7.8.7-7.8-.7zM329.2 393.8c.3-.7 1.9-1.8 3.6-2.5 3.1-1.3 3.2-1.2 3.2 1.2 0 2.2-.4 2.5-3.6 2.5-2.3 0-3.4-.4-3.2-1.2zM356 391.1c0-2.9.3-3.1 3.6-3.1 3.9 0 3.8.9-.6 4l-3 2.1v-3zM258 383.5c0-1.5.6-2.5 1.4-2.5.8 0 1.6-.5 1.8-1.1.2-.6 1.9-.9 3.8-.7l3.5.3-4.4 3.3c-5.3 3.9-6.1 4-6.1.7zM353 382.3c0-.5 1.6-1.8 3.5-3.1l3.5-2.2v3c0 2.8-.3 3-3.5 3-1.9 0-3.5-.3-3.5-.7zM273.2 372.9c.3-3 .7-3.4 3.5-3.7 2.6-.3 3.2-.8 3.5-3 .3-2.4.8-2.7 4.3-3l4-.2-5 4.5c-2.7 2.5-6.3 5.5-7.8 6.7l-2.8 2 .3-3.3zM374 372.7c0-3.1.4-4 2-4.4 1.1-.3 2-1.4 2-2.4 0-1.1.7-2.2 1.5-2.5.8-.4 1.5-1.2 1.5-1.9 0-1.2 6.3-6.9 9.9-9 1.7-1 1.5-.6-5 9-2.6 3.9-6.3 8.8-8.3 11l-3.5 4-.1-3.8zM294 353.8c0-3.6.2-3.8 3-3.8s3-.3 3-3.5.2-3.5 3.1-3.5h3l-2 2.8c-1.1 1.5-3.9 4.7-6 7.2l-4 4.5-.1-3.7z"/><path d="M147.5 345.5c-6.1-1.7-14.5-5.5-14.5-6.7 0-.4-.5-.8-1.2-.8-2.5 0-7.8-5.1-7.8-7.6 0-1.7-.5-2.4-2-2.4-2.9 0-5.6-2.6-11.3-10.9-5.1-7.5-11.2-20.6-14.9-31.6-1.1-3.3-2.4-6.9-2.9-8-1.8-3.7-4.8-24.1-4.8-33.2-.1-4.8.2-6.3 1.3-6.3 1.7 0 2.2 2.2 3.6 16 1.6 15.1 5.8 29.2 13.8 46 11.7 24.8 27.1 38.8 46.9 42.6 4.1.8 7.7 1.4 7.9 1.4.2 0 .4.7.4 1.5 0 1.9-7.4 1.9-14.5 0zM168 345.5c0-.9 1.4-1.6 3.8-2 10-1.5 25.3-5.9 32.9-9.5 4.7-2.2 8.7-4 8.9-4 .2 0 .4 1.1.4 2.5 0 2-.6 2.7-3 3.2-1.6.3-3 .9-3 1.4 0 .5-.9.9-2.1.9-1.1 0-2.7.7-3.5 1.5-.9.8-3 1.5-4.9 1.5-1.8 0-3.5.5-3.7 1.1-.4 1.3-16.6 4.9-22 4.9-2.7 0-3.8-.4-3.8-1.5zM392.6 344c-7.9-1.4-15.2-5.8-24.5-15-8.5-8.3-8.6-8.4-5.7-8.8 3.3-.4 7.6 3.4 7.6 6.8 0 1.5.6 2 2.5 2 1.8 0 2.5.5 2.5 1.9s.8 2.1 2.8 2.3c1.9.2 2.8.9 3 2.6.3 1.8 1 2.2 3.7 2.2 1.8 0 3.5.5 3.7 1.1.2.6 4.6 1.3 10.1 1.6 6.7.4 9.7 1 9.7 1.8 0 2.4-6.1 3-15.4 1.5zM426.4 323.3c.4-2.7 1-7.4 1.3-10.5.6-6.4 2.7-7.9 3.8-2.8.7 3-1 13.1-2.6 16.3-1.9 3.5-3.2 1.9-2.5-3zM222 325.3c0-.5 1.6-1.8 3.5-3.1l3.5-2.2v3c0 2.8-.3 3-3.5 3-1.9 0-3.5-.3-3.5-.7zM351.8 311.8l-2.7-3.3 2.5-.3c3.3-.4 3.6-.1 3.2 3.8l-.3 3.2-2.7-3.4zM329 305.5c0-1.9.5-3.5 1-3.5.6 0 1-.7 1-1.5 0-.9.9-1.5 2.5-1.5 1.4 0 2.5.3 2.5.6 0 1.2-5.5 9.4-6.2 9.4-.5 0-.8-1.6-.8-3.5zM342.8 302l-2.8-3.5 2.6-.3c3.3-.4 3.6-.1 3.2 3.9l-.3 3.4-2.7-3.5zM250.6 302.3c5.2-4.7 5.4-4.8 5.4-1.4 0 2.9-.2 3.1-3.7 3.1-3.6 0-3.6 0-1.7-1.7zM424 299.5c0-1.8-.5-2.5-2-2.5-2.4 0-3.3-1.7-2.8-5.7.3-2.8.4-2.7 5.1 3 2.6 3.3 4.7 6.3 4.7 6.8s-1.1.9-2.5.9c-2 0-2.5-.5-2.5-2.5zM408 282.5c0-.8-.7-1.5-1.5-1.5-1 0-1.5-1-1.5-3 0-2.7-.3-3-3-3-2.5 0-3-.4-3-2.5 0-1.9-.5-2.5-2.1-2.5-2.3 0-15.9-12.6-15.9-14.7 0-.7-.6-1.3-1.2-1.3-.7 0-3-1.7-5-3.9-2.9-2.9-3.8-4.7-3.8-7.2 0-3.3.7-2.7 20.5 17.4 25.3 25.8 23.5 23.7 19.6 23.7-2.1 0-3.1-.5-3.1-1.5zM363 232.5c0-2.4.5-3.5 1.5-3.5.9 0 1.5-.9 1.5-2.2 0-3.4 1.4-5 3.9-4.6 2.2.3 2.2.3-.9 6.1-1.7 3.2-2.8 6.2-2.5 6.7.4.6-.3 1-1.4 1-1.7 0-2.1-.6-2.1-3.5zM373 213.5c0-3.1.3-3.5 2.6-3.5 1.4 0 2.4.3 2.2.8-3.5 7.3-4.8 8-4.8 2.7zM378 203.5c0-1.9.5-3.5 1-3.5.6 0 1-.9 1-2 0-1.5.7-2 2.5-2 2.2 0 2.4.2 1.4 2.7-1.4 3.8-4.2 8.3-5.1 8.3-.4 0-.8-1.6-.8-3.5zM271.9 197.8c-1.8-2.4-3.7-4.9-4.2-5.5-.7-1-.2-1.3 2.2-1.3 2.4 0 3.1.4 3.1 2 0 1.1.7 2 1.5 2 1 0 1.5 1.1 1.5 3.5 0 1.9-.2 3.5-.4 3.5s-1.9-1.9-3.7-4.2zM385 189.5c0-3.1.3-3.5 2.6-3.5 1.4 0 2.4.3 2.2.8-3.5 7.3-4.8 8-4.8 2.7zM254.6 176.3c-5.1-6.1-5.4-6.8-3.6-7.1 3.5-.6 5 .6 5 3.8 0 2.5.4 3 2.5 3 2.2 0 2.5.4 2.5 3.5 0 1.9-.2 3.5-.4 3.5-.1 0-2.9-3-6-6.7zM321 179.9v-3l3 2.1c1.7 1.2 3 2.6 3 3.1s-1.3.9-3 .9c-2.7 0-3-.3-3-3.1zM330 181.7c0-.7 2.1-6.2 4.6-12.2C344 146.8 347 141.8 347 149c0 3.1-1.9 8-3 8-.4 0-1.1 1.6-1.4 3.5-.4 2.1-1.3 3.5-2.1 3.5-1 0-1.5 1-1.5 2.9 0 3.5-1.9 9.1-3.1 9.1-.5 0-.9.9-.9 1.9 0 3.3-1.1 5.1-3.1 5.1-1 0-1.9-.6-1.9-1.3zM390 180c0-3.7 4.9-14 6.7-14 .8 0 1.3-1.2 1.3-3 0-2 .5-3 1.5-3s1.5-1 1.5-3 .5-3 1.5-3c.9 0 1.5-.9 1.5-2.4 0-1.3.7-4 1.5-5.9 2.1-5 1.9-9.2-.7-14.3-4.5-9.1-14.8-15.7-24.4-15.6-5 0-14.3 3.8-16.4 6.7-.8 1.1-2.5 3-3.7 4.3-1.3 1.3-2.3 2.7-2.3 3.2 0 .6-.7 1-1.5 1s-1.5.9-1.5 2-1 4-2.2 6.5c-1.7 3.4-2.8 4.5-4.5 4.5-2 0-2.1-.3-1.3-2.5 3.8-9.9 12.3-22 17.7-25.2 7.4-4.3 14.5-5.5 22.3-3.7 16.4 3.7 26.2 17 23.1 31.5-1.2 5.5-17.6 38.9-19.2 38.9-.5 0-.9-1.3-.9-3zM243.8 164l-2.8-3.5 2.6-.3c3.3-.4 3.6-.1 3.2 3.9l-.3 3.4-2.7-3.5zM303.2 165.4c-.7-.8-1.2-2.6-1-4l.3-2.6 4.5 4 4.5 4.1H308c-1.9 0-4.1-.6-4.8-1.5zM288 151c0-1.5-.7-2-2.5-2-1.6 0-2.5-.6-2.5-1.5 0-.8-.9-1.5-2-1.5s-2-.4-2-1c0-.5-.7-1-1.5-1s-1.5-.7-1.5-1.5-.9-1.5-2-1.5-2-.4-2-1c0-.5-.7-1-1.5-1s-1.5-.4-1.5-1c0-.5-.7-1-1.5-1s-1.5-.9-1.5-2c0-1.6-.7-2-3.5-2-2.4 0-3.5-.5-3.5-1.5 0-.8-.9-1.5-2-1.5-2.9 0-7-2.1-7-3.7 0-.8-1.2-1.3-3-1.3-1.6 0-3-.4-3-1 0-.5-.9-1-1.9-1-1.1 0-2.6-.7-3.5-1.5-.8-.8-1.8-1.5-2.3-1.5-.4 0-2.7-.8-5.1-1.7-4.1-1.7-4.3-2-4-5.7.3-3.9.4-4 5.8-5.2 7.6-1.8 14-1.8 14 0 0 1.5-1.7 2.1-9.1 3.1-4.3.6-7.9 2-6.9 2.7.3.2 6.1 3.1 13 6.4 6.9 3.4 16.6 8.6 21.7 11.7 8.9 5.3 27.6 18.8 28.8 20.7.4.6-.9 1-2.9 1-2.9 0-3.6-.4-3.6-2zM223 143.3c-19.1-17.4-34.6-25.3-56.2-28.8-5.8-.9-5-3.5 1-3.5 7.8 0 28.2 5.9 28.2 8.2 0 .4.9.8 1.9.8 1.1 0 2.6.6 3.3 1.3.7.7 2.5 1.8 4.1 2.4 1.5.7 2.7 1.7 2.7 2.3 0 .5.7 1 1.5 1 .9 0 1.8.7 2.1 1.5.4.8 1.2 1.5 2 1.5.7 0 1.7.6 2.1 1.3.4.8 1.6 1.6 2.6 2 .9.3 1.7 1.6 1.7 2.7 0 1.4.7 2 2.3 2 3.4 0 6.9 4.2 6.5 7.6l-.3 2.7-5.5-5zM315.5 125.4c-18.7-9.1-29.3-12.5-45.1-14.4-13.7-1.6-15.4-2-15.4-3.5 0-2 4.6-1.9 18.1 0 13.5 2 21.3 3.9 30.2 7.6 8.3 3.3 8.7 3.4 8.7 1.4 0-.8-.6-1.5-1.3-1.5-1.6 0-8.7-7.2-8.7-8.8 0-.7-.9-1.2-2-1.2-1 0-2.3-.6-2.7-1.3-.4-.6-2-1.8-3.5-2.6s-3.6-2.1-4.5-3c-1-.9-4.2-2.7-7.2-4.1-3-1.4-5.9-3-6.6-3.6-1.3-1.4-27.1-8.4-30.7-8.4-2.1 0-2.8-.5-2.8-2 0-1.9.4-2 5.3-1.4 9.6 1.2 26.7 6.5 35.9 11.1 15.9 8 28.3 18.8 39.1 33.9 5.7 7.9 5.6 7.9-6.8 1.8z"/></g><g fill="#037c6f"><path d="M201.8 424.1c-8.3-2.7-10.3-5.1-4.3-5.1 1.9 0 3.5.4 3.5.9 0 .4 1.8 1.1 4.1 1.4 4.8.6 5.2.9 4.7 3.4-.3 1.9-.6 1.9-8-.6zM188.3 419.5c-4.3-1.8-4.2-3.5.2-3.5 3.1 0 3.5.3 3.5 2.5 0 1.4-.1 2.5-.2 2.5-.2-.1-1.8-.7-3.5-1.5zM170.8 411.3c-7.4-3.9-8.4-5.3-3.9-5.3 3.9 0 6.1.9 6.1 2.6 0 .9 1.1 1.4 3 1.4 2.5 0 3 .4 3 2.5 0 1.4-.3 2.5-.7 2.5-.5 0-3.8-1.7-7.5-3.7zM152.4 399.9c-8.5-6.4-21.2-16.9-23.8-19.8-1.9-2.1-1.9-2.1 1.2-2.1 3.6 0 8.2 3.5 8.2 6.2 0 1.3.8 1.8 2.6 1.8 1.7 0 2.8.6 3.1 2 .3 1.1 1.4 2 2.4 2 1.1 0 2.2.7 2.5 1.5.4.8 1 1.5 1.6 1.5 1.6 0 3.8 2.8 3.8 4.9 0 1.7.6 2.1 3.5 2.1 3.1 0 3.5.3 3.5 2.5 0 1.4-.4 2.5-.9 2.5-.4 0-3.9-2.3-7.7-5.1zM117.9 369.3c-7.9-8.2-19.4-25-24.9-36.1-9.3-18.9-14.7-37.1-18.1-60.7-1.4-9.3-1.4-42.7 0-49 .5-2.7 1.5-7.7 2.1-11 .6-3.3 1.5-6.7 1.9-7.5.5-.9 1.2-3.1 1.6-5 .4-1.9 1.1-3.9 1.5-4.5.4-.5 1-2.3 1.4-4 .4-1.6 1.5-4.7 2.3-6.7 1.6-3.6 1.7-3.6 3-1.8 1.7 2.5 5 2.6 5.7.3.3-1 .3 0 .1 2.2-.3 2.2-.5 5.5-.5 7.3 0 1.8-.4 3.1-.9 2.8-1.5-.9-2.3 16.4-2 38.7.4 19.1.3 20.7-1.3 20.7-2.1 0-2.4 1.1-3.8 17-1.4 15.6-.2 27.8 3.4 35.5 1.4 2.9 2.9 7.9 3.2 11.1.4 3.3 1 6.1 1.3 6.4.3.3 2.8 5 5.5 10.5s5.5 10.4 6.3 10.8c.7.4 1.3 1.2 1.3 1.7s1.1 2.1 2.5 3.6 2.5 3.5 2.5 4.5c0 1.1.7 1.9 1.5 1.9.9 0 1.9.8 2.2 1.7.4.9 2 2.8 3.6 4.2 2.3 2.1 2.8 3.3 2.5 5.9l-.3 3.3-3.6-3.8z"/><path d="M149.3 346.3c-1.3-.2-2.3-.9-2.3-1.4 0-.5-1.6-.9-3.5-.9-2.4 0-3.5-.5-3.5-1.5s-1-1.5-3-1.5c-2.3 0-3-.4-3-2s-.7-2-3-2c-2.5 0-3-.4-3-2.5s-.5-2.5-2.7-2.5c-3.5 0-7.3-3.9-7.3-7.4 0-2.1-.5-2.6-2.5-2.6-1.6 0-2.5-.6-2.5-1.5 0-.8-.4-1.5-1-1.5-.5 0-1-.7-1-1.5s-.4-1.5-1-1.5c-.5 0-1-.7-1-1.5s-.4-1.5-1-1.5c-.5 0-1-1.1-1-2.5s-.6-2.5-1.3-2.5c-.7 0-2.1-1.9-3.1-4.2-1-2.4-2.7-6.2-3.7-8.5-1.6-3.5-4-10.7-9-26.9-1.4-4.6-1.2-11.4.4-11.4 1.5 0 3.3 5.1 4.2 11.8.3 2.4 1 5.1 1.5 6 .5.9 1.8 4.4 2.9 7.7 10.7 32.9 29.4 54.3 52.4 60 10 2.6 8.3 5.8-2 3.8zM171 345.6c0-1.4 1.1-1.8 9.3-3.2 3.2-.5 3.7-.4 3.7 1.4 0 1.5-.9 2.1-3.7 2.6-6.3 1-9.3.7-9.3-.8zM344 148.5c0-1.5 4.2-8.5 5-8.5 1.1 0 1.3 4.9.4 7.4-.6 1.4-5.4 2.4-5.4 1.1zM405.4 132c-.4-2.4-1.2-4-2-4-.9 0-1.4-1.1-1.4-3 0-2.7-.3-3-3-3-1.6 0-3-.4-3-.8s-1.6-1.4-3.5-2.1c-2.4-.8-3.5-1.9-3.5-3.2 0-2.7 2.8-2.4 8.1 1s8 6.3 10.8 11.6c2.7 5 2.7 7.5.1 7.5-1.5 0-2.1-.9-2.6-4zM351 134.2c0-2.9 12.4-18.2 14.8-18.2.7 0 1.2 1.1 1.2 2.5 0 1.8-.5 2.5-2 2.5-1.3 0-2 .7-2 2s-.7 2-2 2c-1.4 0-2 .7-2 2.1 0 3.5-3.2 7.9-5.7 7.9-1.3 0-2.3-.4-2.3-.8zM318 126c-7.6-3.9-16.9-8-18-8-.6 0-1-.7-1-1.5 0-1 1.1-1.5 3.5-1.5 1.9 0 3.5.4 3.5.9s1.1 1.1 2.4 1.3c2.2.5 2.5.1 2.8-3.1l.3-3.5 5.1 6.4c6.2 7.9 8.9 12 7.8 11.9-.5-.1-3.4-1.4-6.4-2.9zM126.8 124.6c-1.4-1-1.4-1.4.1-3.1.9-1.1 3.6-3.6 6.1-5.5 2.5-1.9 4.7-3.7 5-4.1 1.6-2 18.9-12.9 20.5-12.9.3 0 .5 1.1.5 2.3 0 1.8-1 2.9-4 4.3-2.2 1-4 2.2-4 2.7 0 .4-.5.7-1 .7-.6 0-2 .9-3.2 2l-2.2 2h3.3c4.5 0 3.5 2.1-2 4.1-2.4.8-7.4 3.1-11 5.1-5.2 2.7-6.9 3.2-8.1 2.4zM293.8 115.7c-4-1.6-3.6-3.7.7-3.7 3.1 0 3.5.3 3.5 2.5 0 2.7-.2 2.8-4.2 1.2zM374 114.5c0-1.8 5.8-3 10.5-2.1 2.1.4 3.5 1.3 3.5 2.1 0 1.2-1.5 1.5-7 1.5s-7-.3-7-1.5zM227 111.7c0-3.2.1-3.3 5.8-4.5 7.6-1.6 10.2-1.5 10.2.2 0 1-2.1 1.9-6.2 2.8-6.2 1.4-8.5 3.2-5.1 4.1 1 .3.3.5-1.4.6-3.1.1-3.3-.1-3.3-3.2zM284 113c-1.4-.5-4.2-1.1-6.2-1.5-2.6-.4-3.8-1.1-3.8-2.2 0-1.3.9-1.5 5.7-.9 8.7 1 10.3 1.6 10.3 3.7 0 2-1.8 2.3-6 .9zM268.5 110.5c-.5-.2-2.7-.6-4.7-1-4.5-.7-5.3-3.5-1-3.5 6.3 0 10.2 1.2 10.2 3.1 0 1.8-1.8 2.3-4.5 1.4zM299.4 105.5c-.4-.8-1.3-1.5-2-1.5-.8 0-1.7-.7-2-1.5-.4-.8-1.2-1.5-2-1.5s-1.4-.4-1.4-1c0-.5-.7-1-1.5-1s-1.5-.4-1.5-.8-1.6-1.4-3.5-2.1c-1.9-.7-3.5-1.7-3.5-2.2 0-.5-.9-.9-2-.9s-2-.7-2-1.5c0-1-1-1.5-3-1.5-2.5 0-3-.4-3-2.5 0-1.4.2-2.5.5-2.5s4.2 1.9 8.8 4.1c8.6 4.4 21.3 12.7 24.2 15.9 1.8 2 1.7 2-1.9 2-2.3 0-3.9-.5-4.2-1.5zM161 98c0-1.8 24.3-12.2 34-14.6 5.1-1.3 26.6-5.4 28.3-5.4.4 0 .7.8.7 1.8 0 1.5-1.4 2.1-8.2 3.2-10.3 1.6-20.6 4.2-27.8 6.9-3 1.2-6.7 2.1-8.2 2.1-1.8 0-2.8.5-2.8 1.5 0 .9-1.7 2-4.5 2.7-2.5.7-4.5 1.6-4.5 2 0 .4-1.6.8-3.5.8s-3.5-.5-3.5-1zM260 84c0-2.1 1-2.4 4.8-1.4 3.6 1 2.7 3.4-1.3 3.4-2.8 0-3.5-.4-3.5-2zM250 83c-1.4-.4-4-.8-5.7-.9-2.6-.1-3.3-.5-3.3-2.2 0-1.9.4-2 4.3-1.4 9 1.3 13.7 2.7 13.7 4.1 0 1.6-4.7 1.8-9 .4z"/></g><g fill="#43574c"><path d="M245.8 431.3c-1-.2-1.8-1.1-1.8-1.9 0-1.1 1.8-1.4 8.5-1.4 6.6 0 8.5.3 8.5 1.4 0 .7-1 1.6-2.2 2-2.6.6-10.4.6-13-.1zM232.8 430.3c-1-.2-1.8-1.1-1.8-1.9 0-1 1.3-1.4 5-1.4 4.3 0 5 .3 5 2 0 1.6-.6 2-3.2 1.9-1.8-.1-4.1-.3-5-.6zM266 429c0-1.7.7-2 4.5-2 4.9 0 6.4 2.3 2.3 3.4-4.5 1.2-6.8.7-6.8-1.4zM217.5 428.1c-9.6-1.8-11.5-2.5-11.5-4.3 0-1.2 6-.8 17.3 1.2 5.5 1 6.7 1.5 6.7 3.1 0 2.3-.5 2.3-12.5 0zM277 428.1c0-1.5 1.5-2.1 8.3-3.5 9.3-1.8 12.7-2 12.7-.7 0 1.6-1.7 2.2-10.8 4.2-10.5 2.3-10.2 2.3-10.2 0zM306 420.6c0-1.8.9-2.7 4.3-4 4.7-1.8 9.7-2.1 9.7-.6 0 1.1-2 2.2-8.9 4.9L306 423v-2.4zM191.3 420.5c-4-1.7-4.3-3.5-.5-3.5 4.7 0 7.2 1.1 7.2 3.1 0 2.3-2.2 2.4-6.7.4zM183.3 417.5c-4.3-1.8-4.2-3.5.2-3.5 3.1 0 3.5.3 3.5 2.5 0 1.4-.1 2.5-.2 2.5-.2-.1-1.8-.7-3.5-1.5zM322 413.6c0-2.6 1.7-3.6 6.1-3.6 2.2 0 2.9-.5 2.9-2s.7-2 2.5-2c1.6 0 2.5-.6 2.5-1.5 0-.8.7-1.5 1.5-1.5s1.5-.4 1.5-1c0-.5.9-1 2-1s2-.7 2-1.5.9-1.5 2-1.5 2-.7 2-1.5.9-1.5 2-1.5 2-.7 2-1.5c0-1 1-1.5 2.9-1.5 2.5 0 3-.4 3.3-2.7.3-2.5.8-2.8 4.3-3.1l4-.2-4 3.6c-10.1 9.2-29.9 22.7-37.2 25.5-2 .7-2.3.5-2.3-1.5zM269 403c0-1.8.7-2 8.5-2s8.5.2 8.5 2-.7 2-8.5 2-8.5-.2-8.5-2zM256 402c0-2.1 1-2.4 4.8-1.4 3.6 1 2.7 3.4-1.3 3.4-2.8 0-3.5-.4-3.5-2zM292 402.6c0-1.3 2.8-2.6 5.8-2.6.6 0 1.2.9 1.2 2 0 1.6-.7 2-3.5 2-2.3 0-3.5-.5-3.5-1.4z"/><path d="M246.3 402.3c-1.5-.3-2.3-1.2-2.3-2.4 0-2.2.6-2.3 6.6-.8 8.2 2.1 4.4 4.9-4.3 3.2zM300 401.5c0-.8.2-1.5.4-1.5 2.1 0 20.4-4.3 24.9-5.9l5.7-2v2.3c0 1.9-.9 2.5-5.7 4-15.9 4.6-25.3 5.7-25.3 3.1zM240.1 394.9c-.1-2.9.4-3.8 2.4-4.7 1.4-.7 3.2-1.2 4-1.2.8 0 1.5-.4 1.5-1 0-.5.5-1 1.1-1 .6 0 1.7-.7 2.5-1.5 1.6-1.6 8.4-2.1 8.4-.7 0 1-13.9 9.1-16.9 9.9-1.1.3-2.2 1.2-2.4 2.2-.3.9-.5 0-.6-2zM332 393c0-1 3.8-3.2 8.5-5 2.3-.9 2.5-.7 2.5 1.5 0 1.8-.5 2.5-2 2.5-1.1 0-2 .5-2 1 0 .6-1.6 1-3.5 1s-3.5-.4-3.5-1zM346 386.2c0-.5 2.4-2.2 5.3-3.7 8.8-4.9 17.3-11.2 32.4-24.2 4-3.5 7.5-6.3 7.8-6.3 1.3 0-17.6 26-21.4 29.5-2.1 1.8-2.1 1.8-2.1-1.3 0-3.7-.3-3.9-3-1.2-1.1 1.1-3.3 2-5 2-2.2 0-3 .5-3 1.8 0 1.1-1.1 2.4-2.5 3-3 1.4-8.5 1.6-8.5.4zM262 381c0-2 .5-3 1.5-3 .8 0 1.5-.4 1.5-1 0-.5 1.6-1 3.6-1 4.2 0 3.8.9-2.2 5l-4.4 3.1V381zM282 365.2c0-3.7 2.8-6.2 7-6.2h3.3l-2.4 2.6c-1.3 1.4-3.6 3.5-5.1 4.6l-2.8 1.9v-2.9zM293 354.6c0-3.3.2-3.6 3.1-3.6h3l-2.1 3c-3.1 4.4-4 4.5-4 .6zM181 343.7c0-.9 1.3-1.8 3.3-2.2 16.4-3.5 33.3-12.5 55.5-29.8.9-.7 1.2-.2 1.2 2.2 0 2.6-.4 3.1-2.5 3.1-1.8 0-2.5.5-2.5 2 0 1.3-.7 2-2 2-1.1 0-2 .7-2 1.5 0 1-1 1.5-3 1.5-2.3 0-3 .4-3 2 0 1.1-.7 2-1.5 2s-1.5.4-1.5.9-1 1.3-2.2 1.7c-1.2.3-3.1 1.5-4.2 2.5-1.1 1.1-3 1.9-4.3 1.9-1.3 0-2.3.4-2.3 1 0 1.9-16.1 7.8-23.7 8.7-4.4.5-5.3.3-5.3-1zM388.9 343.1c-4.3-1.4-9.9-4.3-9.9-5.2 0-.5 1.6-.9 3.5-.9s3.5.4 3.5.9 2 1.2 4.5 1.5c3.6.6 4.5 1.1 4.5 2.7 0 2-1.6 2.3-6.1 1zM406 342c0-1.4.7-2 2.1-2 1.1 0 2.7-.7 3.5-1.5.9-.8 2.4-1.5 3.4-1.5s2-.9 2.3-2c.3-1.1 1.2-2 2.1-2 .9 0 1.6-.7 1.6-1.5s.4-1.5.8-1.5 1.4-1.6 2.1-3.5c.9-2.7 1.8-3.5 3.6-3.5 2.3 0 2.4.2 1.4 2.7-2.8 7.5-8.7 13.5-16.3 16.7-5.1 2.1-6.6 2-6.6-.4zM368 329c-5.4-5.4-5.4-5.5-2.7-5.8 3.9-.5 9 4.5 8.5 8.4l-.3 2.9-5.5-5.5zM316 325.6c0-3.3.2-3.6 3.1-3.6h3l-2.1 3c-3.1 4.4-4 4.5-4 .6zM354.6 315l-2.9-3.5 2.7-.3c3.5-.4 3.8-.1 3.4 3.9l-.3 3.3-2.9-3.4zM428 313.5c0-4.9 2.3-6.4 3.3-2.3.8 3.1-.2 6.8-1.9 6.8-1 0-1.4-1.3-1.4-4.5zM324 313.5c0-3.1.3-3.5 2.5-3.5 3 0 3 .3.8 4.1-2.3 3.8-3.3 3.7-3.3-.6zM334 297.5c0-3.3.2-3.5 3.5-3.5 3.1 0 3.5.3 3.5 2.6 0 2.2-.2 2.4-1.4 1.4-1.2-.9-1.7-.7-2.8.9-1.9 3-2.8 2.6-2.8-1.4zM422 297.5c0-1.7-.5-2.5-1.8-2.5-2.8 0-4.2-2.1-4.2-5.9l.1-3.6 5 5.5c7.2 7.9 7.7 9 3.9 9-2.5 0-3-.4-3-2.5zM369.7 245.3c-.4-.3-.7-2.2-.7-4.1 0-3 .2-3.3 1.5-2.2.9.7 2.5 2.6 3.6 4.2l2 2.8h-2.9c-1.6 0-3.2-.3-3.5-.7zM295.9 232c-4.1-5.4-7.9-11.4-7.9-12.2 0-.5 1.1-.8 2.5-.8 2.1 0 2.5.5 2.5 3 0 2.3.4 3 2 3 1.1 0 2 .6 2 1.4 0 .8.5 1.6 1.1 1.8.6.2.9 1.9.7 3.8l-.3 3.5-2.6-3.5zM282.9 213.2c-1.4-2-4.2-6.1-6.3-8.9l-3.8-5.3h3.1c2.9 0 3.1.3 3.1 3.5 0 3.1.3 3.5 2.5 3.5 1.8 0 2.5.5 2.5 2 0 1.1.7 2 1.5 2 1 0 1.5 1.1 1.5 3.5 0 4.4-.9 4.4-4.1-.3zM379 201.5c0-3.1.3-3.5 2.6-3.5 1.4 0 2.4.3 2.2.8-3.5 7.3-4.8 8-4.8 2.7zM266.2 190.5l-3.3-4 2.7-.3c3.5-.5 4.6.8 4.2 4.9l-.3 3.4-3.3-4zM256.1 177.8c-4.6-5.7-4.9-6.3-3-6.6 3.3-.6 4.9.5 4.9 3.3 0 1.8.5 2.5 2 2.5 1.6 0 2 .7 2 3.5 0 1.9-.2 3.5-.4 3.5s-2.7-2.8-5.5-6.2zM331.9 176.8c7.6-19.1 13.9-32.8 15.2-32.8.5 0 .9 1.6.9 3.5s-.4 3.5-1 3.5c-.5 0-1 .8-1 1.7 0 2.5-3.1 10.3-4.1 10.3-.5 0-.9.9-.9 2 0 2.4-2.1 7-3.2 7-.4 0-.8.9-.8 1.9 0 3.4-1.2 5.1-3.6 5.1-2 0-2.2-.3-1.5-2.2zM392 175.2c0-4 .9-6.2 2.6-6.2.8 0 1.4-1 1.4-2.5 0-1.4.5-2.5 1-2.5.6 0 1-.9 1-1.9 0-1.1 1.1-4.2 2.6-7 2-4 3-5.1 4.9-5.1 3 0 2.9.3-5.3 16-6.3 12-8.2 14.2-8.2 9.2zM305.2 167.5c-1.2-1.4-2.2-3.4-2.2-4.5 0-1.5-.7-2-2.8-2-3.4 0-5.2-1.6-5.2-4.7 0-1.9-.5-2.3-3-2.3-1.6 0-3-.4-3-1 0-.5-.7-1-1.5-1s-2-.9-2.7-2c-.7-1.1-1.8-2-2.4-2-.6 0-2.2-1.1-3.6-2.4-1.4-1.2-3.3-2.6-4.2-2.9-.9-.4-1.6-1.1-1.6-1.7 0-.5-.5-1-1.1-1-.6 0-4.5-2-8.6-4.5-4-2.5-7.8-4.5-8.3-4.5-.4 0-1-.3-1.2-.7-.2-.5-5.2-3.2-11.2-6.1-9.4-4.6-11.2-5.2-13.3-4.3-1.3.6-4.3 1.1-6.6 1.1-2.3.1-6.9.7-10.2 1.3l-6 1.3 6.2 4.6c3.4 2.5 7 5.3 7.8 6.2.9.9 2.1 1.6 2.6 1.6s.9 1.1.9 2.5c0 1.9.5 2.5 2.3 2.5 2.9 0 17.7 14.8 17.7 17.8 0 1.4.7 2.2 2.3 2.4 1.8.2 2.3 1 2.5 4.1l.3 3.8-14.8-14.9c-23.1-23.3-38.4-33.5-57.1-38.2-5.9-1.5-9.2-2.8-9.2-3.7 0-.7.9-1.3 2-1.3 1.6 0 2-.7 2-3.5 0-2.4.6-3.7 2-4.5 1.4-.8 2-2.1 2-4.5 0-3.2.3-3.5 2.9-3.5 9.3 0 41.9 7.6 50.9 11.8 3.3 1.6 4.4 4.2 1.7 4.2-.8 0-1.5.7-1.5 1.5s.5 1.5 1 1.5c1.5 0 16.9 7.5 27.5 13.3 16 8.9 34 22.3 50.5 37.5l5.5 5.1-3.6.1c-2.6 0-4.1-.7-5.7-2.5zM406 145.5c0-2.8.4-3.5 2-3.5 2.1 0 2.4 1 1.4 4.8-1 3.6-3.4 2.7-3.4-1.3z"/></g><g fill="#05746a"><path d="M181.3 416.5c-4.3-1.8-4.2-3.5.2-3.5 3.1 0 3.5.3 3.5 2.5 0 1.4-.1 2.5-.2 2.5-.2-.1-1.8-.7-3.5-1.5zM161.2 405.8c-2.8-1.8-5.2-3.6-5.2-4 0-.5 1.6-.8 3.5-.8s3.5.4 3.5.9 1.1 1.2 2.5 1.5c1.8.5 2.5 1.3 2.5 3.1 0 3.2-.4 3.2-6.8-.7zM146.5 394.9l-3-2.9h3.8c3.5 0 3.7.2 3.7 3 0 3.7-.7 3.7-4.5-.1zM136.5 387c-15.9-13.6-33.7-35.3-40.8-50-2.3-4.7-4.6-8.8-5.1-9.1-.5-.4-1-2.4-1.3-4.5-.4-4.7-1.1-8.8-1.3-9.1-.2-.2-.3-.6-.5-1-.1-.5-1-2.5-1.9-4.7-1.5-3.2-3.2-13.4-4.1-24-.1-1.6.2-4.9.7-7.5.5-2.5.9-7.7 1-11.6 0-3.8.4-8.2.8-9.6.5-1.5.5-3.1 0-3.5-1.2-1.4-2.1-7.4-1.1-7.4.5 0 1.2.6 1.4 1.3.7 1.6 2.9-1.3 2.2-3-.2-.7.4-1.8 1.5-2.6 1.2-.8 2-2.9 2.3-5.7.2-2.5.4.3.3 6.3-.1 5.9.2 10.7.7 10.7.4 0 .7 2.3.7 5.2 0 2.8.4 6.5.9 8.2 5.1 16.5 7.4 23.4 9.2 27.4 1.1 2.6 2.7 6.3 3.6 8.2 3 6.8 12 19.6 17.8 25.3 5.8 5.9 10.8 9.5 17.8 13 2 1.1 3.7 2.3 3.7 2.8 0 1.5-6.8 1-8.4-.6-.8-.8-2.1-1.5-2.8-1.5-1.7-.1-4.8-2.5-4.8-3.8 0-.6-1-1.2-2.2-1.4-1.3-.2-2.7-1.3-3.3-2.5-.5-1.3-1.5-2.3-2.2-2.3-.7 0-1.3-.6-1.3-1.3 0-.7-1-1.7-2.2-2.2-1.3-.6-2.4-2-2.6-3.2-.2-1.3-1-2.3-1.8-2.3s-1.4-.7-1.4-1.5-.4-1.5-1-1.5c-.5 0-2.8-3.2-5.1-7.1-2.3-3.9-4.8-7.3-5.6-7.6-.7-.3-1.3-1.4-1.3-2.4s-.4-1.9-1-1.9c-.5 0-1.6-1.6-2.4-3.5-.8-1.9-1.8-3.5-2.1-3.5-1 0 .6 9.1 2.2 13 .8 1.9 1.8 7.8 2.2 13 .4 5.2 1.2 10.4 1.8 11.5.6 1.1 1.4 4 1.8 6.5.4 2.5 1.4 5.4 2.1 6.5.8 1.1 1.4 2.7 1.4 3.7s.7 1.8 1.5 1.8c1 0 1.5 1.1 1.5 3.5 0 3.1.3 3.5 2.5 3.5 2 0 2.5.5 2.5 2.5 0 1.8.5 2.5 2 2.5 1.6 0 2 .7 2 3.4 0 3.2.3 3.5 3.3 3.8 2.2.2 3.5 1 4.2 2.6.5 1.2 1.5 2.2 2.2 2.2.7 0 1.3 1.1 1.3 2.5 0 1.9.5 2.5 2.1 2.5 2.6 0 4.9 2.3 4.9 4.9 0 1.7.6 2.1 3 2.1 3.3 0 4.4 1.5 3.8 5-.3 2.1-.6 1.9-5.3-2zM146 343.6c0-2.3.2-2.4 3.5-1.3 1.9.6 3.5 1.6 3.5 2.4 0 .8-1.3 1.3-3.5 1.3-3 0-3.5-.3-3.5-2.4zM347.1 142.3c1.7-4.6 6.2-12.3 7.1-12.3.4 0 .8 1.6.8 3.5 0 2.4-.5 3.5-1.5 3.5-.9 0-1.5.9-1.5 2.4 0 3.9-1.1 5.6-3.6 5.6-2.1 0-2.3-.2-1.3-2.7zM318.5 125.5c-2.7-1.4-5.6-2.5-6.2-2.5-.7 0-1.3-.7-1.3-1.5s.5-1.5 1-1.5c1.9 0 1-2.8-1-3.3-1.5-.4-2-1.4-2-4.1 0-2 .2-3.6.5-3.6.6 0 10.6 12.7 12.8 16.3 1 1.5 1.6 2.7 1.5 2.7-.2 0-2.5-1.2-5.3-2.5zM359.6 121.5c3.6-5.4 17.4-10.5 24.1-8.9 4.2 1.1 2.7 3.4-2.3 3.4s-14 3.4-16.5 6.2c-.9 1-2.8 1.8-4.3 1.8-2.6 0-2.6 0-1-2.5zM131.4 120.8c-.7-2.4 2.7-5.8 12.9-12.9l5.7-4v3.1c0 2.8-.3 3-3.5 3-2.6 0-3.5.4-3.5 1.6 0 1.2.6 1.5 2.3 1 1.2-.4 4.3-.9 7-1.3 3.8-.5 4.7-.3 4.7.9 0 1-2.2 2.1-6.5 3.3-3.5.9-9.1 3-12.4 4.5-5.9 2.8-6 2.9-6.7.8zM304.6 119.5c-1.5-.8-3.3-1.5-4-1.5-.6 0-2.2-.6-3.6-1.3-1.4-.7-5.5-2.1-9.2-3.1-7.5-2-9.4-4.6-3.3-4.6 1.9 0 3.5.5 3.5 1 0 .6 1.6 1 3.5 1s3.5.4 3.5.9 1.8 1.1 4 1.5c2.2.3 4 1.1 4 1.6 0 .6 1.1 1 2.5 1 2 0 2.5.5 2.5 2.5 0 2.9.2 2.9-3.4 1zM235 108c0-1.6.7-2 3.5-2 4 0 4.9 2.4 1.3 3.4-3.8 1-4.8.7-4.8-1.4zM301 104.9v-3l3 2.1c4.4 3.1 4.5 4 .6 4-3.3 0-3.6-.2-3.6-3.1zM159 99.1c0-.5 1.5-1.5 3.3-2.4 1.7-.8 5.7-2.6 8.7-4 4.8-2.2 21-8.7 21.7-8.7.2 0 .3 1.1.3 2.5 0 2.1-.6 2.6-4 3.1-2.2.4-4 1-4 1.5s-1.3.9-2.9.9c-1.6 0-3.1.6-3.5 1.5-.3.9-1.9 1.5-4.1 1.5-2.4 0-3.5.4-3.5 1.5 0 .9-.9 1.5-2.5 1.5-1.4 0-2.5.5-2.5 1 0 .6-1.6 1-3.5 1s-3.5-.4-3.5-.9zM287 95.5c0-3 .3-3 4.1-.8 3.8 2.3 3.7 3.3-.6 3.3-3.1 0-3.5-.3-3.5-2.5zM276 90.5c0-1-1-1.5-3-1.5-1.6 0-3-.4-3-1 0-.5-1.6-1-3.5-1-2.9 0-3.5-.4-3.5-2.1 0-1.9.4-2.1 3.8-1.4 4.4.8 16.2 6.3 16.2 7.6 0 .5-1.6.9-3.5.9-2.4 0-3.5-.5-3.5-1.5zM197 84.7c0-1.2 6-3.7 8.9-3.7 2.1 0 1.1 3.8-1.1 4.4-4 1-7.8.7-7.8-.7zM212 81.6c0-1.5 1.7-2.1 9.3-3.1 4.2-.7 4.7-.5 4.7 1.3 0 1.5-.9 2.1-3.7 2.6-6.4 1-10.3.7-10.3-.8zM243.8 82.3c-3-.3-3.8-.8-3.8-2.4 0-1.9.4-2 4.3-1.4 8.3 1.2 9.7 1.7 9.7 3.1 0 1.4-1.9 1.5-10.2.7z"/></g><g fill="#365b50"><path d="M178 344.6c0-.8 1.8-1.8 4-2.4 3.8-.9 4-.9 4 1.4 0 2.1-.4 2.4-4 2.4-2.7 0-4-.4-4-1.4zM341 156.5c0-1.6 5.1-11.5 5.9-11.5 1.5 0 1.4 4.6-.1 8.7-.9 2.4-1.8 3.3-3.5 3.3-1.3 0-2.3-.2-2.3-.5zM404 151.4c0-5.1 2.2-10.4 4.3-10.4 1.7 0 1.8.5 1.2 3.7-1.4 7.4-5.5 12.4-5.5 6.7zM349 138.4c0-1.2 3.4-6.4 4.2-6.4.4 0 .8 1.6.8 3.5 0 3.1-.3 3.5-2.5 3.5-1.4 0-2.5-.3-2.5-.6zM406 133.5c0-4 2.4-4.9 3.4-1.2s.7 4.7-1.4 4.7c-1.6 0-2-.7-2-3.5zM140.6 116.4c-1.7-4.4-.6-5.9 8.4-11.7 5-3.2 12.5-7.4 16.7-9.4 7.2-3.3 8.1-3.5 12.3-2.6 2.5.6 11 2.4 19 4.1 20.6 4.5 34.4 9.2 34.8 11.9.2 1.4-.4 2.2-1.7 2.6-1.2.3-2.1.2-2.1-.3 0-.4-1-.5-2.2-.3-1.3.2-3.2-.3-4.3-1.1-1.9-1.5-1.8-1.6.9-.6 1.6.6 3.1.9 3.3.6.3-.2-3.5-1.6-8.4-3.1-4.8-1.4-10.1-3-11.8-3.5-2.5-.8-12.2-2.6-23.5-4.4-2.2-.4-2.5-.1-2.7 2.6 0 1.9-.9 3.8-2.3 4.8-1.5 1.1-2 2.5-1.8 4.6l.3 2.9-12.5.6c-7.8.4-14.1 1.2-16.9 2.2-5.3 2-4.8 2-5.5.1zM306 109.3v-3.7l3 2.9c1.7 1.6 3 3.2 3 3.7 0 .4-1.3.8-3 .8-2.8 0-3-.3-3-3.7zM267 86c0-2.2 2-2.6 5.1-1 3 1.6 2.3 3-1.6 3-2.8 0-3.5-.4-3.5-2z"/></g><g fill="#445047"><path d="M264 429c0-1.7.7-2 4-2 4.5 0 5.7 2.3 1.8 3.4-4.2 1.1-5.8.7-5.8-1.4zM225.8 429.3c-3.3-.8-2-3.3 1.7-3.3 2.8 0 3.5.4 3.5 2 0 2-1.4 2.3-5.2 1.3zM275 428.1c0-1.5 1-2 4.6-2.6 2.5-.3 8.7-1.8 13.7-3.2 11.3-3.1 16.7-3.9 16.7-2.4 0 2.2-5.9 4.2-23.5 8.1-11 2.5-11.5 2.5-11.5.1zM315 416.6c0-2.6 1.7-3.6 6.1-3.6 5 0 3.4 2.4-3.5 5-2.3.9-2.6.7-2.6-1.4zM329 409.5c0-2 .5-2.5 2.5-2.5 1.6 0 2.5-.6 2.5-1.5 0-1 1-1.5 3-1.5 2.3 0 3-.4 3-2 0-1.5.7-2 2.5-2s2.5-.5 2.5-2c0-1.1.7-2 1.5-2s1.5-.4 1.5-1c0-.5.8-1 1.8-1 .9 0 2.2-1 2.7-2.2.6-1.4 2.1-2.4 3.8-2.6 1.8-.2 2.7-.9 2.7-2.1 0-2.1 8.2-10.1 10.4-10.1 3 0 1.6-1.9-1.6-2.2l-3.3-.3 8.3-6.7c6.7-5.5 8.6-6.5 9.7-5.5 1.9 1.7-2.1 6.8-6.6 8.4-2.8 1-3 1.2-1.1 1.2l2.3.1-2.2 3.3c-5.9 8.4-27 26.3-40.1 34-5.7 3.3-5.8 3.3-5.8.2zM265 403c0-1.5.7-2 2.8-2 4.2 0 7.2 1.1 7.2 2.6 0 1-1.4 1.4-5 1.4-4.3 0-5-.3-5-2zM280 403.6c0-1.5 3-2.6 7.3-2.6 2 0 2.7.5 2.7 2 0 1.7-.7 2-5 2-3.6 0-5-.4-5-1.4zM255 402c0-2.1 1-2.4 4.8-1.4 3.6 1 2.7 3.4-1.3 3.4-2.8 0-3.5-.4-3.5-2z"/><path d="M245.3 402.3c-1.5-.3-2.3-1.2-2.3-2.4 0-2.2.6-2.3 6.6-.8 8.2 2.1 4.4 4.9-4.3 3.2zM302 401.6c0-.9 1.9-1.8 5-2.5 6.7-1.4 7-1.4 7 .8 0 1.4-1 2-3.7 2.5-6 .9-8.3.7-8.3-.8zM316 398.9c0-.9 3.3-2.5 8.6-4.3 9.6-3.3 26.3-11.1 32.1-15 4.7-3.2 5.3-3.2 5.3-.1 0 1.6-.6 2.5-1.5 2.5-.8 0-1.5.5-1.5 1 0 .6-1.6 1-3.5 1-2.8 0-3.5.4-3.5 2 0 1.5-.9 2.2-3 2.7-1.6.3-3 .9-3 1.4 0 .5-1.1.9-2.5.9s-2.5.5-2.5 1c0 .6-1.6 1-3.5 1-2.3 0-3.5.5-3.5 1.4 0 1.6-2.1 2.6-5.5 2.6-1.3 0-2.5.5-2.7 1.1-.2.6-2.5 1.3-5.1 1.6-3.6.4-4.7.2-4.7-.8zM246 390.5c0-1.6.6-2.5 1.5-2.5.8 0 1.5-.4 1.5-1 0-.5 1.6-1 3.5-1 2.8 0 3.5-.4 3.5-2 0-1.1.7-2 1.5-2s1.5-.4 1.5-1c0-.5.9-1 2-1s2-.7 2-1.5.7-1.5 1.5-1.5 1.5-.4 1.5-1c0-.5.7-1 1.5-1s1.5-.4 1.5-1c0-.5 1.4-1 3-1 2.5 0 3-.4 3-2.3 0-3.3 1.8-4.7 5.9-4.7l3.6.1-5 4.5c-5.6 5.1-15 11.9-24 17.4-8.7 5.2-9.5 5.4-9.5 2.5zM286 361.2c0-3.4 5.5-9.2 8.8-9.2 1.7 0 2.2-.6 2.2-2.8 0-3.4 1.6-5.2 4.7-5.2 1.9 0 2.3-.5 2.3-3 0-2.7.3-3 3.1-3 3.7 0 4.3-.9-7.8 13.1-4.6 5.3-9.4 10.4-10.8 11.3-2.5 1.6-2.5 1.6-2.5-1.2zM384.9 357.6c.8-1 2.4-2.2 3.5-2.8 2-1.1 2-1 .5 1.3-.9 1.3-2.5 2.6-3.5 2.8-1.6.3-1.7.1-.5-1.3zM390.8 343.3c-3.3-.8-2-3.3 1.7-3.3 2.8 0 3.5.4 3.5 2 0 2-1.4 2.3-5.2 1.3zM405 342.1c0-1.9 2.5-3.1 6.8-3.1 1.3 0 2.2-.6 2.2-1.5s.9-1.5 2.5-1.5c1.8 0 2.5-.5 2.5-2 0-1.1.7-2.3 1.5-2.6.8-.4 1.5-1.2 1.5-2s.7-1.4 1.5-1.4 1.5-.9 1.5-2c0-4.4 2.5-10 4.4-10 1.6 0 1.7.5 1.1 3.7-1 5.3-5.1 13.1-8.8 16.5-3.5 3.3-12.1 7.8-14.9 7.8-1.1 0-1.8-.8-1.8-1.9zM380.8 339.4c-3.8-2-3.5-3.4.7-3.4 3.1 0 3.5.3 3.5 2.5 0 2.9-.5 3-4.2.9zM310 333.5c0-2.4.5-3.5 1.5-3.5.8 0 1.5-.9 1.5-2s.5-2 1-2c.6 0 1-.7 1-1.5s.7-1.5 1.5-1.5 1.5-.9 1.5-2 .5-2 1-2c.6 0 1-.7 1-1.5s.5-1.5 1-1.5c.6 0 1-.7 1-1.5 0-.9 1-1.5 2.6-1.5 2 0 2.5.4 2 1.6-1 2.5-15 22.3-15.8 22.4-.5 0-.8-1.6-.8-3.5zM213 331.3c.1-.5 4.5-3.6 9.8-7.1 5.3-3.5 14.4-10.3 20.2-15.3 10.1-8.7 10.5-8.9 10.8-6.4.4 3.3-1.3 5.5-4.4 5.5-1.7 0-2.4.6-2.4 1.8 0 2.3-3 5.2-5.3 5.2-.9 0-1.7.7-1.7 1.5 0 .9-.9 1.5-2.5 1.5-1.8 0-2.5.5-2.5 2 0 1.3-.7 2-2 2-1.1 0-2 .7-2 1.5s-.7 1.5-1.5 1.5-1.5.5-1.5 1c0 .6-.7 1-1.5 1s-1.5.5-1.5 1c0 .6-1.1 1-2.5 1-1.6 0-2.5.6-2.5 1.5 0 1-1.1 1.5-3.5 1.5-1.9 0-3.5-.3-3.5-.7zM355.2 315.4c-4.2-4.9-4.2-4.9-1.8-5.2 3.8-.5 6.8 2.8 6.4 6.9l-.3 3.2-4.3-4.9zM327 308.5c0-2.4.5-3.5 1.5-3.5.9 0 1.5-.9 1.5-2.5s.6-2.5 1.5-2.5 1.5-.9 1.5-2.5c0-2 .6-2.5 3.4-3 4.9-1 7.1-.3 7.4 2.3.2 1.2 1 2.2 1.8 2.2 1 0 1.4 1.2 1.4 3.8v3.7l-4.4-5c-2.4-2.7-4.6-4.8-4.8-4.5-.3.3-2.5 3.8-4.9 7.7-2.4 4-4.7 7.3-5.1 7.3-.5 0-.8-1.6-.8-3.5zM426.2 305.7c-.7-2.4-2.2-5-3.3-5.7-1.2-.9-1.9-2.6-1.9-4.7 0-2.9-.3-3.2-3.2-3.5-3.1-.3-3.3-.6-3.6-4.3l-.2-4 3.1 3.5c1.8 1.9 4.8 5.3 6.7 7.4 6.5 7.1 9.4 15.6 5.4 15.6-1.2 0-2.2-1.3-3-4.3zM265.3 287.8c14.1-17.5 27.6-36.3 32.7-45.5 2.8-5 4-5.4 4-1.3 0 3.2-1.9 8-3.2 8-.4 0-.8.7-.8 1.5s-.4 1.5-1 1.5c-.5 0-1 .7-1 1.5s-.4 1.5-1 1.5c-.5 0-1 .7-1 1.5s-.9 1.5-2 1.5c-1.6 0-2 .7-2 3 0 1.7-.4 3-1 3-.5 0-1 .7-1 1.5 0 .9-.7 1.8-1.5 2.1-.8.4-1.5 1.3-1.5 2 0 .8-.7 1.7-1.5 2-.8.4-1.5 1.3-1.5 2 0 .8-.6 1.7-1.4 2-.8.3-1.6 1.4-1.9 2.5-.3 1-1.2 1.9-2 1.9-.9 0-1.7 1-1.9 2.3-.2 1.4-1.1 2.3-2.5 2.5-1.5.2-2.3 1.1-2.5 3-.3 2.3-.9 2.8-3.7 3l-3.5.4 2.7-3.4zM367.2 242.8c-.7-.7-1.2-2.8-1.2-4.7 0-3.4 0-3.4 2.1-1.5 1.2 1 3 3.1 4.1 4.7l1.9 2.7h-2.8c-1.6 0-3.4-.5-4.1-1.2zM295.3 230.8c-2.1-2.9-6.4-9.1-9.6-13.8-19-27.8-35.9-48.3-55.4-67.5-12.6-12.4-12.6-12.4-20.3-18.1-6.4-4.8-10.6-9.1-9.7-10 .7-.8 7.2-2 18.7-3.5 4.1-.5 9.4-1.2 11.6-1.5 3.6-.5 5.6.2 15 4.8 6 2.9 11 5.6 11.2 6.1.2.4.8.7 1.2.7 1.7 0 16.4 9.3 26 16.4 9.7 7.2 22.5 18.2 36.2 31.2 4.3 4.1 8.1 7.4 8.5 7.4.4 0 2.2-3.3 3.9-7.2 3.5-8.2 5.4-9.8 5.4-4.4 0 2.5-.4 3.6-1.5 3.6-1 0-1.5 1-1.5 2.7 0 1.5-.5 4.2-1.2 6-1 2.8-1.7 3.3-4.5 3.3-4 0-7.3-2.6-7.3-5.7 0-1.9-.5-2.3-3-2.3-2 0-3-.5-3-1.5 0-.8-.5-1.5-1.2-1.5-2.1 0-6.8-5.3-6.8-7.7 0-1.9-.5-2.3-2.9-2.3-2 0-3.7-.9-5.4-3-1.4-1.6-2.8-3-3.1-3-1.5 0-6.6-5.5-6.6-7.2 0-1.3-.7-1.8-2.8-1.8-1.5 0-3.9-1.1-5.3-2.4-1.4-1.3-3.4-2.6-4.5-3-1-.3-3.1-1.7-4.6-3.1-1.5-1.4-2.9-2.5-3.2-2.5-.3 0-2.7-1.3-5.3-2.8-3.5-2.1-5.5-2.6-7.3-2.1-1.4.4-4.4.7-6.7.8-3.2.1-4.5-.4-5.7-2.1-1.1-1.5-1.9-1.8-2.8-1.1-.7.6-4 1.8-7.3 2.8-3.3 1-6.3 2.1-6.7 2.5-.5.3.8 2.2 2.7 4 1.9 1.9 3.5 4.1 3.5 4.8 0 .6.7 1.2 1.5 1.2s1.5.7 1.5 1.5.7 1.5 1.5 1.5 1.5.7 1.5 1.5.7 1.5 1.5 1.5 1.5.4 1.5.8 2.7 3.7 6 7.2c3.5 3.8 6 7.4 6 8.7 0 1.4.7 2.3 2.1 2.5 1.2.2 2.7 1.1 3.3 2.2.6 1 2.3 3.2 3.9 4.8 1.5 1.7 2.7 4.1 2.7 5.4 0 1.8.6 2.4 2.1 2.4 1.2 0 2.3.8 2.6 1.9.3 1.1 1.1 2.2 1.9 2.5.8.3 1.4 1.2 1.4 2.1 0 .8.5 1.5 1 1.5.6 0 1 1.3 1 2.9 0 2.3.5 3 2.3 3.3 1.4.2 2.3 1.1 2.5 2.6.2 1.2 1 2.2 1.8 2.2s1.4.9 1.4 2 .5 2 1.1 2c1.7 0 4.8 4.3 4.9 6.8 0 1.2.5 2.2 1.1 2.2 1.8 0 3.8 3.2 3.9 6.3 0 2 .5 2.7 2 2.7 1.6 0 2 .7 2 3.5 0 1.9-.2 3.5-.5 3.5-.2 0-2.1-2.4-4.2-5.2zM364 231c0-3.2 1.9-8 3.2-8 .4 0 .8-.9.8-1.9 0-1.1.6-2.6 1.3-3.3.8-.7 1.7-2.6 2.1-4.1.3-1.5 1.1-2.7 1.6-2.7.6 0 1-.7 1-1.5 0-2 4.2-10.5 5.2-10.5.4 0 .8-.7.8-1.5s2.4-6.2 5.2-12c4.4-8.7 5.6-10.5 7.5-10.5 1.3 0 2.3.2 2.3.5 0 1.6-29.2 58.5-30 58.5-.6 0-1-1.3-1-3zM395 168.9c0-4.1 1.6-6.9 4-6.9 2.6 0 2.5 2-.1 6.4s-3.9 4.6-3.9.5zM193.5 120.2c-1.1-1.1-.4-2 2-2.4 1.4-.3 2.5-.1 2.5.3 0 .5-.5.9-1.1.9-.5 0-.8.4-.5.8.5.9-2.1 1.2-2.9.4zM228.3 110.7c.1-.5-2.5-2-5.8-3.1-5.1-1.8-5.6-2.1-3.2-2.4 3.7-.4 12.7 2.6 12.7 4.3 0 .7-.9 1.5-2 1.8-1.1.3-1.8 0-1.7-.6z"/><path d="M221.4 109.5c-1.7-1.3-1.6-1.4 1.6-.3 4.3 1.4 4.9 1.8 2.4 1.8-1.1 0-2.9-.7-4-1.5z"/></g><g fill="#006965"><path d="M205.8 425.3c-3.3-.8-2-3.3 1.7-3.3 2.8 0 3.5.4 3.5 2 0 2-1.4 2.3-5.2 1.3zM174.9 413.2c-10-5.2-20.8-11.9-25.9-16.2-20.7-17.1-26.2-22.4-36.4-35-9.2-11.2-13.7-18.7-14.3-23.2-.2-2.3-1-5.1-1.6-6.2-.6-1.2-1.2-2.4-1.3-2.8-.1-.5-.2-.9-.4-1-.1-.2-.3-3.7-.5-7.8-.1-4.1-.4-8.2-.7-9-.2-.8-1-3.5-1.7-6s-1.7-5.9-2.2-7.7c-.7-2.2-.7-4.5 0-7 .6-2.1 1.1-5.2 1.1-6.8 0-2.4.5-3.1 2.1-3.2 1.5-.1 1.9.2 1.5 1.5-.5 1.4-.3 1.4.8-.2 1.4-1.8 1.5-1.7 2.2.8.3 1.4.4 3.3 0 4.1-.3.8.2 3.1 1 5.1 1.2 2.8 1.8 3.4 2.4 2.4.7-1.1 1.1-.7 1.9 1.5 5.1 14 22.6 34.8 34.9 41.3 3.4 1.8 6.2 3.7 6.2 4.3 0 .5-1.6.9-3.5.9s-3.5-.4-3.5-1c0-.5-.9-1-2-1s-2-.4-2-1c0-.5-.7-1-1.5-1s-1.5-.4-1.5-.9-.9-1.1-2-1.4c-1.2-.3-2-1.4-2-2.6 0-1.6-.6-2.1-2.4-2.1-1.5 0-2.6-.7-2.8-1.6-.3-1.4-.6-1.4-2.7.3-2 1.7-2.3 2.7-2.2 8.6.1 5.1-.3 6.9-1.4 7.3-2.9 1.1-1.8 7.1 2.3 12.7 2.2 2.9 4.6 5.8 5.5 6.6 1 .7 1.7 1.8 1.7 2.3 0 .5 1.8 2.6 4 4.5 2.2 2 4 4.2 4 5 0 .7.7 1.3 1.5 1.3 2.2 0 6.5 4.1 6.5 6.2 0 1.1.7 1.8 2 1.8 2.5 0 8 3.9 8 5.7 0 .7.7 1.3 1.5 1.3.9 0 2.7 1.1 4.1 2.5 1.4 1.4 2.9 2.5 3.4 2.5.6 0 1 .7 1 1.5 0 .9.9 1.5 2.5 1.5s2.5.6 2.5 1.5.9 1.5 2.5 1.5 2.5.6 2.5 1.5.9 1.5 2.4 1.5c1.4 0 3.1.6 3.8 1.3.7.8 2.6 1.7 4.1 2.1 2 .5 2.7 1.2 2.7 3.1 0 1.4-.2 2.5-.4 2.5s-3.6-1.7-7.7-3.8z"/><path d="M147.8 346.3c-2.2-.3-2.8-1-2.8-3s.4-2.4 1.8-1.8c.9.4 3.6 1.2 6 1.7 5.1 1.2 5.9 3.9 1 3.7-1.8-.1-4.5-.4-6-.6zM173 345.6c0-1.3 2.8-2.6 5.8-2.6.6 0 1.2.9 1.2 2 0 1.6-.7 2-3.5 2-2.3 0-3.5-.5-3.5-1.4zM345.3 146.8c1.9-4.6 3.7-4.8 3.7-.4 0 3.2-.3 3.6-2.5 3.6-2.4 0-2.5-.1-1.2-3.2zM348.2 140.3c3.5-7.4 4.8-8.1 4.8-2.8 0 3.1-.3 3.5-2.6 3.5-1.4 0-2.4-.3-2.2-.7zM404.6 132.4c-.3-.9-.6-2.4-.6-3.5 0-1-.4-1.9-1-1.9-1.5 0-5-3.3-5-4.7 0-.7-.9-1.3-2-1.3s-2-.4-2-1c0-.5-.9-1-2-1s-2-.4-2-1c0-.5-1.1-1-2.5-1-1.8 0-2.5-.5-2.5-2 0-1.2.7-2 1.8-2 2.2.1 9.5 3.4 13.4 6.1 3.5 2.5 8.8 10.4 8.8 13.1 0 2.3-3.5 2.4-4.4.2zM354.9 128c6.2-10.3 16.1-15.8 27.4-15.1 2.9.2 2 3.1-1 3.1-3.8 0-12.4 3.1-14.5 5.3-1 .9-2.7 1.7-3.8 1.7-1.4 0-2 .7-2 2.3-.1 3.2-2.3 5.7-5.3 5.7H353l1.9-3zM320.6 126.1c-.4-.5-2.3-1.5-4.4-2.1-2-.6-5.9-2.2-8.7-3.4-9.1-4.1-21.2-7.9-28.7-9.1-4.2-.7-5.4-3.5-1.5-3.5 4.5 0 14.2 2 14.5 3 .2.5 1.9 1 3.7 1 1.9 0 4 .6 4.7 1.3.7.8 3 1.6 5.1 2 3.4.5 3.7.4 3.7-1.9 0-1.8-.5-2.4-2.3-2.4-2.8 0-4.7-1.7-4.7-4.2 0-1.2-.8-1.8-2.3-1.8-3.4 0-6.7-3.2-6.7-6.4v-2.7l4.7 3.3c9.2 6.5 25.9 25.5 24.1 27.4-.3.3-.9.1-1.2-.5zM135 118.6c0-2 3.3-6.3 7.1-9.4 1.4-1.1 1.6-.9 1.1 1.3-.2 1.5 0 2.5.7 2.5s1 .4.7.9c-.4.5 0 1.1.6 1.4 1.7.6 1.3.9-4.9 3.4l-5.3 2.1v-2.2zM230 109.1c0-2 2.6-3.1 7.8-3.1 4.5 0 4.1 2.4-.7 3.8-5.4 1.7-7.1 1.5-7.1-.7zM266.3 109.8c-5-1.1-6-3.8-1.4-3.8 5.7 0 9.1 1.2 9.1 3.1 0 2.1-1.2 2.2-7.7.7zM204.3 102.3c-1.8-.3-2.3-1.1-2.3-3.4 0-2.9.2-3 3.8-2.7 3.4.3 3.7.6 4 3.6.3 3.4-.1 3.6-5.5 2.5zM191.5 99.5c-.5-.2-2.2-.6-3.7-.9-2.1-.5-2.8-1.2-2.8-3.1 0-2.2.4-2.5 4-2.5 3.9 0 4 .1 4 3.5 0 1.9-.1 3.5-.2 3.4-.2 0-.7-.2-1.3-.4z"/><path d="M172 94.5c-1.9-.7-2.9-1.4-2.1-1.4 1.2-.1 7.2-2.6 12.3-5.2 1-.5 2.3-.9 2.9-.9.6 0 2.5-.6 4.2-1.4 5.7-2.5 22.1-5.7 37-7.3 5.2-.5 5.7-.4 5.7 1.3 0 1.7-1.4 2.1-12.2 3.6-11.3 1.5-21.1 3.5-24.8 5.1-.8.3-4.4 1.6-8 2.8-3.6 1.2-7.4 2.8-8.5 3.5-2.3 1.6-2 1.6-6.5-.1zM280.3 93c-.4-1.4-1.4-2-3.4-2-2.4 0-2.9-.4-2.9-2.5 0-2.8.5-2.7 8.4 1.5 6.3 3.4 7 5 2.1 5-2.8 0-3.8-.5-4.2-2zM259 83.6c0-2.3.2-2.4 3.5-1.3 1.9.6 3.5 1.6 3.5 2.4 0 .8-1.3 1.3-3.5 1.3-3 0-3.5-.3-3.5-2.4zM241.8 82.3c-4.1-.4-4.8-.7-4.8-2.5 0-1.9.4-2 5.8-1.3 8.3 1 10.2 1.5 10.2 3.1 0 1.4-.9 1.5-11.2.7z"/></g><g fill="#3d4843"><path d="M236.8 430.3c-3.3-.8-2-3.3 1.7-3.3 2.8 0 3.5.4 3.5 2 0 2-1.4 2.3-5.2 1.3zM263 429c0-1.6.7-2 3.5-2 4 0 4.9 2.4 1.3 3.4-3.8 1-4.8.7-4.8-1.4zM300 422c0-1.6.7-2 3.5-2 3.9 0 4.6 1.4 1.6 3-3.1 1.6-5.1 1.2-5.1-1zM310 418.5c0-2.2.4-2.5 3.6-2.5 4.4 0 4.2 1.8-.4 3.7-3.1 1.3-3.2 1.2-3.2-1.2zM319 414.6c0-2.3 3.3-4.6 6.5-4.6.8 0 1.5-.4 1.5-1 0-.5 1.1-1 2.5-1 1.6 0 2.5-.6 2.5-1.5 0-1 1.1-1.5 3.5-1.5 1.9 0 3.5.4 3.5.8 0 .9-12.9 8.5-17.2 10.1-2.6 1-2.8.8-2.8-1.3zM263 403c0-2.1 1.6-2.5 5.8-1.4 3.9 1.1 2.7 3.4-1.8 3.4-3.3 0-4-.3-4-2zM284 403.6c0-1.3 2.8-2.6 5.8-2.6.6 0 1.2.9 1.2 2 0 1.6-.7 2-3.5 2-2.3 0-3.5-.5-3.5-1.4zM344 400.1c0-2.6.4-3.1 2.5-3.1 1.8 0 2.5-.5 2.5-2 0-1.7.7-2 3.8-2l3.7.1-2.6 2.2c-1.5 1.2-3.5 2.9-4.5 3.7-1.1.8-2.7 2.1-3.7 2.9-1.5 1.2-1.7 1-1.7-1.8zM242 400c0-2.1 1-2.4 4.8-1.4 3.6 1 2.7 3.4-1.3 3.4-2.8 0-3.5-.4-3.5-2zM308 400.7c0-.8 1.6-1.8 3.5-2.4 3.3-1.1 3.5-1 3.5 1.3 0 2.1-.5 2.4-3.5 2.4-2.2 0-3.5-.5-3.5-1.3zM322 397c0-1.2 3.3-3 5.4-3 .9 0 1.6.9 1.6 2 0 1.6-.7 2-3.5 2-1.9 0-3.5-.4-3.5-1zM252 386.5c0-1.8.7-2.6 2.5-3.1 1.4-.3 2.5-1 2.5-1.5s1.6-.9 3.5-.9 3.5.4 3.5.8c0 .8-10 7.2-11.3 7.2-.4 0-.7-1.1-.7-2.5zM365 382c0-2.7.3-3 3-3s2.9.2 1.9 1.9c-.7 1-2 2.3-3 3-1.7 1-1.9.8-1.9-1.9zM270 375.1c0-2.9.3-3.1 3.6-3.1 3.9 0 3.8.9-.6 4l-3 2.1v-3zM361 377.6c0-.3 3.3-3 7.3-6 3.9-3 8.1-6.3 9.2-7.3 7.9-7.1 10.7-9.4 11.2-8.9.3.3-1.4 3.2-3.8 6.5-3.1 4.3-5.1 6.1-6.6 6.1-1.6 0-2.3.6-2.3 2 0 1.5-.7 2-2.5 2s-2.5.5-2.5 2c0 1.1-.7 2-1.5 2s-1.5.5-1.5 1c0 .6-1.6 1-3.5 1s-3.5-.2-3.5-.4zM278 368.1c0-2.9.3-3.1 3.6-3.1 3.9 0 3.8.9-.6 4l-3 2.1v-3zM295 351.7c0-4 1.2-5.1 5-4.5 2 .3 2 .5-1.4 4.3l-3.5 4-.1-3.8zM404 342c0-1.6.7-2 3.5-2 4 0 4.9 2.4 1.3 3.4-3.8 1-4.8.7-4.8-1.4zM386.8 342.3c-3.3-.8-2-3.3 1.7-3.3 2.8 0 3.5.4 3.5 2 0 2-1.4 2.3-5.2 1.3zM308 336.8c0-3.4.3-3.8 2.5-3.8 3.1 0 3.2 1.1 0 4.7l-2.4 2.8-.1-3.7zM375 335l-3.5-2.9 3.8-.1c3.5 0 3.7.2 3.7 3 0 1.7-.1 3-.3 3-.1 0-1.8-1.3-3.7-3zM204 336.2c0-.8 11.2-7.2 12.5-7.2.3 0 .5 1.1.5 2.5 0 2.1-.5 2.5-3 2.5-2 0-3 .5-3 1.5s-1.1 1.5-3.5 1.5c-1.9 0-3.5-.4-3.5-.8zM427 318.5c0-2.8.4-3.5 2-3.5 2.1 0 2.4 1 1.4 4.8-1 3.6-3.4 2.7-3.4-1.3zM367 224.5c0-2.4.5-3.5 1.5-3.5s1.5-1 1.5-3c0-2.5.4-3 2.5-3 2.7 0 2.7-.1-1.4 8.3-2.8 5.6-4.1 6-4.1 1.2zM289.8 222.3c-2.9-3.4-3-5.3-.3-5.3 2.2 0 2.5.4 2.5 3.5 0 4-.1 4.1-2.2 1.8zM273.2 199l-3.2-5h3c2 0 3 .5 3 1.5 0 .8.5 1.5 1 1.5.6 0 1 1.6 1 3.5s-.3 3.5-.7 3.5c-.5 0-2.3-2.3-4.1-5zM265.7 189l-3.8-4.5 2.5-.3c3.6-.5 5.8 2.1 5.4 6l-.3 3.2-3.8-4.4zM327 184c0-.5.6-.7 1.3-.4.7.2 1.7-.8 2.4-2.6 1.5-4.1 3.3-3.8 3.3.5 0 3.3-.2 3.5-3.5 3.5-1.9 0-3.5-.4-3.5-1zM318.3 180c-.3-1.1-1.2-2-1.9-2-.9 0-1.4-1.1-1.4-3 0-1.6.2-3 .5-3s2.8 2.2 5.7 5l5.3 5h-3.8c-3.1 0-4-.4-4.4-2zM391 176.5c0-1.9.5-3.5 1-3.5.6 0 1-1.1 1-2.5 0-2.6 1.7-3.9 4.4-3.3 1.2.2 1 1.4-1.6 6.6-1.7 3.4-3.5 6.2-3.9 6.2-.5 0-.9-1.6-.9-3.5zM248.9 168.4c-4.7-5.4-12.7-14.2-17.8-19.4-5-5.2-9.1-10.2-9.1-11 0-1.8 4.7-6.4 5.2-5.1.2.6 2.5.3 5.6-.7 6.1-2 11.2-7.3 9.3-9.6-.9-1.1-.6-1.2 1.5-.8 1.9.3 2.2.7 1.2 1.3-1 .7-1 .9.3.9.9 0 2.3.8 3 1.7 1.1 1.5 1.1 1.6-.1.6-2.2-2-4-1.5-4 1 0 1.4.3 1.8.8 1 .4-.7 1.3-.9 2.1-.4.7.5 1.1 1.3.7 1.9-1 1.7 2 3.2 5.3 2.6 1.7-.4 3.1-1.1 3.1-1.5 0-1.6 5.8 0 11 3.1 2.8 1.7 5.3 3 5.6 3 .3 0 1.7 1.1 3.2 2.5 1.5 1.4 3.6 2.8 4.7 3.1 1.1.4 2.2 1 2.5 1.4.3.4 2.2 1.9 4.3 3.3 4.3 2.9 10.7 8.4 10.7 9.2 0 .3-1.6.5-3.5.5s-3.5-.3-3.5-.7c0-.5-1.5-1.8-3.4-3.1-2.7-1.9-3.8-2.1-6-1.2-3.5 1.3-8.3 1.3-9.1 0-.3-.5-1.9-1-3.6-1-1.9 0-2.9-.5-2.9-1.5 0-.8-.9-1.5-2-1.5s-2-.4-2-1c0-.5-2-1-4.5-1-2.7 0-4.5.5-4.5 1.1 0 2-4.8 5.7-7.7 6.1-2.5.3-2.6.4-1 2 .9.9 1.7 2.1 1.7 2.7 0 .6.5 1.1 1 1.1.6 0 1 .6 1 1.4 0 .8.7 1.6 1.5 2 .9.3 1.5 1.8 1.5 3.6 0 2.5.4 3 2.4 3 3.2 0 4.8 2.2 4.4 6.1-.3 3.3-.3 3.3-8.9-6.7zM335.5 169.3c.4-1 1.3-3.1 1.9-4.8 3.1-8 5.6-9.8 5.6-4 0 2.2-.6 3.8-1.5 4.1-.9.4-1.5 1.9-1.5 3.5 0 2.5-.4 2.9-2.6 2.9-2.1 0-2.5-.3-1.9-1.7zM304.2 167.4c-.7-.8-1.2-2.6-1-4l.3-2.6 4.5 4 4.5 4.1H309c-1.9 0-4.1-.6-4.8-1.5z"/><path d="M232 130.3c.8-.3 2.7-1.2 4.3-2 1.5-.7 2.7-1.1 2.7-.9 0 .8-5.8 3.6-7.2 3.5-.9 0-.8-.2.2-.6z"/></g><g fill="#065f5f"><path d="M197.8 422.7c-4-1.6-3.6-3.7.7-3.7 3.1 0 3.5.3 3.5 2.5 0 2.7-.2 2.8-4.2 1.2zM188.1 419.1c-6.4-2.3-6.8-4.5-.7-3.9 5.4.6 5.9.9 5.4 3.6-.3 1.9-.4 1.9-4.7.3zM171.5 411.1c-15.2-8.2-30.1-19.6-44.5-34.1-12.2-12.1-17.9-20-17.2-23.5.4-2.1.2-2.6-.8-2-1 .6-1.2.2-.7-1.5.3-1.2.2-3.3-.3-4.6-1.1-2.7.4-4.2 2.5-2.4.7.6 1.5.7 1.8.3.7-1.1-.3-6.3-1.2-6.3-.4 0-.5-1.7-.2-3.7.4-3.5.5-3.6 1.2-1.3l.7 2.5.1-2.7c.1-1.6 1.1-3.4 2.7-4.5 2.3-1.7 2.5-2.2 1.5-4.1-.6-1.2-1-2.2-.8-2.2.2 0 3 2.5 6.3 5.6 8 7.6 18.5 14.4 22.1 14.4 2 0 6.3 2.6 6.3 3.8 0 1.4-6.6 1.7-7.4.3-.8-1.3-6.4-2.2-9.2-1.5-2 .5-2.4 1.2-2.4 4.7 0 2.2-.5 5.5-1.2 7.3-1 2.7-.8 3.5.9 6 1.2 1.6 2.4 5 2.8 7.6.4 2.6 1.3 4.9 2.1 5.2.8.3 1.4 1.4 1.4 2.5 0 1 .9 2.1 2 2.4 1 .3 2.2 1.7 2.6 3.1.6 2.7 5.8 8.6 7.4 8.6.5 0 1.7 1.1 2.8 2.5 1.1 1.4 2.3 2.5 2.7 2.5.3 0 1.3.6 2 1.3 3.1 2.7 4.4 3.7 5.1 3.7 1 0 12.9 7.3 13.2 8.2.2.4 1.2.8 2.3.8 1.4 0 1.9.7 1.9 2.5 0 1.4-.3 2.5-.7 2.5-.5 0-4-1.7-7.8-3.9zM174 345.6c0-1.3 2.8-2.6 5.8-2.6.6 0 1.2.9 1.2 2 0 1.6-.7 2-3.5 2-2.3 0-3.5-.5-3.5-1.4zM346 145.6c1.9-5.1 7.2-14.9 10.6-19.6 4-5.6 8.2-9 14.2-11.3 5.5-2.2 7.2-2.1 7.2.3 0 1.1-.5 2-1 2-.6 0-3 .9-5.2 2-2.3 1.1-5 2-6 2-1.1 0-1.8.7-1.8 2 0 1.1-.9 2.5-2 3.2-1.1.7-2 1.8-2 2.5s-.3 1.3-.7 1.3c-.5 0-1.7 1.8-2.7 4-1.1 2.2-2.5 4-3.3 4-.8 0-1.3 1.2-1.3 3 0 1.7-.4 3-1 3-.5 0-1 .9-1 2 0 1.5-.7 2-2.5 2-2.2 0-2.3-.3-1.5-2.4zM405 133.1c0-1.6-.6-3.1-1.5-3.5-.8-.3-2-1.7-2.7-3.1-.6-1.4-1.5-2.5-2-2.5s-2.4-1.1-4.1-2.4c-1.8-1.4-5.1-3-7.4-3.8-3.1-.9-4.3-1.8-4.3-3.2 0-1.6.5-1.8 4-1.2 8 1.3 17.5 8.4 20.4 15.2 2.9 6.8 2.9 7.4.2 7.4-2.2 0-2.6-.5-2.6-2.9zM307.8 120.5c-1.6-1.7-21.3-7.9-28-9-2.5-.4-3.8-1.1-3.8-2.2 0-1.3 1-1.4 6.8-.8 3.7.4 8.4 1.3 10.5 2 3.5 1.2 4 1.2 5.9-.7 1.9-1.9 1.9-2.2.4-3-.9-.5-1.6-1.6-1.6-2.3 0-.8-.7-1.5-1.6-1.5-2.3 0-13.4-7.2-13.4-8.7 0-.8-1.3-1.3-2.9-1.3-1.6 0-3.6-.6-4.3-1.3-.7-.8-2.6-1.7-4.1-2.1-1.5-.3-2.7-1.1-2.7-1.6 0-.6-1.5-1-3.2-1-1.8-.1-5.1-.7-7.3-1.5-9.2-3.4-25.4-4.1-42.7-1.9-5.5.7-5.5 2.4 0 2.5 3.3 0 4.1.6 7.5 5.2 2 2.8 3.7 5.7 3.7 6.3 0 .7.7 1.4 1.5 1.8.9.3 1.5 1.8 1.5 3.9v3.5l4.5-.6c3.6-.4 4.5-.1 4.5 1 0 2-8.5 4.5-10.2 3-2.2-1.8-20.3-7.2-32.5-9.8-15.2-3.1-24.3-5.5-24.3-6.4 0-.9 7.5-4.5 13.5-6.4 2.8-.9 5.7-2 6.5-2.3 3.5-1.5 13.4-3.6 26-5.4 17.9-2.6 29.4-1.7 48.5 3.6 7.2 2 25.8 11.5 30.4 15.6 1.9 1.6 3.6 2.9 4 2.9 1.4.1 10.9 9.7 11.5 11.8.4 1.2 1.1 2.2 1.6 2.2s.4 1.1-.2 2.5c-1 2.3-4.5 3.4-6 2zM140.8 114.5c.4-3.5 2.2-6 2.2-3.1 0 .9.5 1.6 1.1 1.6.5 0 .7.5.4 1-.3.6 0 1 .7 1 1.2.1-2.9 2.9-4.2 3-.4 0-.4-1.6-.2-3.5z"/><path d="M267.8 109.8c-4.8-1.3-5.1-3.8-.5-3.8 5.1 0 7.7 1.1 7.7 3.1 0 2.1-1.4 2.2-7.2.7zM243 107c0-1.8.7-2 6.5-2s6.5.2 6.5 2-.7 2-6.5 2-6.5-.2-6.5-2z"/></g><g fill="#04585b"><path d="M206 425.1c-3-1-6.2-2-7-2.3-.8-.3-4.4-1.6-8-2.8-6.6-2.3-16.8-7.4-25.8-12.9-2.7-1.7-5.2-3.1-5.6-3.1-.4 0-1.4-.6-2.1-1.2-.8-.7-2-1.7-2.7-2.3-.7-.5-4.2-3.5-7.8-6.5-3.6-3-6.6-5.5-6.8-5.6-.1-.1-.5-1.2-.7-2.4-.5-2.7-1.1-3.3-3-3.6-.8-.1-1.3.2-.9.7.3.5 0 .9-.6.9-.8 0-.9-1-.5-3.1.6-2.6.4-3.1-1.5-3.6-1.7-.4-2.1-1.1-1.7-2.9.2-1.3-.2-2.9-1-3.5-.9-.8-1-1.5-.3-2.4.7-.8.3-1.9-1.2-3.6-1.8-1.9-2.3-3.7-2.3-7.6 0-2.8.3-4.9.7-4.7 1.5 1 1.4-2.3-.2-4.1-1.4-1.5-1.6-2.6-.8-4.5.7-1.8 1.1-2.1 1.7-1.1.6.9 1 .7 1.4-.8.3-1.2.9-2.1 1.4-2 2.1.4 3.2-.2 2.7-1.6-.4-.8-.9-1.3-1.3-1-.4.2-.8-.2-.8-1 0-1.9.5-1.9 2.3 0 .9.8 2.4 1.5 3.5 1.5 1 0 1.9.4 1.9.9s1.4 1.3 3.2 1.6c1.8.4 3.9 1.1 4.8 1.6.8.4 3.2 1.1 5.3 1.4 2.5.4 3.7 1.1 3.7 2.2 0 1.3-.8 1.5-5.3.9-2.8-.3-6-.6-6.9-.6-1.1 0-1.8-.8-1.8-2 0-1.1-.4-2-1-2-2.1 0-1 8.9 2.1 16.1 1.7 4.1 3.3 8.4 3.6 9.7.3 1.2.9 2.5 1.4 2.8.5.3.9 1.3.9 2.3 0 2.5 7.5 17.3 9.9 19.5 1.2 1.1 2.1 2.9 2.1 4 0 1.2 1 2.8 2.1 3.6 1.2.8 2.7 2 3.3 2.6.7.6 2.2 1.5 3.4 1.8 1.2.4 2.2 1.2 2.2 1.7s.7.9 1.5.9 2.4.9 3.5 2 2.7 2 3.5 2c.8 0 1.5.5 1.5 1 0 .6.9 1 1.9 1 1.1 0 2.6.7 3.5 1.5.8.8 2.1 1.5 2.8 1.5.7-.1 5.9 1.4 11.5 3.2 9 2.9 10.3 3.6 10.3 5.6 0 1.2-.1 2.1-.2 2.1-.2-.1-2.8-.9-5.8-1.8zM180 344.6c0-.7.8-1.6 1.8-1.9.9-.2 2.5-.8 3.5-1.2 1.4-.6 1.7-.2 1.7 1.9 0 2.3-.4 2.6-3.5 2.6-2.3 0-3.5-.5-3.5-1.4zM404 150.6c0-1.3.3-3.8.6-5.5.5-2.5 1.2-3.1 3.1-3.1 1.7 0 2.3.4 2 1.4-.3.8-1.1 3.2-1.8 5.5-1.3 4.4-3.9 5.6-3.9 1.7zM344 150.4c0-1.9 9.8-19.9 13.6-25 4.6-6.3 11.3-10.6 18.4-12 2.6-.6 3-.3 3 1.4 0 1.5-1 2.4-3.7 3.3-4.4 1.4-12.3 6.1-12.3 7.2 0 1.2-2.7 3.7-3.9 3.7-.6 0-1.1 1.2-1.1 2.6 0 1.7-.6 2.8-2 3.1-1.1.3-2 1.3-2 2.3 0 2.6-2.9 9-4 9-.6 0-1 1.1-1 2.5 0 2-.5 2.5-2.5 2.5-1.4 0-2.5-.3-2.5-.6zM404.6 133.9c-.3-1.7-.6-4.2-.6-5.5 0-1.9-.5-2.4-2.5-2.4-2.8 0-3.8-1.6-3.3-5.2.3-2.2.6-2 4.6 2.1 2.4 2.5 4.6 5.7 4.9 7.3.3 1.6 1 3.1 1.4 3.4 1.9 1.1.8 3.4-1.5 3.4-1.8 0-2.5-.7-3-3.1zM303 117.5c-6.5-2.5-17.5-5.4-23-6-8.2-.9-14-2.6-14-4.1 0-1.6 4.2-1.7 12.9-.5 6.9 1 10.1-.3 10.1-4.2 0-2.9-2-5.7-3.9-5.7-.6 0-1.1-.4-1.1-1 0-.5-.9-1-2-1s-2-.7-2-1.5c0-1-1-1.5-3-1.5-1.9 0-3-.5-3-1.4 0-.8-1.4-1.6-3.2-1.9-1.8-.3-6-1.3-9.3-2.2-3.3-.9-7.5-1.9-9.2-2.2-2.5-.4-3.3-1-3.3-2.5 0-1.8.5-2 4.3-1.4 2.3.4 6 1.3 8.2 2.1 2.2.8 4.8 1.4 5.8 1.5 6.2.1 40.7 21.5 40.7 25.2 0 .5-.4.7-.9.4-.8-.6-6.1 3.4-6.1 4.6 0 .3 1.1.9 2.4 1.2 1.3.3 2.6 1.3 3 2.1.3.8.4 1.5.3 1.4-.1 0-1.8-.6-3.7-1.4zM387.3 118.3c-1.6-.6-1.7-4.3-.1-4.3 2.6 0 7.8 2.5 7.8 3.7 0 1.3-5.1 1.7-7.7.6zM225 108c-2.9-1.7-3.1-1.9-.9-1.4s2.6.2 2.4-1.7c-.1-1.7-1-2.5-3.3-3.1-1.8-.5-3.2-1.3-3.2-1.9 0-.7.9-.9 2.1-.6 1.9.5 2 .4.5-1.6-.9-1.2-2.6-3.7-3.9-5.5-1.7-2.5-2.7-3.1-4.5-2.7-2 .5-7.6-1.7-9.2-3.6-.3-.3-1.4-.9-2.5-1.4l-2-.8 2-.4c1.1-.2 2.9-.8 4-1.3 4.6-2.1 33.6-3.9 39.3-2.4 1.2.4 2.2 1.3 2.2 2 0 1.1-2.4 1.4-11.2 1.4l-11.3.1 3 2.4c1.7 1.4 3.5 2.5 4.1 2.5.6 0 1.9 1.8 2.9 4s2.4 4.5 3.2 5.1c.7.6 1.3 2.6 1.3 4.4v3.2l7.4-.5c9.2-.6 12.6.2 12.6 2.8 0 1.7-.7 1.9-7.7 1.7-4.3-.1-11.4.1-15.8.5-7 .7-8.4.5-11.5-1.2z"/></g><g fill="#364040"><path d="M237.8 430.3c-3.3-.8-2-3.3 1.7-3.3 2.8 0 3.5.4 3.5 2 0 2-1.4 2.3-5.2 1.3zM261 429c0-1.7.7-2 4-2 4.5 0 5.7 2.3 1.8 3.4-4.2 1.1-5.8.7-5.8-1.4zM219.4 428.1c-9.3-1.8-11.4-2.5-11.4-4.2 0-1.3 1.9-1.2 14.3.7 9.2 1.4 10.7 1.9 10.7 3.5 0 2.3-1.2 2.3-13.6 0zM274 428.2c0-1.5 1.3-2.1 7.3-3.2 3.9-.7 11.7-2.8 17.2-4.7 5.5-1.8 11.1-3.6 12.5-4 1.3-.3 3.1-1.2 3.8-2 1.6-1.5 8.2-1.8 8.2-.2 0 2.6-21.5 10.6-37.9 14-11.4 2.3-11.1 2.3-11.1.1zM325 411.5c0-1.6.6-2.5 1.5-2.5.8 0 1.5-.4 1.5-1 0-.5 1.1-1 2.5-1 1.6 0 2.5-.6 2.5-1.5 0-.8.9-1.5 2-1.5s2-.4 2-1c0-.5.8-1 1.9-1 1 0 2.1-.9 2.4-2 .3-1.2 1.4-2 2.6-2 1.2 0 2.1-.6 2.1-1.5 0-.8.9-1.5 2-1.5s2-.7 2-1.5c0-.9.9-1.5 2.5-1.5 1.7 0 2.5-.5 2.5-1.8 0-2.7 2-4.2 5.8-4.2 3 0 3.3.2 2.1 1.6-2.4 2.9-22.4 18-28.4 21.5-9 5.1-9.5 5.3-9.5 2.4zM251 403.4c-4.1-.7-9-1.6-10.7-1.9-3.1-.6-3.3-.8-3.3-4.9 0-3.9.3-4.4 3.5-5.9 2-.9 4.2-1.7 5-1.7.8 0 1.5-.4 1.5-1 0-.5 1.6-1 3.5-1s3.5.4 3.5.9-2.9 2.4-6.5 4.2c-3.6 1.9-6.5 3.9-6.5 4.5 0 1.2 7.1 2.8 17 3.9 8.9 1 11 1.6 11 3.1 0 1.8-7.5 1.7-18-.2zM285 403.6c0-1.5 1.9-2.1 10.8-3.1 4.7-.6 5.2-.5 5.2 1.3 0 1.6-.9 2-5.2 2.6-8.3.9-10.8.8-10.8-.8zM303 401.7c0-1.1 1.2-1.8 3.8-2.2 3.7-.7 5.4-1.1 15-3.8l5.2-1.5v2.3c0 2-.6 2.5-3.7 3-2.1.4-4.9 1.1-6.2 1.6-1.2.5-5 1.2-8.2 1.6-5 .5-5.9.3-5.9-1z"/><path d="M328 394.9c0-.5 2.6-2.1 5.8-3.5 20.4-9 35.6-18.9 51.7-33.8 1.5-1.4 3-2.4 3.2-2.2.6.6-15.8 22.4-19.1 25.5-2.6 2.4-2.6 2.4-2.6.3 0-1.3-.6-2.2-1.5-2.2-.8 0-1.5.5-1.5 1 0 .6-.7 1-1.5 1s-1.5.5-1.5 1c0 .6-.7 1-1.5 1s-1.5.4-1.5.8c0 1.2-4.7 3.2-7.5 3.2-1.3 0-2.5.7-2.7 1.6-.7 3.4-19.8 9.5-19.8 6.3zM260 381.5c0-2.2.4-2.5 3.5-2.5s3.5-.3 3.5-2.5c0-1.8.5-2.5 2-2.5 1.1 0 2-.7 2-1.5 0-1 1.1-1.5 3.5-1.5 1.9 0 3.5.2 3.5.5 0 .7-16.2 12.5-17.2 12.5-.4 0-.8-1.1-.8-2.5zM389 342.5c-5.9-1.7-9.6-3.7-14.5-7.9l-4-3.5 3.8-.1c3 0 3.7.3 3.7 2 0 1.5.7 2 2.5 2 1.4 0 2.5.4 2.5.8 0 .7 10.5 4.2 12.8 4.2.7 0 1.2.9 1.2 2 0 2.3-1.5 2.4-8 .5zM407 341.2c0-1.3 1.3-2.3 3.9-3.2 2.2-.7 4.2-1.9 4.5-2.6.3-.8 2-1.4 4.2-1.4h3.7l-2.3 2.5c-2.6 2.7-9.7 6.5-12.3 6.5-1 0-1.7-.8-1.7-1.8zM200 338c0-.5 3-2.4 6.8-4.1 3.7-1.8 8.3-4.2 10.2-5.5 4.4-3 5-3 5 .1 0 1.6-.6 2.5-1.5 2.5-.8 0-1.5.5-1.5 1 0 .6-1.3 1-3 1-2 0-3 .5-3 1.5s-1 1.5-3 1.5-3 .5-3 1.5-1.1 1.5-3.5 1.5c-1.9 0-3.5-.4-3.5-1zM309 334.5c0-3.2.2-3.5 3-3.5h3l-2.2 3.5c-2.9 4.4-3.8 4.4-3.8 0zM423 329.6c0-1.9.7-4.1 1.5-5 .8-.8 1.5-2.4 1.5-3.5 0-1.4.6-2.1 2-2.1 2.7 0 2.5 2-.6 8.6-2.9 6.2-4.4 6.9-4.4 2zM223 325.3c.1-.5 2.5-2.5 5.5-4.6l5.5-3.8v3.1c0 2.3-.4 3-2 3-1.1 0-2 .7-2 1.5 0 1-1.1 1.5-3.5 1.5-1.9 0-3.5-.3-3.5-.7zM357.8 318l-2.8-3.5 2.6-.3c3.3-.4 3.6-.1 3.2 3.9l-.3 3.4-2.7-3.5zM240.5 311.5c2.8-2.5 6.3-5.5 7.8-6.6l2.8-2.1-.3 3.3c-.3 3.1-.6 3.4-4 3.7-3.5.3-3.8.6-3.8 3.3 0 2.7-.3 2.9-3.7 2.9h-3.8l5-4.5zM325 311.5c0-2.4.5-3.5 1.5-3.5.9 0 1.5-.9 1.5-2.5 0-1.8.5-2.5 2-2.5 1.6 0 2-.7 2-3 0-2 .5-3 1.5-3 .8 0 1.5-.9 1.5-2 0-1.6.7-2 3.5-2 3.3 0 3.5.2 3.5 3.5 0 3.2.2 3.5 3 3.5 3.4 0 4.3 1.4 3.8 5.7-.3 2.7-.4 2.7-4.8-2.9-2.5-3.2-5-5.8-5.7-5.8-.7 0-1.8 1.1-2.5 2.4-3.5 6.5-9.3 15.6-10 15.6-.4 0-.8-1.6-.8-3.5zM427 308.4c0-1.4-.7-3.2-1.5-4-.8-.9-1.5-2.6-1.5-3.9 0-1.7-.6-2.5-2.2-2.7-1.9-.2-2.4-1-2.6-4-.3-3.4-.6-3.8-3.1-3.8-2.8 0-6.1-2.6-6.1-4.8 0-.7-.7-1.2-1.5-1.2-.9 0-1.5-.9-1.5-2.5 0-2-.5-2.5-2.5-2.5-1.8 0-2.5-.5-2.5-2 0-1.1-.7-2-1.5-2-2.9 0-5.5-3.3-5.5-6.9v-3.5l7.1 6.9c9.5 9.3 24.7 26.4 26.4 29.5.7 1.4 1.6 4.2 2 6.3.7 3.3.5 3.7-1.4 3.7-1.6 0-2.1-.6-2.1-2.6zM272 280c3.1-4.4 4-4.5 4-.6 0 3.3-.2 3.6-3.1 3.6h-3l2.1-3zM287 260.1c0-.6 1.1-2.3 2.5-3.8l2.4-2.8.1 3.8c0 3.3-.3 3.7-2.5 3.7-1.4 0-2.5-.4-2.5-.9zM364.2 239.8c-.7-.7-1.2-3.6-1.2-6.5 0-5 .1-5.3 2.5-5.3 2.9 0 2.9.1 1.4 3.4-1 2.1-.7 2.9 1.6 6l2.7 3.6h-2.9c-1.6 0-3.4-.5-4.1-1.2zM300 237.9c0-.5-1.6-3.1-3.5-5.6-4.2-5.5-4.3-6.3-1-6.3 1.8 0 2.5.5 2.5 2 0 1.1.5 2 1.1 2 2 0 3.9 2.9 3.9 5.9 0 2.1-.5 3.1-1.5 3.1-.8 0-1.5-.5-1.5-1.1zM289.7 222.1c-2.2-3.8-2.2-4.1.8-4.1 2.2 0 2.5.4 2.5 3.5 0 4.3-1 4.4-3.3.6zM369 219.6c0-2.9.4-3.6 2-3.6s2-.7 2-3.5c0-1.9.5-3.5 1-3.5.6 0 1-1.1 1-2.5 0-1.8.5-2.5 2-2.5 1.6 0 2-.7 2-3.5 0-1.9.5-3.5 1-3.5.6 0 1-1.1 1-2.5 0-1.6.6-2.5 1.5-2.5 1 0 1.5-1 1.5-3 0-1.6.5-3 1-3 .6 0 1-.7 1-1.5s1.4-4.4 3.2-8c2.5-5.1 3.7-6.5 5.5-6.5 2 0 2.1.3 1.2 2.8-2.3 6.2-24.6 49.6-25.7 50-.8.2-1.2-.9-1.2-3.2zM279.3 207.3c-1.6-2.1-3.7-5-4.6-6.5L273 198h3c2.6 0 3.1.5 3.7 3 .3 1.7 1.2 3 1.9 3 .9 0 1.4 1.2 1.4 3.5 0 1.9-.2 3.5-.4 3.5s-1.7-1.7-3.3-3.7zM269.3 193.3c-1.5-2.1-3-4-3.3-4.3-.3-.3-3-3.6-6-7.5-3-3.8-7-8.8-8.9-11.1-6-6.8-8.1-9.4-8.1-10 0-.4-1.1-1.7-2.6-3-1.4-1.3-2.1-2.4-1.7-2.4.4 0 .2-.4-.6-.9-1.8-1.1-.7-2.7 3.2-4.7 2-1.1 3.2-1.3 3.5-.6.4 1.2 4.7-2.7 4.7-4.3 0-.6 3.6-1.1 8.3-1.3 5.6-.2 8.2.1 7.7.8-.3.6.3 1 1.4 1 1.2 0 2.1.7 2.1 1.5 0 1 1 1.5 2.8 1.5 1.5 0 3.2.4 3.7.9 1.2 1.1 5.5-.4 5.5-1.9 0-.5 1.1-1 2.5-1s2.5.4 2.5.9.8 1.2 1.8 1.5c.9.4 3.1 1.9 4.9 3.4 1.8 1.5 4.1 3.4 5.1 4.2 2.2 1.7 14.7 13 24.2 21.9 3.6 3.4 6.8 6.1 7.2 6.1.3 0 1.2-1.7 1.9-3.7.7-2.1 2.5-6.6 4.1-10 1.5-3.4 2.8-6.6 2.8-7.2 0-.6.7-1.1 1.5-1.1 2.5 0 1.8 5.5-1.5 12.7-1.6 3.5-3.3 7.5-3.6 8.8-.6 2.4-2.9 3.5-7.6 3.5-1.8 0-2.8-.5-2.8-1.5 0-.8-.7-1.5-1.6-1.5-.9 0-1.8-.9-2.1-2-.3-1.1-1.2-2-1.9-2-.8 0-1.4-.7-1.4-1.5s-.7-1.5-1.5-1.5-1.5-.7-1.5-1.5-.7-1.5-1.5-1.5c-.9 0-2.5-.9-3.7-2-1.2-1.1-3.2-2-4.6-2-1.3 0-3-.7-3.8-1.5-.9-.8-3.1-1.5-5-1.5s-3.4-.4-3.4-1c0-1.3-6.4-2.4-9.5-1.6-1.6.4-2.5 1.3-2.5 2.6 0 1.5-.7 2-2.5 2-1.4 0-2.5.4-2.5.9s-1.8 1.2-4.1 1.6c-2.2.4-4.3 1.3-4.6 2.1-.3.8-1.7 1.4-3.1 1.4-2.4 0-2.4.1-.9 1.8 1 1 1.7 2.3 1.7 2.9 0 .6.7 1.3 1.5 1.7.8.3 1.5 1.2 1.5 2.1 0 .8.5 1.5 1 1.5.6 0 1 1.1 1 2.5 0 1.8.5 2.5 2 2.5 1.6 0 2 .7 2 3.5 0 1.9-.2 3.5-.4 3.5-.3 0-1.8-1.7-3.3-3.7zM397 164.5c0-3.1.3-3.5 2.6-3.5 1.4 0 2.4.3 2.2.8-3.5 7.3-4.8 8-4.8 2.7z"/></g><g fill="#045054"><path d="M206.1 424.7c-7.5-2.5-9.2-4.7-3.7-4.7 2 0 3.6.5 3.6 1 0 .6 1.6 1 3.5 1 3.1 0 3.5.3 3.5 2.5 0 1.4-.1 2.5-.2 2.4-.2 0-3.2-1-6.7-2.2z"/><path d="M193.8 420.7c-4-1.6-3.6-3.7.7-3.7 3.1 0 3.5.3 3.5 2.5 0 2.7-.2 2.8-4.2 1.2zM181 415.5c-3.6-1.9-7.6-4-9-4.7-1.4-.7-3.1-1.8-3.8-2.5-.7-.7-1.8-1.3-2.3-1.3-.6 0-1.6-.6-2.4-1.2-.7-.7-2.5-2.2-3.9-3.2-1.7-1.2-2.4-2.5-2.1-3.6.3-1-.4-2.5-1.6-3.6-2.4-2.2-9.9-16.9-9.9-19.5 0-1-.4-2.1-1-2.4-.5-.3-1.5-1.5-2.1-2.7-.8-1.4-.8-1.8 0-1.4.7.5.9.1.5-.8-.3-.9-1-1.3-1.5-1-.5.3-.9.2-1-.3-.3-3.8-1-6.5-2.4-9.9-1.9-4.3-2.8-14.4-1.4-14.4.5 0 .9-.9.9-1.9 0-1.7.3-1.8 3.5-.8 4 1.2 4.6 3.3 1.3 4-1.5.3-1 .5 1.4.6 2 0 3.8-.4 4-1 .6-1.7 6.8-.1 6.8 1.7 0 .9-1.2 1.4-3.6 1.4-4.2 0-3.9.8 1.3 3.5 4.4 2.3 6.2 4.3 6.3 6.7 0 1 1.1 4.1 2.4 7 3.3 7.4 4.4 10.5 5.5 16.3 1.1 5.7 3.6 13.6 5.6 18 .8 1.7 1.7 4.2 2.1 5.7.6 2.7 7.1 7.6 12.2 9.2 1.5.5 2.2 1.5 2.2 3.2 0 1.3-.3 2.4-.7 2.4-.5-.1-3.7-1.6-7.3-3.5zM175 345.7c0-1.1 1.3-1.8 3.8-2.2 2-.4 4.6-1 5.7-1.4 1.1-.4 6.2-2.2 11.3-3.9l9.2-3v2.4c0 2-.5 2.4-3 2.4-1.6 0-3 .4-3 1 0 .5-1.9 1.4-4.2 2.1-2.4.6-5 1.5-5.9 1.9-.9.5-4.4 1.2-7.8 1.6-5.2.6-6.1.4-6.1-.9zM399 159.6c0-2.5.4-3.6 1.5-3.6 1 0 1.5-1 1.5-3 0-2.5.4-3 2.5-3 3.2 0 3.1.5-.4 7.1-3.5 6.5-5.1 7.3-5.1 2.5zM341 157.1c0-1.6 8.2-17.1 9.1-17.1 1 0 1.2 5 .3 7.4-.3.9-1.2 1.6-2 1.6s-1.4 1-1.4 2.3c0 4.6-1.2 6.7-3.6 6.7-1.3 0-2.4-.4-2.4-.9zM350 138.1c0-.4 1.1-2.5 2.5-4.5s2.5-4 2.5-4.4c0-.4 1.6-2.5 3.5-4.7l3.5-4v3.3c0 4.4-1.6 7.2-4 7.2-1.4 0-2 .7-2 2.4 0 4-1.1 5.6-3.6 5.6-1.3 0-2.4-.4-2.4-.9zM371 116.6c0-.7.8-1.6 1.8-1.9.9-.2 2.5-.8 3.5-1.2 1.4-.6 1.7-.2 1.7 1.9 0 2.3-.4 2.6-3.5 2.6-2.3 0-3.5-.5-3.5-1.4zM280.9 110.8c-2.3-.9-23.1-2.9-30.4-3-2.7 0-7.1.3-9.6.7l-4.7.7.1-3.8c0-2.2-.7-5-1.5-6.4-.9-1.4-2.2-3.7-2.9-5.2-.6-1.5-1.5-2.5-1.9-2.3-.4.2-2.7-1.4-5.1-3.6-3.3-3-4-4.2-3-4.8 1.1-.7 1.1-.9 0-1.3-.8-.3-1.1-.8-.8-1.2.8-.8 27.8-.9 31.7-.1 9.1 2 24.2 6.7 24.2 7.6 0 .4 1.4 1 3 1.4 1.7.4 3 1.1 3 1.6s.5.9 1.1.9c1.7 0 8.4 4.9 8.4 6.2 0 .6.6 1.3 1.4 1.6.9.3 1.1 0 .6-.9-.5-.8.2-.5 1.4.6 2.1 1.8 2.2 2 .5 2.4-1.1.2-2.5.8-3.2 1.4-1.7 1.4.2 2.7 4.1 2.7 4.1 0 2.5 1.6-2.5 2.5-2.4.5-4.6.9-5 1-.5.1-1.1.3-1.5.4-.5.2.1.6 1.2 1.1 2.5 1.1-5.6.9-8.6-.2z"/></g><g fill="#0d4a4a"><path d="M160.4 376.6c-.3-1.3-.4-3-.3-3.7.2-.8-.7-3.6-1.9-6.3-1.2-2.7-2.2-5.7-2.2-6.7 0-2.7-2-3.4-2.1-.7 0 1.8-.4 1.5-1.8-1.7-1.1-2.3-3-4.6-4.5-5.3-1.4-.6-2.6-1.8-2.6-2.7 0-1-1-1.5-3.4-1.5-3.7 0-4.9-1-5.4-5-.2-1.3-.8-3-1.4-3.7-1.8-2.3-.4-2.3 3.5-.3 2 1.1 4.3 2 5.1 2 .8 0 1.6.5 1.8 1.1.2.7 4.7 1.3 11.6 1.7 10.2.4 11.2.7 11.2 2.4 0 2.4 2.8 7.8 4 7.8.6 0 1 3 1 6.8.1 3.9.7 7.7 1.5 9.2.8 1.4 1.4 3.9 1.5 5.7v3.2h-6.4c-5.5-.1-6.5-.4-7.5-2.2l-1.1-2.2.6 2.3c.3 1.2.3 2.2 0 2.2s-.8-1.1-1.2-2.4zM402.4 154.3c-.9-1.5-2.3-1.7-6.9-1.5-3.5.2-6.1-.1-6.5-.8-.4-.6-2.4-1.3-4.6-1.7-2.1-.3-4.2-1-4.5-1.6-.4-.6-6.3-.7-15.8-.2-11.9.6-15.1 1-15.1 2.1 0 .8-1 1.4-2.5 1.4-1.4 0-2.5-.3-2.5-.7 0-1.7 10.8-22.1 12.6-23.8.5-.5 2.2-2.6 3.6-4.5 2.5-3.4 10-8 13.1-8 .9 0 1.9-.4 2.2-1 1.5-2.4 14.3-.2 20.8 3.6 4.4 2.6 10.7 9.8 11.3 13 .3 1.9 1 3.4 1.5 3.4 1.2 0 1.2 9.7 0 10.4-.5.4-1.2 2.4-1.6 4.6-.4 2.2-1.1 4-1.6 4s-.9.7-.9 1.5c0 2-1.3 1.9-2.6-.2zM280.6 97.5c-.3-.8-1.5-1.5-2.6-1.5s-2-.3-2-.7c0-.5-2-1.6-4.5-2.6-4.3-1.8-6.5-4.3-2.7-3.1 1.4.5 1.4.3-.2-1-2.4-1.9-4-2.1-3.1-.3.4.6.1.5-.7-.4-.7-.8-3.1-2.3-5.3-3.2l-4-1.8 6 .7c3.3.3 6.2 1 6.3 1.5.2.5 1.3.9 2.4.9 2.4 0 13.7 5.3 18.8 8.9 1.9 1.3 2.6 2.1 1.5 1.6-4.5-1.7-5.2-1.6-5.8.4-.6 2.4-3.2 2.8-4.1.6zM249.7 82c-6.2-1.1-5.6-2.1.9-1.4 3.2.4 6 .8 6.2.9.9.7-3.8 1-7.1.5z"/></g><g fill="#2e363c"><path d="M271 428.1c0-1.4 1-2 4.6-2.5 7.1-.9 9.4-.8 9.4.8 0 .9-1.9 1.8-5 2.5-7.3 1.6-9 1.4-9-.8zM288 425.1c0-2 2.5-3.1 7.3-3.1 4.1 0 3.3 2.5-1.2 3.8-5.2 1.6-6.1 1.5-6.1-.7zM301 421.4c0-2.1.5-2.4 3.5-2.4 2.2 0 3.5.5 3.5 1.3s-1.6 1.8-3.5 2.4c-3.3 1.1-3.5 1-3.5-1.3zM312 417c0-1.6.7-2 3.5-2 3.9 0 4.3.6 1.8 2.6-2.7 2-5.3 1.7-5.3-.6zM330.2 408.2c.2-1.7 1-2.8 2.1-3 1.1-.2 2.7-1.2 3.8-2.3 1.2-1.2 3.3-1.9 5.7-1.9l3.7.1-3.5 2.9c-1.9 1.7-3.9 3-4.6 3-.6 0-1.7.6-2.3 1.4-.6.8-2.1 1.6-3.2 1.9-1.7.5-2 .1-1.7-2.1zM288 403.6c0-1.5 1.8-2 10.3-3.2 4.2-.6 4.7-.4 4.7 1.4 0 1.5-.9 2.1-4.6 2.6-7.5 1-10.4.8-10.4-.8zM312 400c0-1.2 3.3-3 5.4-3 .9 0 1.6.9 1.6 2 0 1.6-.7 2-3.5 2-1.9 0-3.5-.4-3.5-1zM326 395.7c0-.8 1.7-1.9 3.8-2.6 2-.7 4.3-1.5 5-1.7.8-.4 1.2.3 1.2 1.9 0 1.7-.7 2.7-2.2 3.1-4 1-7.8.7-7.8-.7zM250 387.5c0-1.6.6-2.5 1.5-2.5.8 0 1.5-.4 1.5-.8 0-.5 1.6-1.7 3.7-2.8 2-1 4.7-2.9 6.1-4.1 1.4-1.3 3.1-2.3 3.8-2.3.8 0 1.4-.4 1.4-1 0-.5.8-1 1.8-1 .9 0 2.2-1 2.7-2.2.6-1.4 2.1-2.4 3.8-2.6 1.8-.2 2.7-.9 2.7-2.1 0-1.8 4.2-6.1 6-6.1.6 0 1-.7 1-1.5 0-1.1 1.1-1.5 3.7-1.5h3.6l-1.9 2.1c-7 8-37.2 30.9-40.6 30.9-.4 0-.8-1.1-.8-2.5zM342 389.1c0-.4 2.8-2.3 6.3-4.1 3.4-1.8 8.1-4.6 10.5-6.2l4.2-2.9v3.1c0 2-.5 3-1.5 3-.8 0-1.5.5-1.5 1 0 .6-1.1 1-2.5 1-1.6 0-2.5.6-2.5 1.5s-1.2 1.8-3 2.2c-1.6.3-3 .9-3 1.4 0 .5-1.6.9-3.5.9s-3.5-.4-3.5-.9zM366 380.6c0-3.3.2-3.6 3.1-3.6h3l-2.1 3c-3.1 4.4-4 4.5-4 .6zM367.3 373.2c1-1 3.7-3.3 6.2-5.1l4.5-3.2v3.1c0 2-.6 3.3-1.7 3.7-1 .4-2.2 1.2-2.6 2-.4.7-2.4 1.3-4.4 1.3-3.4 0-3.5-.1-2-1.8zM301 344.8c0-2.7.6-4.1 2-5 1.1-.7 2-1.7 2-2.1 0-1.6 2.9-3.7 4.9-3.7 1.7 0 2.1-.6 2.1-3.5 0-1.9.5-3.5 1-3.5.6 0 1-.7 1-1.5s.7-1.5 1.5-1.5 1.5-.9 1.5-2 .5-2 1-2c.6 0 1-.7 1-1.5s.5-1.5 1-1.5c.6 0 1-.7 1-1.5s.5-1.5 1-1.5c.6 0 1-.7 1-1.5 0-.9.9-1.5 2.5-1.5 1.4 0 2.5.4 2.5.8 0 .5-3.3 5.5-7.2 11.2-4 5.6-8.3 11.7-9.4 13.4-1.2 1.7-4 5.1-6.2 7.6l-4.1 4.5-.1-3.7zM390.8 342.8c-4.1-1.1-5.2-3.8-1.5-3.8 5.8 0 9.7 1.3 9.7 3.1 0 2.1-2.2 2.3-8.2.7zM401 342c0-1.7.7-2 4.5-2 4.9 0 6.4 2.3 2.3 3.4-4.5 1.2-6.8.7-6.8-1.4zM413 338.5c0-2.2.4-2.5 3.8-2.5l3.7.1-2.8 2.4c-3.6 3.2-4.7 3.1-4.7 0zM373.8 333.8l-6.3-5.3 3.3-.3c3.8-.4 6.2 1.2 6.2 3.9 0 1.4.7 1.9 2.5 1.9 2 0 2.5.5 2.5 2.5 0 1.4-.4 2.5-.9 2.5-.6 0-3.8-2.4-7.3-5.2zM421 332.8c0-3.4.3-3.8 2.5-3.8 3.1 0 3.2 1.1 0 4.7l-2.4 2.8-.1-3.7zM214 331.3c0-.8 11.2-8.3 12.3-8.3.4 0 .7 1.2.7 2.6 0 1.9-.7 2.8-3 3.7-1.6.6-3 1.5-3 1.9 0 .4-1.6.8-3.5.8s-3.5-.3-3.5-.7zM425 325.8c0-1.2.6-4.6 1.2-7.5 1-4.1 1.7-5.3 3.2-5.3 1.6 0 1.8.5 1.2 4.1-1.3 8.1-5.6 14.8-5.6 8.7zM360.6 320.9l-4.9-5.4 2.8-.3c4.1-.5 7.8 3.4 7.3 7.8l-.3 3.4-4.9-5.5zM231.1 319.3c.8-.9 3.6-3.3 6.4-5.4 2.7-2.1 6.5-5.1 8.3-6.5l3.2-2.7v3.2c0 2.9-.2 3.1-3.5 3.1-3.2 0-3.5.2-3.5 3 0 1.7-.5 3-1.3 3-.7 0-1.8.9-2.5 2-.8 1.4-2.3 2-4.8 2-3.3 0-3.5-.2-2.3-1.7zM349.1 308.4l-5.4-5.9 2.8-.3c4.1-.5 8.7 4.6 8.3 9l-.3 3.2-5.4-6zM426.4 307c-.4-3.2-1.1-5-2-5-.9 0-1.4-1.1-1.4-3 0-2.5-.4-3-2.3-3-3.1 0-6.7-3.9-6.7-7.3 0-2.2-.4-2.7-2.6-2.7-1.7 0-2.8-.6-3.1-1.9-.3-1.1-1.3-2.1-2.4-2.4-1-.3-1.9-1.2-1.9-2.1 0-.9-.6-1.6-1.3-1.6-1.7 0-5.7-4.6-5.7-6.5 0-.8-.7-1.5-1.6-1.5-1.8 0-17.4-15.2-17.4-16.9 0-.6-.7-1.1-1.5-1.1s-1.5-.7-1.5-1.5-.7-1.5-1.5-1.5-1.5-.7-1.5-1.5-.7-1.5-1.5-1.5c-1.1 0-1.5-1.1-1.5-3.7v-3.8l23.3 23.5c22.6 22.9 32.7 33.9 35.9 39 .8 1.4 1.9 4.4 2.3 6.8.6 3.8.5 4.2-1.4 4.2-1.7 0-2.1-.8-2.7-5zM331 301.5c0-3.1.3-3.5 2.5-3.5 3 0 3 .3.8 4.1-2.3 3.8-3.3 3.7-3.3-.6zM296.6 245.3c3.3-5.5 4.3-9.8 2.6-10.5-.5-.2-2.6-2.7-4.6-5.5l-3.8-5.3h3.1c2.1 0 3.1.5 3.1 1.5 0 .8.5 1.5 1 1.5.6 0 1 .9 1 2s.7 2 1.5 2 1.5.7 1.5 1.5.5 1.5 1 1.5c.6 0 1 1.3 1 2.9 0 4.1-2 9.1-3.6 9.1-.8 0-1.4 1-1.4 2.5 0 2.1-.5 2.5-2.9 2.5h-3l3.5-5.7zM364 230c0-2.8 7.7-20.1 9.3-20.8.4-.2.7-1 .7-1.8s.5-1.4 1-1.4c.6 0 1-.6 1-1.4 0-2.2 9-20.6 10.1-20.6.5 0 .9-1.1.9-2.5 0-2 .5-2.5 2.5-2.5 1.4 0 2.5.3 2.5.7 0 1.8-26.1 53.3-27 53.3-.6 0-1-1.3-1-3zM282.5 211.4c-3.3-4.6-10.1-14-15.1-20.7-11.6-15.6-12.2-16.7-10-18.3.9-.6 2.6-.9 3.8-.6 1.4.3 1.9.1 1.4-.6-.4-.7.4-1.4 2.1-1.8 1.5-.3 3.3-1.2 3.8-1.8.6-.7 3.1-2.2 5.7-3.5 2.6-1.2 4.6-2.8 4.5-3.4-.1-.8.8-1 2.8-.8 1.7.3 4.7.5 6.8.5 2 .1 3.7.4 3.7.9 0 .4 1.2.7 2.8.7 2 0 2.3.3 1.2 1-1 .6-.7.9 1.5.9 4.6 0 7 .7 6.7 2-.1.6.2 1.1.8 1.1.5 0 1-.5 1-1 0-2.1 3.9.8 15.7 12.1 3.6 3.3 6.9 5.9 7.4 5.7.6-.2 2-2.8 3.2-5.8 2.8-6.8 4.7-7.7 4.7-2.1 0 2.2-.4 4.2-.9 4.6-.5.3-1.3 1.9-1.6 3.6-.7 3.1-.7 3.2-5.9 2.5-2.8-.3-5.6-1.2-6.2-2.1-.6-.8-1.6-1.5-2.2-1.5-.6 0-1.2-.4-1.4-.9-.4-1.1-22.5-1.8-25.5-.7-1.3.4-2.3 1.4-2.3 2.2 0 .9-1.1 1.4-3 1.4-1.6 0-3 .5-3 1 0 1.5-12.7 1.3-13.3-.2-.4-1-.6-.9-.6.1-.1.7 1.5 3.5 3.4 6.1 1.9 2.6 3.5 5.7 3.5 6.9 0 1.3.6 2.1 1.6 2.1.9 0 1.8.9 2.1 2 .3 1.1.9 2 1.2 2 1.8 0 7.1 9 7.1 11.9 0 1.7-.3 3.1-.7 3.1-.5 0-3.5-3.9-6.8-8.6zM299.3 162.3c-1.4-.5-1.8-2.3-.5-2.3.5 0 1.7.7 2.8 1.5 1.4 1.1 1.5 1.4.4 1.4-.8 0-2.1-.3-2.7-.6z"/></g><g fill="#0b4247"><path d="M198.5 422.3c-1.1-.3-2.4-.9-3-1.3-.5-.4-2.5-1.1-4.3-1.5-3.1-.6-9.5-3.7-15.8-7.6-2.6-1.6-4.4-4.6-4.6-7.9 0-.3-.7-1.4-1.4-2.5-.8-1.1-1.4-2.7-1.4-3.7s-.5-1.8-1.1-1.8c-.5 0-.7-.5-.4-1.1.4-.5-.3-3.3-1.4-6-1.2-2.7-1.9-5.5-1.5-6.1.4-.6.3-.8-.4-.4-1 .6-1.8-1.1-2.8-5.9-.2-1.1.3-.6 1.1 1l1.5 3-.6-3.7c-.6-3.7.3-4.4 3.3-2.5.9.6.9-.1.2-2.5-1.2-4.3-1.2-4.5.6-2.2 1.3 1.8 1.4 1.8.8-.6-.5-2.4-.5-2.5 1-.5 1.5 1.9 1.6 1.8.7-1.5-.6-1.9-1-5.1-1-7 0-1.9-1.1-5.3-2.4-7.5-1.9-3.1-2.2-4.3-1.3-5.4.7-.8.8-1.2.2-.9-.5.3-2.3 0-3.9-.7-2.5-1.1-1.3-1.3 10.1-1.7 7.1-.2 13.6-.9 14.4-1.4.8-.5 3.2-1.4 5.4-2 2.2-.6 4.8-1.4 5.8-1.9 1.4-.6 1.7-.2 1.7 1.8 0 1.9-.7 2.6-2.7 3.1-6.5 1.6-8.2 2.9-8.5 6.6-.8 9.5 1 24.7 4 33.5 1.6 5 3.2 11.2 3.5 13.8.3 3.4 1.4 6 3.5 8.6 2.7 3.4 3 4.5 3 10.4 0 3.7-.1 6.6-.2 6.6 0-.1-1-.4-2.1-.6zm-28.8-63.5c-.2-1.3-.4-.5-.4 1.7-.1 2.2.1 3.2.4 2.3.2-1 .2-2.8 0-4zM378 367c.1-1.7 1.6-3.8 4.8-6.5l4.7-4-2.4 4c-1.3 2.2-3.5 5.1-4.7 6.5l-2.4 2.5V367zM394 168c0-.5-1.3-1-3-1-1.6 0-3-.4-3-1 0-.5-1.5-1-3.4-1s-3.6-.6-3.9-1.2c-.5-1.6-17-1.4-17.5.2-.6 1.7-15.1 1.3-16.8-.5-.9-.8-2.8-1.5-4.4-1.5-2.8 0-2.8-.1-1.7-3.5.6-1.9 1.4-3.5 1.8-3.5.4 0 1-1.2 1.4-2.7.3-1.5 1-3 1.3-3.3.4-.3 1.6-2.2 2.6-4.3 1.8-3.4 2.9-4 3.2-1.6.1.5.2 1.4.3 1.9 0 .6.8 1 1.7 1 .8 0 1.3-.4 1-.9-.3-.5 3-.8 7.4-.7 4.3.1 7.4-.2 6.7-.6-.7-.4 2.9-.7 7.8-.6 7.8.1 8.3.2 4 .8-4.9.7-4.9.7 2.5 1 5.8.2 6.7.4 4 .9-3 .6-2.2.8 5.4 1.9 6.2.9 9.2 1 9.9.3 1.6-1.6 2.7-1.3 2 .6-.4 1.1-.3 1.4.5.9.7-.4 1.2-.2 1.2.6 0 .9.3.9 1-.2.8-1.3 1-1.3 1 .2 0 .9-.4 1.9-.9 2.2-.5.3-1.2 1.8-1.6 3.3-.3 1.5-1 3-1.3 3.3-.4.3-1.7 2.6-2.9 5.3-1.6 3.3-2.9 4.7-4.3 4.7-1.1 0-2-.4-2-1zM252.3 81.3c.9-.2 2.5-.2 3.5 0 .9.3.1.5-1.8.5-1.9 0-2.7-.2-1.7-.5z"/></g><g fill="#272e39"><path d="M276 427c0-1.6.7-2 3.5-2 4 0 4.9 2.4 1.3 3.4-3.8 1-4.8.7-4.8-1.4zM344 388.2c0-.7 1.7-1.8 6.3-4 .4-.2.7.8.7 2.2 0 2.3-.4 2.6-3.5 2.6-1.9 0-3.5-.4-3.5-.8zM269 375.1c0-2.8.3-3.1 3-3.1 2.5 0 3-.4 3-2.3 0-2.9 1.8-4.7 4.7-4.7 1.4 0 2.3-.6 2.3-1.5 0-2.6 12.1-14.5 14.6-14.5 1.8 0 2.3-.6 2.6-3.2.2-2.5.8-3.4 2.6-3.6 1.4-.2 2.2-1 2.2-2.3 0-2.6 2.3-4.9 4.9-4.9 1.7 0 2.1-.6 2.1-3.5 0-3.1.3-3.5 2.5-3.5s2.5-.4 2.5-3.5c0-1.9.5-3.5 1-3.5.6 0 1-.7 1-1.5s.9-1.5 2-1.5c1.6 0 2-.7 2-3 0-1.6.5-3 1-3 .6 0 1-.7 1-1.5s.4-1.5.9-1.5 1.2-1.1 1.5-2.5c.4-1.4 1.1-2.5 1.6-2.5.6 0 1-.7 1-1.5s.9-1.5 2-1.5c1.6 0 2-.7 2-3.5 0-3.3.2-3.5 3.5-3.5 1.9 0 3.5.5 3.5 1 0 .6 1 1 2.3 1 3.3 0 4.7 1.8 4.7 6l-.1 3.5-4.4-4.9-4.3-4.8-2.5 3.8c-10.9 17.1-14.7 23-20 30.4-3.4 4.7-6.4 8.7-6.7 9-.3.3-3.7 4.3-7.7 9-7.4 8.9-20.1 20.9-30.5 28.9-1.6 1.2-1.8 1-1.8-1.8zM367 327l-6.5-6.5 2.9-.3c2.3-.3 3.7.5 6.8 3.6 3.1 3.1 3.9 4.5 3.6 6.8l-.3 2.9-6.5-6.5zM216 330.2c0-.4 1.9-1.9 4.3-3.4 2.3-1.4 6.8-4.5 10-6.8l5.7-4.2v3c0 2.3-.9 3.5-3.8 5.6-2.1 1.4-5 2.6-6.5 2.6-2 0-2.7.5-2.7 2 0 1.6-.7 2-3.5 2-1.9 0-3.5-.3-3.5-.8zM352.7 311.9c-4.7-5.3-4.8-5.4-2.3-5.7 3.8-.5 7.8 3.9 7.4 8l-.3 3.2-4.8-5.5zM427 309.5c0-4 2.4-4.9 3.4-1.2s.7 4.7-1.4 4.7c-1.6 0-2-.7-2-3.5zM241.5 311c.3-.5 1.9-1.9 3.5-3l3-2.1v3c0 2.9-.3 3.1-3.6 3.1-2 0-3.3-.4-2.9-1zM259.2 294.2c10.5-10.9 20.9-23.9 30.6-38.4 6.3-9.3 7.2-10 7.2-5.4 0 2.9-.4 3.6-2 3.6s-2 .7-2 3c0 1.7-.4 3-1 3-.5 0-1 .7-1 1.5 0 .9-.9 1.5-2.5 1.5-2.2 0-2.5.4-2.5 3.5 0 2.4-.5 3.5-1.5 3.5-.8 0-1.5.9-1.5 2s-.7 2-1.5 2-1.5.9-1.5 2-.4 2-.9 2-1.1.9-1.4 2c-.3 1.2-1.4 2-2.6 2-1.5 0-2.1.6-2.1 2.3 0 2.8-1.7 4.7-4.2 4.7-1.1 0-1.8.7-1.8 2 0 2.4-5.7 9-7.7 9-.7 0-1.3.5-1.3 1.1 0 2-2.9 3.9-6.1 3.9-3.1 0-3-.2 7.3-10.8zM413 287.4c0-3.9.9-3.8 4 .6l2.1 3h-3c-2.9 0-3.1-.3-3.1-3.6zM406 281.5c0-.8-.7-1.5-1.5-1.5-1 0-1.5-1-1.5-3.1 0-2.8.2-3 1.7-1.8 2.2 1.8 4.4 4 6.2 6.2 1.2 1.5 1 1.7-1.8 1.7-2.1 0-3.1-.5-3.1-1.5zM394 269.5c0-.8-.7-1.5-1.5-1.5s-1.5-.7-1.5-1.5-.7-1.5-1.5-1.5-1.5-.7-1.5-1.5-.7-1.5-1.5-1.5-1.5-.7-1.5-1.5-.7-1.5-1.5-1.5-1.5-.7-1.5-1.5-.5-1.5-1.1-1.5c-1.9 0-9.9-8.8-9.9-10.9 0-1.6-.6-2.1-2.5-2.1-2 0-2.5-.5-2.5-2.5 0-1.8-.5-2.5-2-2.5-1.7 0-2-.7-2-4 0-3.9 1.7-9 3-9 .4 0 1-1.3 1.4-3 .3-1.8 1.2-3 2.1-3 1 0 1.5-1 1.5-3s.5-3 1.5-3 1.5-1 1.5-3c0-1.6.5-3 1-3 .6 0 1-.9 1-1.9 0-1.1.6-2.6 1.3-3.3.8-.7 1.7-2.6 2.1-4.1.3-1.5 1.3-2.7 2.1-2.7 1 0 1.5-1 1.5-3 0-2.5.4-3 2.5-3 1.4 0 2.5.2 2.5.4s-2.2 4.9-5 10.5c-2.7 5.6-5 10.5-5 11s-.3 1.1-.7 1.3c-1.2.5-10.3 19.7-10.3 21.6 0 1 7.2 9.1 16 18.1 20.2 20.7 19 19.1 15.1 19.1-2.1 0-3.1-.5-3.1-1.5zM300 239.6c.7-2 .1-3.4-3.9-8.7-2.6-3.5-5.8-8.2-7.1-10.4-1.3-2.2-4.7-7.4-7.7-11.5-2.9-4.1-7.3-10.2-9.7-13.5-2.8-4-4.2-7-4-8.5.1-1.4.3-3.1.3-3.7.1-.8 1.6-1.3 4.2-1.3 2.4 0 3.8.4 3.4 1-.4.6.9 1 3.2.9 3.4-.1 3.5-.2 1.3-.9l-2.5-.8 2.7-.1c4.1-.2 8.2-2.2 6.6-3.4-.9-.6-.8-.7.5-.3 1 .3 2.6.2 3.5-.3 2.4-1.2 12.5-2.4 11.9-1.4-.7 1.1 10.8 1.1 11.9.1 1.6-1.6 4.1-.7 8.4 3.2 4.3 3.7 8 5.2 8 3s3.6-9 4.7-9c.7 0 1.3.6 1.3 1.3 0 .7 1.6 2 3.5 2.7 3.4 1.3 3.6 1.6 3.3 5.5l-.3 4h-5c-2.7 0-5.2.3-5.5.6-.7.8-17.9 2.9-23.9 2.9-5 0-8.1 1.5-8.1 3.8 0 1.3-6.3 4.2-10.6 4.9-1.9.3-3.4 1.1-3.4 1.9 0 .8-.7 1.4-1.4 1.4-1.2 0-1.3.6-.5 3 .6 1.7 1.5 3 2 3s.9 1.5.9 3.4c0 2.7.4 3.5 2.1 3.8 1.2.2 3 2 4.2 4.3 1.2 2.2 2.5 4.2 3 4.3.4.2.7 1 .7 1.8s.5 1.4 1 1.4c.6 0 1 1.1 1 2.5 0 1.8.5 2.5 2 2.5 1.7 0 2 .7 2 4.5 0 4.1-.2 4.5-2.5 4.5-2.2 0-2.3-.3-1.5-2.4z"/></g><g fill="#19333f"><path d="M237.5 430.4c-3.7-.5-16-2.3-19.7-3-3.4-.7-3.8-3.4-.5-3.4 1.6.1 26.1 2.6 28.5 3 .1 0 .2.9.2 2 0 2.1-.9 2.2-8.5 1.4zM259 429c0-1.7.7-2 4-2 4.5 0 5.7 2.3 1.8 3.4-4.2 1.1-5.8.7-5.8-1.4zM269 428c0-1.7.7-2 4-2 4.5 0 5.7 2.3 1.8 3.4-4.2 1.1-5.8.7-5.8-1.4zM283 426.2c0-1.4 1.8-2.3 8.8-4 4.8-1.2 9.4-2.2 10.3-2.2.9 0 1.9-.6 2.2-1.4.3-.7 1.7-1.6 3.1-2 1.3-.3 5.4-2 8.9-3.6 3.6-1.7 7.2-3 8-3 .8 0 1.7-.7 2.1-1.5.6-1.7 7.6-2.2 7.6-.5 0 2.9-24.3 13.5-41.4 18.1-8.9 2.3-9.6 2.3-9.6.1zM266 404c0-1.9.7-2 12-2s12 .1 12 2-.7 2-12 2-12-.1-12-2zM253.3 404.4c-.6-.3-4.7-1.1-9-1.7l-7.8-1.2-.3-4.6c-.3-4.5-.2-4.7 3.5-6.3 7.8-3.5 10.8-5.1 11.1-5.8.2-.5 1.9-.8 3.8-.8s3.4.3 3.4.8c0 1-8.5 6.3-13.7 8.6-2.4 1.1-4.3 2.5-4.3 3.3 0 .7.1 1.3.3 1.3.1 0 5.4.9 11.7 2 6.3 1.1 11.6 2 11.8 2 .1 0 .2.7.2 1.5 0 1.1-1.2 1.5-4.7 1.4-2.7 0-5.3-.3-6-.5zM291 403.6c0-1.4 1.1-1.8 9.3-3.2 3.2-.5 3.7-.4 3.7 1.4 0 1.4-.9 2.1-3.1 2.6-5.5 1.1-9.9.7-9.9-.8zM339 402.5c0-1.5.7-2.8 1.8-3.2.9-.4 2.2-1.2 2.7-1.9 1.5-1.8 12.4-10.4 13.2-10.4.5 0 1.6-1.2 2.6-2.5 1.7-2.4 1.7-2.5-.3-2.5-3.5 0-2.2-1.6 5.4-6.9 4.1-2.8 9.8-7.2 12.7-9.6 2.9-2.5 5.8-4.5 6.3-4.5.6 0 .4.6-.4 1.3-.8.7-1.6 1.8-1.8 2.6-.5 2.3-9.2 13.2-16.2 20.1-6.4 6.4-23.5 20-25.2 20-.4 0-.8-1.1-.8-2.5zM305 401.6c0-.8 2.6-1.9 7.3-3 8.8-2.1 17.7-5 23.7-7.8 8.7-4 9-4 9-1.2 0 1.4-.7 2.7-1.7 3.1-1 .3-3.7 1.4-6 2.4-2.3 1.1-4.8 1.9-5.5 1.9-.8 0-1.8.4-2.3.9-1.5 1.3-16.9 5.1-21 5.1-2.3 0-3.5-.5-3.5-1.4zM394.8 343.4c-1-.3-1.8-1.1-1.8-1.8 0-.9 2.6-1.5 8.7-1.9 5-.3 8.9-1 9.1-1.6.2-.6 1.2-1.1 2.3-1.1 1 0 1.9-.6 1.9-1.2 0-.7 1.5-2.4 3.4-3.7 3.1-2.3 7.6-11 7.6-14.6 0-.8.9-1.5 2-1.5 2.6 0 2.6 2.4-.1 9.6-2.5 6.5-7.6 12.1-14 15.2-4.3 2.1-15.6 3.6-19.1 2.6zM381.5 339.1c-2.8-1.6-5.7-3.6-6.4-4.5-1.2-1.4-.9-1.6 2.3-1.6 2.5 0 3.6.4 3.6 1.5 0 .8.9 1.5 1.9 1.5 3.5 0 5.1 1.2 5.1 3.6 0 3-.4 3-6.5-.5zM206 335.7c0-.7 2.9-2.7 6.5-4.5l6.5-3.2v3c0 2.3-.5 3.1-2.5 3.6-1.4.3-2.5 1-2.5 1.5s-1.8.9-4 .9c-2.6 0-4-.5-4-1.3zM425 303.5c0-1.4-.4-2.5-1-2.5-2.4 0-5-3.6-5-7l.1-3.5 4.3 4.7c2.4 2.6 4.9 6.1 5.4 7.8 1 2.8.9 3-1.4 3-1.9 0-2.4-.5-2.4-2.5zM385.6 186.2c-.9-2.8-6.4-4.2-16.9-4.2-5.3 0-9.7-.4-9.7-.8 0-.5-5.6-.7-12.5-.6l-12.5.3v-3.7c.1-2 .9-5.5 2-7.7s2-4.7 2-5.5c.2-4.1 6-7 6-3 0 1.6.7 2 3.8 2 2 0 5.3.5 7.2 1.1 1.9.6 9.3 1.5 16.5 1.9 7.4.5 13.1 1.3 13.3 1.9.2.6.9 1.1 1.7 1.1.7 0 1.8.7 2.5 1.5 1.6 1.9 3 1.9 3 0 0-1 1-1.5 3.1-1.5 2.4 0 2.9.3 2.1 1.3-.5.6-2.9 4.9-5.2 9.5-4.2 8.4-5.4 9.6-6.4 6.4z"/></g><g fill="#063b45"><path d="M223.8 428.2c-3.4-.7-2-3.2 1.7-3.2 2.3 0 3.5.5 3.5 1.4 0 1.5-2.5 2.4-5.2 1.8zM211 426c-.8-.5-2.3-1-3.3-1s-4.2-1.1-7-2.4c-2.9-1.3-6.7-2.7-8.5-3.1-1.8-.4-3-1.1-2.6-1.6.3-.5-.8-.9-2.3-.9-3.4 0-8.1-2.9-6.4-4 1.5-.9 7.2 0 6.6 1-.3.5-.1 1.1.4 1.4 2.5 1.6 2-2-.8-5.4-2.3-2.9-2.7-3.9-1.6-4.3.7-.3 1.9.2 2.7 1.1 1.1 1.3 1.1 1.4-.1.7-.9-.5-1.2-.4-.8.2.3.5 1.6.9 2.9.8 1.3-.2 3.6.9 5.2 2.4 2.9 2.6 2.9 2.5-.3-1.5-2.5-3.2-3.5-5.7-4.1-10.5-.4-3.5-1.5-8.1-2.4-10.2-2.7-6.1-4.7-16.7-4.7-23.8 0-3.7-.4-8.2-.9-10-.6-2.1-.6-3.7 0-4.4.7-.8.4-2-1.1-3.9-1.9-2.4-1.9-2.6-.2-2.6 1 0 3.1-.7 4.7-1.5 1.5-.8 3.3-1.5 3.8-1.5.6 0 2.4-.6 4.1-1.4 12.4-5.5 14.6-6.3 15.2-5.8.3.4 1 0 1.5-.8.7-1.1 1-.8 1 1.3 0 2.3-.5 2.9-3 3.3-1.6.4-3 1-3 1.5s-.5.9-1.1.9c-.6 0-2.6.7-4.5 1.6l-3.4 1.6.4 10.2c.5 11.3 1.6 19.8 2.6 20.6 1 .8 3.8 8.2 7.1 18.9 5.1 16.8 5.8 19.5 6.5 24.9.6 4.9.7 5.2 3.5 5.2 2.2 0 2.9.5 2.9 2 0 1.6-.7 2-3.7 2-2.1 0-4.5-.5-5.3-1zM389.3 175.4c-1.8-.8-3.3-1.9-3.3-2.4 0-.6-.9-1-1.9-1-1.1 0-2.1-.5-2.3-1.1-.2-.7-4.2-1.2-10.8-1.4-5.8-.1-12.5-.8-15-1.5s-7-1.5-10-1.9c-4.5-.5-5.4-.9-5.2-2.3.2-1.3-.2-1.6-1.3-1.2-1.3.5-1.1-.1.6-3 1.9-3.3 3.9-4.7 3.9-2.8 0 2 5.7 3.2 14.8 3 7.7-.1 8.8-.2 5.2-.8l-4.5-.7 5.5-.2c8-.2 22.9 2 20.4 3.1-1.1.5.9.7 5.4.4 4-.2 7.5.1 7.8.5.3.5 1 .7 1.5.4 1.4-1 .9.7-1.6 5-1.3 2.2-2.8 5-3.4 6.2-1.4 3-2.2 3.2-5.8 1.7z"/></g><g fill="#1f2738"><path d="M278 367.3c0-3.6 3.1-6.3 7.2-6.3h3.1l-2.4 2.6c-1.3 1.4-3.6 3.5-5.1 4.6l-2.8 1.9v-2.8zM295 350.9c0-4.4 2.7-7.2 6.6-6.7l2.7.3-4.6 5-4.6 5-.1-3.6zM307 336.6c0-2.3.5-3.9 1.5-4.2.8-.4 1.5-1.2 1.5-2s.7-1.4 1.5-1.4 1.5-.9 1.5-2 .5-2 1-2c.6 0 1-.7 1-1.5s.5-1.5 1-1.5c.6 0 1-.7 1-1.5s.3-1.5.8-1.5c.4 0 1.3-1.3 2-3 .8-1.8 2.1-3 3.3-3 1.4 0 1.9-.7 1.9-3 0-2 .5-3 1.5-3 .9 0 1.5-.9 1.5-2.5 0-1.4.5-2.5 1-2.5.6 0 1-.7 1-1.5s.9-2.4 2-3.5 2-2.5 2-3.1c0-.6 1.9-.9 4.8-.7 4.5.3 4.7.4 5 3.5.3 2.6.8 3.2 3 3.5 2.4.3 2.7.8 3 4.3l.2 4-5.7-6.2c-5.1-5.3-8.3-7-8.3-4.3 0 2.1-24.3 38.3-27.4 40.9-1.4 1.2-1.6.9-1.6-2.3zM372 331.5l-3.4-3.5h3.7c3.6 0 3.7.1 3.7 3.5 0 1.9-.1 3.5-.3 3.5-.2 0-1.8-1.6-3.7-3.5zM358.4 317.8c-7.4-7.9-7.6-8.3-5.2-8.6 2.8-.3 7.8 3.2 7.8 5.5 0 .7.7 1.3 1.5 1.3s1.5.7 1.5 1.5.7 1.5 1.5 1.5c1 0 1.5 1.1 1.5 3.5 0 1.9-.2 3.5-.4 3.5s-3.9-3.7-8.2-8.2zM232 319.6c0-.2 4.2-4 9.3-8.3 21.6-18.6 33.8-32.8 51.9-60.3 8.2-12.4 8.6-13.5 6.1-16.3-2.2-2.4-14.3-20.4-14.3-21.3 0-.3-.9-1.4-2-2.6-1-1.2-1.7-2.5-1.4-2.9.2-.4-.4-1.3-1.3-1.9-1.2-.8-1.4-1.3-.6-1.6.7-.3.9-1.2.6-2-.4-1 .2-1.7 1.6-2.1 1.1-.3 2.1-1.1 2.1-1.8s1.6-1.5 3.4-1.8c5.3-.9 11-3.8 9.4-4.8-1-.7-.7-1.1 1-1.5 1.8-.5 2-.9 1-1.5-.9-.6-.2-.9 2-.9 1.8 0 4.7-.7 6.4-1.6 2.9-1.5 3.1-1.5 2.4.2-.6 1.5-.5 1.7.5.7 1.5-1.5 4.3-1.7 3.4-.3-.3.6-.1 1 .4 1 .6 0 1.1-.7 1.1-1.5s.5-1.5 1-1.5c.6 0 1 .5 1 1 0 .6 1.1 1 2.5 1 2.3 0 3-1.2 2.6-4.2-.1-1 2.3-.4 4.8 1.4 2.3 1.6 2.5 1.6 4 0 1.4-1.6 1.9-1.6 4.1-.5 3.3 1.7 4.9 1.6 5.6-.2.5-1.2 2.6-1.5 10-1.5 5.6 0 9.4.4 9.4 1s1.7 1 3.8 1c5 .1 11.6 1.7 12 2.9.2.6 1.2 1.1 2.3 1.1 1 0 1.9.5 1.9 1 0 .6 1.1 1 2.5 1 1.7 0 2.5.6 2.5 1.6 0 2.7-12.2 26.5-13.4 26.1-.6-.2-1.2-2-1.4-4-.2-2.8.1-3.7 1.2-3.7 2.4 0 1.9-3.7-.7-5.5-1.8-1.1-3.1-1.2-5.7-.5-4.5 1.3-9 1.3-9 0 0-.7-2-.9-6-.4-4.2.5-6 .3-6-.5 0-.7-3-1.1-9.2-1.1-7.4 0-9.9.4-12.4 1.9-1.8 1.1-7.8 2.7-13.5 3.6-10.1 1.6-11.6 2.1-15.2 5.7-1.7 1.8-1.7 2 1 7.1 1.5 2.8 3.1 5.4 3.5 5.5.5.2.8 1 .8 1.7s.7 1.5 1.5 1.9c.9.3 1.5 1.8 1.5 3.6 0 1.6.5 3 1 3 .6 0 1 1.6 1 3.5s-.4 3.5-1 3.5c-.5 0-1 .6-1 1.4 0 1.7-3.9 8.6-4.9 8.6-.3 0-1.2 1.4-1.9 3-.8 1.8-2.1 3-3.3 3-1.4 0-1.9.7-1.9 2.9 0 1.6-1 3.9-2.4 5.3-1.2 1.4-2.6 3.3-2.9 4.2-.4.9-1.1 1.6-1.7 1.6-.5 0-1 .7-1 1.5 0 .9-.7 1.8-1.5 2.1-.8.4-1.5 1.2-1.5 2s-.9 1.4-2 1.4c-1.5 0-2 .7-2 2.5 0 2-.5 2.5-2.5 2.5-2.1 0-2.5.5-2.5 2.8 0 3.4-3.9 7.2-7.5 7.2-2 0-2.5.5-2.5 2.5 0 3.1-8.5 12.5-11.2 12.5-1 0-1.8.6-1.8 1.2 0 .7-1.9 2.9-4.2 5-3.1 2.7-5.2 3.8-7.5 3.8-1.8 0-3.3-.2-3.3-.4zM399 274.5c0-2-.5-2.5-2.5-2.5-2.2 0-2.5-.4-2.5-3.7v-3.7l6 5.9c3.3 3.3 6 6.1 6 6.2 0 .2-1.6.3-3.5.3-3.1 0-3.5-.3-3.5-2.5zM386 260.3v-3.7l3.5 3.4c1.9 1.9 3.5 3.5 3.5 3.7 0 .2-1.6.3-3.5.3-3.4 0-3.5-.1-3.5-3.7zM368.8 245.1c-1-1-1.8-2.2-1.8-2.8 0-.6-.9-1.3-2-1.6-1.5-.4-2-1.4-2-4.1 0-2 .5-3.6 1-3.6.6 0 1 .3 1 .8 0 .4 1.9 2.8 4.3 5.2 7.3 7.8 7.4 8 4.1 7.9-1.6 0-3.7-.8-4.6-1.8z"/><path d="M365 226.5c0-3.1.3-3.5 2.6-3.5 1.4 0 2.4.3 2.2.8-3.5 7.3-4.8 8-4.8 2.7z"/></g><g fill="#073341"><path d="M224.5 428c-11.8-1.7-21.5-4.5-21.5-6.1 0-.4 1.9-.5 4.2-.2 3 .5 3.9.3 3.4-.6-.4-.6-1.1-.9-1.6-.6-1.2.7-5-1.2-5-2.5 0-.6 1.1-1 2.4-1 3.2 0 3.7-2.4 1.5-7.7-1-2.2-1.6-4.3-1.3-4.5.2-.3-1.4-5.8-3.7-12.4-2.2-6.5-4.3-12.7-4.6-13.6-.3-1-.9-1.6-1.3-1.3-.5.3-1.3-.9-1.9-2.5-.7-2-.7-3 0-3 .6 0 .8-.8.4-1.9-1.4-4.4-3.2-16-2.4-15.5.5.3.9 0 .9-.6 0-2.2-2.3-10.5-3.3-11.7-.6-.9-.6-1.3.2-1.3 1.1 0 4.5-1.4 13.8-5.6 1.7-.8 3.8-1.4 4.7-1.4 2.5 0 1.9 3.5-.9 5-2.4 1.3-3.5 5.3-1.7 6.4 1 .6 5.9 15.9 6.7 21 .4 2.6 1.2 4 2.6 4.3 1.2.3 2.3 2 3 4.6.6 2.2 2 5.3 3.2 6.8 2.7 3.7 5.8 20.9 3.8 20.9s-1.2 7.4 1.4 12.2c1.4 2.6 2.5 5.4 2.5 6.3 0 .8.7 1.5 1.5 1.5 1 0 1.5 1 1.5 3 0 3.3.2 3.2-8.5 2zM389.3 175.4c-1.7-.7-3.4-1.8-3.8-2.4-.3-.5-1.5-1-2.6-1s-1.8-.4-1.5-.9c.7-1.1-6.4-2-13.1-1.6-2.9.2-8.2-.5-12-1.6-6.7-1.8-6.7-1.8-1.8-1.4 10.8 1.1 15.5 1.2 15.1.6-.7-1.1 11.8-1 13.2.2.8.6 3.2 1.3 5.5 1.6 2.5.4 4.2 1.1 4.2 1.9 0 .7.7 1.7 1.5 2.2 1.1.7 1.1 1 .2 1-.7 0-1.1.4-.7.9 1 1.7-.9 1.9-4.2.5zM343.5 165c-.8-1.3 1.5-1.3 3.5 0 1.2.8 1.1 1-.7 1-1.2 0-2.5-.4-2.8-1z"/></g><g fill="#162938"><path d="M246 429.3c0-1.9.9-2.1 12.8-2.7 16.5-.9 26.6-2.6 39.2-6.5 4.9-1.5 9-1.4 9 .3 0 .7-.8 1.6-1.7 1.9-19.4 5.5-29.8 7.3-47.5 8.3-11.4.7-11.8.6-11.8-1.3zM317 414.6c0-2.3.4-2.6 3.4-2.6 2.5 0 3.5-.5 3.9-2 .3-1.2 1.4-2 2.6-2 1.2 0 2.1-.4 2.1-.9s2.1-2.2 4.8-3.7c2.6-1.5 5.3-3.4 6-4.1.7-.7 2.7-1.3 4.3-1.3 2.4 0 2.9-.4 2.9-2.5 0-1.6.6-2.5 1.5-2.5.8 0 1.5-.4 1.5-1 0-.5 1.4-1 3-1 2.3 0 3-.4 3-2 0-2.6 0-2.6-6.7 1-3.1 1.7-7.4 3.5-9.7 4.2-2.3.7-4.4 1.6-4.7 2-.7 1.1-10.9 2.3-10.9 1.3 0-1.1 3.2-3.4 4.8-3.5 2.5 0 18.5-7.7 26.4-12.7 2.1-1.3 4-2.3 4.3-2.3.7 0 6.4-4 8.4-5.8.7-.7 2.5-2.1 3.8-2.9 2.1-1.4 2.6-1.4 3.3-.2.6.8.4 1.6-.3 2.1-.7.4-.8.8-.3.8s.1.9-.9 2-2.9 2-4.2 2c-2.4 0-3.2 1.5-1 2.3 2.7 1-24.4 24.1-34.8 29.7-2.2 1.1-4.7 2.5-5.5 3-.8.5-3.3 1.7-5.5 2.6-2.2 1-4.3 1.9-4.7 2.1-.5.2-.8-.7-.8-2.1zM265 404c0-2.1 1-2.4 4.8-1.4 3.6 1 2.7 3.4-1.3 3.4-2.8 0-3.5-.4-3.5-2zM284 404.6c0-.7 1-1.6 2.3-2 4.1-1.1 5.7-.7 5.7 1.4 0 1.7-.7 2-4 2-2.7 0-4-.4-4-1.4zM294 403.6c0-.8 1.9-1.8 4.4-2.5 6.2-1.5 6.6-1.4 6.6 1.4 0 2.4-.3 2.5-5.5 2.5-4 0-5.5-.4-5.5-1.4zM237 394.5c0-3.3.2-3.5 3.5-3.5 2.3 0 3.5-.5 3.5-1.4 0-1.1 15.9-11.6 17.6-11.6.2 0 1.3-.9 2.4-2 1.1-1.1 3.1-2 4.4-2 1.8 0 2.5-.6 2.8-2.2.2-1.9 1-2.4 4.2-2.6 3.7-.3 3.9-.2 2.5 1.4-2.9 3.6-29.2 21.4-31.5 21.4-1.9 0-7.4 3.5-7.4 4.6 0 .8-.4 1.4-1 1.4-.5 0-1-1.6-1-3.5zM389 342.1c-5.1-1.4-9.9-4.1-14.1-8.1l-4.3-4h3.5c2.6 0 4.5.9 7.3 3.5 2.1 1.9 4.7 3.5 5.7 3.5s2.1.5 2.4 1c.3.6 1.9 1 3.6 1 2.2 0 2.9.5 2.9 2 0 2.1-2 2.4-7 1.1zM405 341.1c0-1.4.6-2.1 1.9-2.1 1.1 0 2.3-.4 2.6-1 .3-.5 1.4-1 2.3-1 1 0 2.4-.9 3.2-2 .8-1.1 2.2-2 3.2-2 1.1 0 1.8-.7 1.8-2 0-1.6.7-2 3-2 2.6 0 2.9.3 2.1 1.8-2.4 4.4-11.2 10.8-16.5 11.7-3.2.7-3.6.5-3.6-1.4zM214.6 331.2c2.3-2.1 11.8-8.2 12.7-8.2.4 0 .7 1.1.7 2.5 0 1.6-.6 2.5-1.5 2.5-.8 0-1.5.4-1.5 1 0 1.5-5.6 4-9.1 4-3.2 0-3.2 0-1.3-1.8zM425 322.5c0-1.9.5-3.5 1.1-3.5.8 0 1-2.1.5-7-.6-5.6-1.2-7.5-3.2-9.5-1.3-1.3-2.4-3.3-2.4-4.5 0-1.3-.7-2-2-2-1.1 0-2-.7-2-1.5s-.7-1.5-1.5-1.5-1.5-.4-1.5-.9-2.2-3.1-5-5.8c-2.7-2.6-5-5.4-5-6 0-.7-.6-1.3-1.2-1.3-1.4 0-9.8-8.3-9.8-9.7 0-.4-1-1.3-2.2-1.8-1.7-.8-2.4-2-2.6-5l-.3-4 14.3 14.5c16.7 16.8 24.7 25.9 26.3 29.7 2.4 5.8 2.7 10.4.9 16.9-1.9 7.1-4.4 8.8-4.4 2.9zM364 227.6c0-2.5.4-3.6 1.5-3.6 1 0 1.5-1 1.5-2.9 0-3 2.9-9.1 4.3-9.1.4 0 .7-.6.7-1.2 0-.7.5-3 1.1-5.1.9-3.2 1.3-3.6 2.5-2.6 1.6 1.3 1.6 1.3 3.2-1.6.8-1.5.6-2.2-.6-3.2-1.6-1.2-1.6-1.3-.1-.7 1 .3 2 .1 2.3-.5.4-.5-.3-1.2-1.4-1.6-1.1-.4-1.8-1.1-1.5-1.6.4-.5.1-.9-.5-.9s-.8-.4-.5-1c.3-.5-.1-1-1-1s-2.4-.7-3.2-1.6c-1.1-1.1-2.6-1.4-4.5-1-1.6.3-2.7.2-2.4-.3.3-.5-3.1-1.1-7.7-1.5-4.5-.4-9.3-.8-10.7-1-1.4-.2-3.5-.4-4.7-.5-1.3 0-2-.6-1.8-1.3.3-.7-.7-1.9-2.2-2.6-1.8-.8-2.9-.9-3.1-.2-.6 1.6-2.2.1-1.7-1.5 1.7-5.3 1.5-5.2 2.6-3.2 1.1 1.9 3.9 2.3 3.9.6 0-.8.4-.8 1.3-.1 1.5 1.3 8.7 1.1 7.9-.2-.3-.5 1.1-.6 3.4-.3 2.1.4 6.2.7 8.9.8 3.8.1 4.4.3 2.5.8-1.5.4 1.7.8 7.6.8 5.5 0 11 .6 12.2 1.2 2.6 1.4 5.5 1.4 4.7.1-.3-.5-.1-1 .4-1 1.4 0 1.4 1.7 0 2.6-.8.4-.8.8 0 1.3.6.4-1.8 6.3-6.6 15.8-4.2 8.4-8 15-8.5 14.7-.4-.3-.6.1-.3.8.6 1.6-6.7 16-8.4 16.6-.7.2-1.1-1-1.1-3.2z"/></g><g fill="#032c3d"><path d="M240.5 429.9c-1.6-.4-6-1.1-9.7-1.4-6.9-.7-8.3-1.6-5.1-3.4 1.7-.9 1.6-1.3-1-6.4-1.5-3-2.7-6-2.7-6.8 0-.8-.7-2.3-1.5-3.3-1.9-2.6-1.9-3.7.1-2.9 1.3.5 1.2-.1-.5-3.5-2.1-4.2-2.9-7.2-1-3.9 1.7 2.9 2.4 1.9 2.7-3.7.2-4.3-.3-6-2.3-9-1.4-2-2.5-4.2-2.5-4.9-.1-.7-.6-.5-1.3.5-1.2 1.5-1.4 1.5-2.6-.4-1.1-1.8-1.1-2 .3-1.5 2.1.8 2 .1-.4-3.9-1.2-1.8-2.5-5.2-3-7.6-.8-3.9-.9-3.7-.4 1.7.3 3.3 1.1 6.6 1.6 7.3.7.8.7 1.2 0 1.2-1.3 0-2.2-2.4-3.2-9-.5-3-1.2-7-1.6-8.9-.5-2.5-.4-3.2.4-2.7s1 .2.6-.8c-.3-.9-1-1.3-1.5-1-.5.3-.6-.2-.3-1.1.4-.9-.2-2.5-1.2-3.7-1.3-1.5-1.4-1.9-.4-1.4.8.4.4-.1-.9-1.2-1.5-1.2-2-2.2-1.3-2.6.8-.5.8-1.5.1-3.4-.9-2.4-.7-3 1.8-4.9 1.5-1.3 3.7-2.6 4.8-2.9 1.1-.4 2.2-1 2.5-1.5.3-.4 1.8-1.1 3.3-1.4l2.7-.7v6.6c0 5.1.6 7.8 2.5 11.6 1.4 2.7 2.5 5.8 2.5 6.8 0 2.7 2.3 7.2 3.8 7.2.7 0 1.2 1.4 1.2 3.4 0 2.5.7 4 2.5 5.4 1.8 1.5 2.5 2.9 2.5 5.6 0 2 .6 5.1 1.4 6.9 1.1 2.7 2.2 3.5 6.5 4.7 5.8 1.6 6.5 3 2 4.7-2.1.8-3 1.7-2.7 3 .4 2.1 7.4 3.5 26.6 5.4l11.2 1.2v3.3c0 3.2-.2 3.4-3.6 3.4s-6.4 1.8-6.4 3.8c0 .6-.5 1.2-1 1.4-1.7.5-1.5 7.5.3 9.2.8.9 2 1.6 2.6 1.6 1.5 0 1.4 3-.1 3.1-.7.1-2.2.3-3.3.5-5.7.8-22.4 1.1-25 .3zM304 419.5c0-2.1.6-2.6 4-3.1 2.2-.4 4-1 4-1.5s1.4-.9 3-.9c2 0 3-.5 3-1.5 0-.8 1.1-1.7 2.5-2.1 1.4-.3 2.5-1 2.5-1.5s1.6-.9 3.5-.9c6 0 4.1 2.5-5 6.9-4.7 2.2-9.7 4.4-11 4.7-1.4.3-2.8 1-3.1 1.5-1.1 1.9-3.4.8-3.4-1.6zM297 403.5c0-1.3 1.8-2 4.3-1.6.4 0 .7-.3.7-.9 0-.5.9-1 2-1 2.4 0 2.8 3.5.4 4.4-3.1 1.2-7.4.7-7.4-.9zM308 401.6c0-.9.3-1.6.8-1.6 1.1 0 17.4-4.6 19.5-5.5 1.3-.6 1.7-.2 1.7 1.8 0 2.6-2 3.7-7.2 3.7-1.4 0-2.8.5-3 1-.2.6-2.9 1.4-6.1 1.7-4.9.5-5.7.3-5.7-1.1zM343 399c0-2.7.3-3 3-3 2.5 0 3-.4 3-2.4 0-2.7 1.7-3.6 6.3-3.6l3.2.1-2.6 2.2c-3.9 3.3-10 8.1-11.5 9-1.1.6-1.4.1-1.4-2.3zM331 395c0-.8 5.1-4 6.5-4 .3 0 .5 1.1.5 2.5 0 2.2-.4 2.5-3.5 2.5-1.9 0-3.5-.4-3.5-1z"/><path d="M219.6 391.5c-1-5.1-2.4-7.7-3.8-6.9-.7.4-.8.2-.4-.5.6-.9 1.1-.9 2.2 0 1.6 1.3 3.7 8.4 3.1 10.2-.2.7-.7-.6-1.1-2.8zM362 382.6c0-4 .4-4.8 3.9-7.5 2.1-1.7 4.2-3.1 4.6-3.1.4 0 1.4-.8 2.1-1.7 1.2-1.6 1.5-1.6 2.3-.3.7 1 .7 1.6.1 1.8-.6.2-1 .9-1 1.5 0 .7-2.7 4-6 7.5l-6 6.2v-4.4zM421 332.5c0-5.1 2.2-9.5 4.7-9.5 1.3 0 2.3.5 2.3 1 0 1.6-3 7.1-5.1 9.3-1.9 2.1-1.9 2.1-1.9-.8zM426 318c0-3.3.3-4 2-4 2.1 0 2.5 1.6 1.4 5.8-1.1 3.9-3.4 2.7-3.4-1.8z"/></g><g fill="#172034"><path d="M268 375.1c0-2.7.4-3.2 3-3.7 1.9-.4 3-1.3 3-2.3 0-2 3.4-5.1 5.5-5.1.8 0 1.5-.9 1.5-2s.3-2 .8-2c.4 0 2.5-1.8 4.7-4 2.2-2.1 4.5-3.9 5.1-4 .7 0 1.4-.9 1.7-2 .4-1.5 1.4-2 3.7-2h3.1l-1.9 2.8c-2.9 4-23 22.7-27.8 25.9-2.3 1.5-2.4 1.5-2.4-1.6zM301 343.7c0-2.4.5-4 1.5-4.3.8-.4 1.5-1.2 1.5-2s1-1.4 2.5-1.4c2.1 0 2.5-.5 2.5-3 0-2.7.3-3 3.1-3h3l-3.3 4.6c-1.8 2.6-5 6.5-7 8.8l-3.7 4.1-.1-3.8zM360.8 319.8c-16.1-17-17.7-18.8-19.5-21.5-1.9-2.8-3.9-2.9-5.3-.3-1.6 3-3 2.4-3-1.4 0-3.7 1.2-4.6 6.1-4.6 2.2 0 2.9.5 2.9 2 0 1.3.7 2 2 2 1.1 0 2 .7 2 1.5s.5 1.5 1 1.5c.6 0 1 .7 1 1.5s.6 1.5 1.3 1.5c2.1 0 8.7 7.6 8.7 10 0 1.2.7 2 1.6 2 .9 0 4.3 2.7 7.7 6 3.4 3.3 6.5 6 6.9 6 .5 0 .8 1.6.8 3.5s-.4 3.5-.8 3.5-6.5-6-13.4-13.2zM226 324.3c0-.5 2.4-2.5 5.3-4.6l5.2-3.8.3 2.7c.5 3.6-2.7 6.4-7.3 6.4-1.9 0-3.5-.3-3.5-.7zM323 313.8c0-3.4.3-3.8 2.5-3.8 3.1 0 3.2 1.1 0 4.7l-2.4 2.8-.1-3.7zM241.2 311.9c1.8-1.7 4.5-3.9 6.1-5l2.7-2v3c0 2.6-.4 3.1-2.5 3.1-1.8 0-2.5.5-2.5 2 0 1.6-.7 2-3.6 2h-3.5l3.3-3.1zM270 283.4c0-.3 1.3-1.9 3-3.7l3-3.2v3.8c0 3.5-.2 3.7-3 3.7-1.6 0-3-.2-3-.6zM382.6 261.8c-3.1-1.8-7.6-6-7.6-7.2 0-.6-2.3-3.7-5-6.9-2.8-3.2-5-6.3-5-6.8s-.6-.9-1.4-.9c-1.5 0-2.6-2.1-2.6-5.1 0-1-.4-1.9-1-1.9-.5 0-1-.7-1-1.5s-.4-1.5-1-1.5c-.5 0-1-.6-1-1.2-.1-3-1.9-3.8-10.5-4.3s-16.1-2-17.9-3.6c-.9-.8-5.6 1-5.6 2.1 0 1-4.5 1.9-13.8 2.9-4.5.5-7.7 1.3-8.3 2.2-1.3 2-1.1 2.3 1.4 3.4 1.7.8 2.3 2 2.5 5.3.2 2.5-.1 4.2-.7 4.2s-1.1.9-1.1 2c0 1.4-.7 2-2.4 2-1.9 0-2.3-.4-1.9-2 .3-1.1.9-2.3 1.4-2.6 1.6-.9 1-3.6-1.5-6.8-3.7-4.9-10.7-16.7-11.1-18.8-.2-1-.7-2.3-1-2.9-.4-.6-.1-1 .6-.8 2.5.3 4.3-.1 3.6-.8-1.6-1.5 6-4.4 15.4-5.9 5.6-.9 11.5-2.4 13.3-3.5 2.6-1.6 5-1.9 14.2-1.9 7.4 0 12.6-.5 15.4-1.5 5.1-1.8 6.4-1.3 2.3.9-4.1 2.2-.7 1.9 5.7-.5 4.3-1.6 6.6-1.9 11.2-1.4 5.8.7 7.8 1.8 5.8 3-.6.4-1.7.1-2.5-.5-1.7-1.4-9.1-.4-10.2 1.2-.4.8.2.9 1.8.3 3.9-1.2 8.2-.7 10.9 1.4 3.7 2.8 3 7.2-2.9 17.8-1.9 3.3-6.1 13.3-6.1 14.4 0 .6 5.3 6.5 11.8 13.1 6.4 6.6 12.3 12.6 13 13.4.6.7 1.2 1.5 1.2 1.8 0 1-6.4.6-8.4-.6z"/><path d="M323.1 197.6c.2-.2 5.4-.6 11.4-.9 6.1-.3 9.9-.1 8.5.3-2.4.8-20.8 1.4-19.9.6z"/></g><g fill="#022336"><path d="M251.4 430.1c.6-.9 6.3-2.1 10.6-2.2h2.5l-2.5-1c-2-.8-2.2-1.2-1-1.9 1.3-.8 1.3-1-.2-1-.9 0-1.9.6-2.1 1.3-.3.7-.6.5-.6-.5-.1-1-.6-1.8-1.3-1.8-.6 0-.8-.3-.5-.7.4-.3.2-1.2-.5-2-.8-1.1-.8-1.7.2-2.6.7-.7 1-.7.7-.2-.3.6.5 1 1.8 1s2.1-.3 1.9-.7c-.2-.3.2-.9.8-1.1.7-.3-.4-.5-2.5-.4-2.5 0-4.4-.6-5.5-1.9-.9-1-1.3-1.6-.9-1.2.5.4 2.9 0 5.5-.7 2.5-.8 4.9-1.2 5.4-.9.4.3.8.3.8 0s-1.8-1.5-3.9-2.6c-2.2-1.1-4.3-2.5-4.7-3.1-.4-.7.2-.7 1.7.2 3.1 1.6 9 2.9 8.3 1.8-.3-.5-1.3-.9-2.3-.9-1 0-2.9-.9-4.2-1.9-1.4-1-3.6-2.1-4.9-2.3-1.4-.1 8.6-.3 22.1-.3 16.6 0 25.1-.4 26-1.1.8-.6 4.3-1.4 7.8-1.7 3.5-.3 6.8-1 7.4-1.6.6-.6 2.2-1.1 3.6-1.1 1.5 0 3.9-.7 5.5-1.5 1.5-.8 3.3-1.5 3.8-1.5.9 0 7.6-2.8 13.8-5.8 5.5-2.7 23.4-13.5 24.3-14.6.5-.6.6.3.3 2.1-.7 4.1-4.8 9.9-10.3 14.3-2.3 1.9-5.6 4.6-7.2 6-1.6 1.4-3.9 3.2-5.1 4-1.2.8-2.8 2-3.4 2.5-1.8 1.7-16.6 10.5-17.6 10.5-.5 0-3.3 1.3-6.3 2.9-2.9 1.6-6.7 3.2-8.5 3.6-1.8.3-3.2 1-3.2 1.4 0 .7-2.9 1.6-15 4.5-3 .8-6.2 1.6-7 1.9-.8.4-6.7 1.1-13 1.7-6.3.5-13.7 1.2-16.3 1.5-2.8.3-4.6.1-4.3-.4zM367.3 376c-.7-.8-2.2 2.4-1.6 3.4.4.5 1 .1 1.3-1 .4-1 .6-2.1.3-2.4zM241.5 405.1c.2-.5-.7-1.3-2-1.9-2.7-1.2-3.5-3.8-.9-2.8.8.3 1.2.2.9-.4-.3-.6.3-1 1.4-1 1.2 0 2.1.6 2.1 1.3 0 .9.2.9.9-.1.6-1.1 1.2-1 2.6.5 1.3 1.3 2 1.4 2.3.5.2-.6 1-1.2 1.8-1.2 3 0 0 2.7-4.6 4.2-2.8.9-4.8 1.3-4.5.9zM238 393.5c0-1.5-3.5-2.9-4.9-2.1-.5.4-1.8-1.7-2.9-4.6-3.2-8.8-3.5-9.8-2-9.8.7 0 .3-.7-.9-1.5-2.4-1.7-5.7-7.5-4.2-7.5.5 0 .9-.5.9-1.1 0-.6-.7-.9-1.5-.5-1 .3-1.5-.1-1.5-1.4 0-1-.4-2.2-1-2.5-.5-.3-1-1.7-1-3.1 0-1.3-1.4-5.1-3-8.4-1.7-3.3-2.9-7.3-2.8-8.8.1-1.5-.2-3.4-.7-4.1-.5-.9-.4-1.2.2-.8.6.4.9-.4.7-2.2-.3-2.5.4-3.3 6.6-7.4l7-4.6v2.9c0 2.4-.4 3-2.1 3-1.7 0-2 .4-1.5 2.3.3 1.2.6 2.5.6 3 0 .4.7.7 1.5.7s1.5.6 1.5 1.4c0 .8 1.5 3.4 3.4 5.9 4.3 5.7 5.2 7.4 6 11.8.4 2.1 1.4 4.3 2.2 5 1.3 1 1.5 2.5 1 6.6s-.3 5.5.8 5.9c.7.3 2.1 2.9 3 5.7 2.7 8.4 2.9 8.6 7.8 5.9 4.4-2.2 9.8-3 9.8-1.3 0 1.3-14.2 9.8-19.1 11.5-3.2 1.1-3.9 1.1-3.9.1zM391 342.3c-4.6-.8-14-5.9-14-7.7 0-.3 1.6-.6 3.5-.6s3.5.5 3.5 1c0 .6.7 1 1.5 1s1.5.4 1.5 1c0 .5 2.3 1.2 5 1.6 4 .5 5 1 5 2.5 0 1.9-.8 2.1-6 1.2zM404 341.1c0-1.1.5-2.1 1-2.1.6 0 1-.7 1-1.5s1.1-1.7 2.4-2.1c3.2-.8 6.6-4.8 6.6-7.8 0-1.3.7-2.6 1.5-3 .8-.3 1.5-1.5 1.5-2.6 0-1.3.7-2 2-2 1.4 0 2-.7 2-2.3 0-1.2.9-3 2-4 2.3-2 2.7-5.7.6-5.7-2.2 0-7.6-6.2-7.6-8.7 0-2.7-2-7.3-3.2-7.3-.4 0-.8-1.7-.8-3.7v-3.8l4.3 4.5c11.9 12.7 14.5 19.2 11.9 30.2-.9 3.4-1.8 6.5-2.1 6.8-.3.3-1.5 2.2-2.5 4.3-2.9 5.6-10.5 11-17.1 12.3-3.1.5-3.5.4-3.5-1.5z"/></g><g fill="#0f1630"><path d="M283.8 362.3c-1.5-.4-1.8-1.5-1.8-5.9v-5.6l3.9.3c3.6.3 4.3-.2 11.5-7.4 4.2-4.2 7.6-7.9 7.6-8.3 0-.4 1.1-1.7 2.5-3s2.5-2.7 2.5-3.1c0-.5 1.4-2.3 3-4.1 1.7-1.8 3-3.9 3-4.5 0-.7 1.4-2.7 3-4.5 1.7-1.8 3-3.9 3-4.7 0-.7.4-1.5.8-1.7.5-.1 2.8-3.6 5.1-7.5 2.4-4 4.7-7.3 5.2-7.3s.9-.7.9-1.5c0-1.1 1.2-1.5 4.4-1.5 3.5 0 4.7.5 6.2 2.6 1 1.4 3.8 4.5 6.1 6.8 2.4 2.2 4.3 4.7 4.3 5.4 0 .6.7 1.2 1.4 1.2 2.5 0 6.6 6.4 6.6 10.1l-.1 3.4-5.2-5.5c-2.9-3.1-8.4-9-12.2-13.2-3.9-4.2-7.5-7.4-8-7-.6.4-1.9 2.3-2.9 4.2-5.5 10.1-25.4 39-26.8 39-.5 0-.8.4-.8 1 0 .8-5 6.6-12.1 14-5.6 5.7-9.5 8.6-11.1 8.3zM234 318.3c17.5-15.2 25.5-22.8 36.1-34.9 5.9-6.7 24.5-32.9 29-40.9l3.2-5.6-2.6-2.7c-3.5-3.7-5.2-8.2-3.1-8.2.8 0 1.3-.4 1-.9-.3-.5 2.1-1.4 5.4-2 3.3-.7 6-1.5 6-1.8 0-.3-1.2-.2-2.7.1-2.2.5-2.4.4-1.1-.4 2-1.2 8-.2 7.1 1.3-.4.6-.1.7.7.2.7-.5 2.7-1.2 4.4-1.6l3.1-.7-3-.2c-3.2-.3-3.1-.3 8.3-2.6 1.9-.4 4.3-.2 5.5.4 6.8 3.2 13.3 4 17 2 1.9-1 2-.9.9.4-1.1 1.4-.9 1.5 2.5.7 2.3-.5 3.9-.4 4.1.1.2.6 1.3 1 2.3 1 1.1 0 1.8.4 1.4.9-.3.5-.1 1.2.5 1.6.6.4.8 1 .5 1.5-.3.5.4 1.2 1.6 1.5 1.7.6 1.9.9.8 1.6-1 .6-1.1.9-.1.9.6 0 1.2 1 1.2 2.3 0 1.3 1.6 4.1 3.6 6.3 5.6 6.1 10.4 12 10.4 12.9 0 .5 1 1.9 2.1 3.1l2.2 2.3h-7.4c-6.3 0-7.9-.4-10.6-2.5-1.8-1.4-3.3-3.1-3.3-3.8 0-.7-1.1-1.9-2.5-2.6-1.6-.9-2.9-2.8-3.6-5.2-.7-2.8-1.8-4.2-3.7-4.9-1.5-.6-2.9-1.4-3.2-1.8-.3-.5-5.3-1.1-11.2-1.5-9.2-.6-10.8-.5-10.8.7 0 1-1.4 1.8-4 2.2-2.2.4-4.2 1.1-4.6 1.6-.7 1.2-9.4 1.2-9.4-.1 0-.5-.7-1-1.5-1s-1.5.8-1.5 1.9c0 2.3-4.8 11.1-6.1 11.1-.5 0-.9.6-.9 1.4 0 .7-1 2.4-2.2 3.8-1.3 1.3-2.9 3.6-3.7 5.1-.8 1.5-2.3 2.7-3.3 2.7-1.3 0-1.8.8-1.8 3 0 2-.5 3-1.5 3-.8 0-1.5.9-1.5 2s-.7 2.3-1.5 2.6c-.8.4-1.5 1.3-1.5 2 0 .8-.7 1.7-1.5 2-.8.4-1.5 1.2-1.5 2s-.9 1.4-2 1.4c-1.2 0-2 .7-2 1.8 0 2.9-2.9 6.2-5.6 6.2-1.9 0-2.4.5-2.4 2.6 0 1.9-2 4.6-7.4 10-4.1 4.1-9.5 9.8-12 12.6-4.3 4.9-4.8 5.1-10.3 5.6l-5.8.5 3.5-3z"/></g><path d="M285.8 332.6c-1.5-.6-4.4-2.9-6.5-5-2.1-2.1-5.6-5.1-7.9-6.7-6.7-4.6-7.8-7-8.2-18.4l-.4-10 7.3-9c4.1-4.9 9.1-10.6 11.2-12.7 2-2.1 3.7-4.6 3.7-5.6 0-3.1 3.2-5 9.7-5.7 5.5-.7 6.3-.5 7.9 1.4 1 1.1 2.6 2.1 3.6 2.1s3.2 1.3 5 3c1.7 1.6 3.9 3 4.9 3 2.8 0 7 4.2 8.5 8.5.8 2.3 1.4 8.1 1.4 13.6 0 8.6-.3 10.3-3 16.2-1.6 3.7-3 7.5-3 8.6 0 1-.7 2.4-1.5 3.1-.8.6-1.7 2.2-2.1 3.3-1 3.1-6.2 9-9.3 10.4-3.3 1.5-17.8 1.5-21.3-.1z" fill="#0c083e"/><g fill="#011c31"><path d="M286.3 424.5c-1.8-2-1.6-2.5.7-2.5 1.1 0 2 .5 2 1.1 0 .5.5.7 1 .4.6-.3 1.5-.3 2.2.1.8.5.6 1-.8 1.5-2.8 1.1-3.8 1-5.1-.6zM292 422l-2.5-.8 2.5-.1c1.4 0 3.2.4 4 .9 1.3.9 1.3 1 0 .9-.8-.1-2.6-.5-4-.9zM283.9 419.9c-1.9-1.1-.9-1.7 4-2.5 3.5-.6 4.3-.4 3.9.7-.5 1.6-6.1 2.9-7.9 1.8zM304.5 412c-.4-.6.5-1 1.9-1s2.6.5 2.6 1c0 .6-.9 1-1.9 1-1.1 0-2.3-.4-2.6-1zM308.7 410.4c-.3-.4 0-1.3.8-2 1.6-1.7 2.9-1.8 1.9-.3-.3.6 0 1.5.7 2 1.1.7.9.9-.7.9-1.1 0-2.3-.3-2.7-.6zM242.7 386.8c-.8-1.8-1.7-4.6-2.1-6.1-.3-1.5-1.1-2.5-1.6-2.2-.6.3-.7-.1-.4-1 .4-1-.4-2.3-2.1-3.7-1.5-1.1-2.2-2.4-1.7-2.7 1.6-1 1.8-7.7.2-9.6-1.5-1.8-2.2-3.9-2.1-6.8 0-.9-.4-1.5-1-1.2-.9.6-1.3-.7-1-3.2.1-.6-1.1-2.1-2.5-3.2-1.5-1.2-2.3-2.1-1.8-2.1.5 0-.2-1-1.6-2.1-1.4-1.1-1.8-1.7-1-1.3 1.2.6 1.3.5.3-.8-.7-.8-.9-1.8-.5-2.2.4-.4.3-.7-.3-.6-2.5.5-3.7-.1-3.1-1.6.3-.8.2-1.2-.4-.9-.6.4-1-.6-1-2.2 0-2.2-.2-2.5-1-1.3-.9 1.3-1 1.3-1 0 0-1.5 8.4-8.5 11.8-9.7.9-.4 2.1-1.1 2.5-1.7.5-.6.6.9.4 3.4-.5 5.1 2.3 12.5 6.7 17.7 1.4 1.7 2.6 3.6 2.6 4.2 0 1.3 1.4 3.2 4.8 6.3 1.5 1.5 2.2 3.3 2.2 5.7 0 2.5.6 4 2 4.9 1.1.7 2 1.7 2 2.3 0 1.8 6.9 7.9 9 7.9 1.1 0 3.4-.9 5.2-2 1.8-1.1 4.1-2 5.1-2 .9 0 1.7-.7 1.7-1.5 0-.9.9-1.5 2.3-1.5s2.6-.9 3.2-2.2c.8-1.8 2-2.4 5-2.6 3.6-.2 3.8-.1 2.3 1.1-1 .8-1.8 1.9-1.8 2.6 0 .6-.4 1.1-.9 1.1s-2.5 1.5-4.4 3.3c-7.4 6.8-14.4 11.9-21.7 15.6-2.5 1.3-4.7 2.7-5 3.1-.3.4-1.6 1.1-2.9 1.5-1.7.5-2.1.4-1.6-.5.6-.9.3-.9-1.4-.1-1.8 1-2.2.8-3.4-2.1zM346.4 388.5c1.1-.8 2.2-1.2 2.5-.9.6.6-1.9 2.4-3.4 2.4-.5-.1-.1-.7.9-1.5zM392 342.4c-2.6-.5-10.1-3.5-11-4.4-.3-.3-2.2-1.6-4.2-3-2.1-1.4-3.8-2.8-3.8-3.2 0-.4-.7-1.4-1.6-2.3-1-.9-1.8-3.9-2-7.7-.4-5.8-.3-6.2 3-9.4 1.9-1.8 3.7-4.2 4.1-5.3.7-2.3 4.4-4.4 12-6.6 4.2-1.2 5.5-2 5.5-3.4 0-1.3 1-2.2 3-2.6 2.7-.6 3-1 3-4.6 0-3.2-.3-3.9-2-3.9-1 0-2.5-1-3.1-2.2-.7-1.3-1.8-2.7-2.5-3.3-.7-.5-1.7-2.6-2.1-4.5-.7-2.8-1.5-3.6-3.6-3.8-2.1-.3-2.7-.9-2.7-2.7 0-1.3-.4-2.7-1-3-.5-.3-1-1.5-1-2.5s-.7-2.6-1.6-3.4c-.8-.9-1.4-2.7-1.2-4.2.3-2.5.3-2.5 2.3-.6 1.1 1 2.7 1.6 3.4 1.4.8-.3 1.1 0 .7.6-.3.6.3 1.3 1.4 1.7 2.4.8 26.9 25.3 30.7 30.8 1.5 2.2 2.8 5 2.8 6.2.1 2.3 3 6.5 5.5 8 1.3.7 1.3.6.2-.7-.9-1.1-1-1.8-.2-2.3 1.4-.9 3 3.8 3 9.1 0 3.2-.6 4.9-2 6.1-1.1 1-2 3-2 4.5 0 3.1-1.8 4.7-3.1 2.7-.6-1.1-.9-.8-.9.8 0 1.2-.8 2.6-1.7 3.2-1.7.9-1.7 1-.1 1.6 1.4.6 1.5 1.1.7 2.6-.5 1-1.5 1.9-2.2 1.9-.7 0-1.8.9-2.5 2s-2 2-3 2c-1.5 0-1.5.2-.2 1.1 1.2.9 1 1-.8.6s-2.1-.2-1.3.7c.8.9.7 1.3-.2 1.5-2.8.5-15.4.9-17.7.5zM365.6 226.8c-1.1-3.5-1.3-6.8-.3-6.8.4 0 .6-.4.3-.8-.8-1.4.8-2.7 4.7-3.9l3.8-1.1-2 3.4c-1.2 1.9-2.1 4.1-2.1 4.7 0 .7-.8 2.5-1.9 4l-1.8 2.8-.7-2.3zM374 211.5c.7-.8.9-2.3.6-3.2-.6-1.4-.4-1.5.4-.7 1.4 1.4.4 5.4-1.2 5.4-.6 0-.6-.6.2-1.5z"/></g><path d="M280.2 343.1c-4.5-.6-4.4-.6-8.6-8.8-.7-1.6-3.5-3.9-6.1-5.3-2.7-1.4-5.3-3.6-5.8-5-.6-1.4-2.1-4.8-3.4-7.7-1.2-2.8-2.3-6.1-2.3-7.2 0-1.2-.4-2.1-.9-2.1s-1.1-.7-1.4-1.5c-.4-.9 1.6-3.6 5.1-7.2 10.5-10.7 18.9-20.7 26-31 .7-1 4.2-6 7.9-11.1 6.4-9.1 6.7-9.4 9.7-8.7 1.7.4 5.9 1 9.4 1.4 4.7.5 6.6 1.2 7.7 2.8 1.2 1.7 2.8 2.1 8.3 2.5 4.8.2 7.4.9 8.6 2.1 1 .9 2.6 2.2 3.7 2.7 1 .6 1.9 1.9 1.9 2.8 0 1 .5 2.3 1.1 2.9.6.6.9 5.2.7 12.2-.3 9.8-.1 11.1 1.3 11.1 2 0 2.9 2 2.9 6.1 0 2.4-.4 2.9-2.4 2.9-1.4 0-2.8-.4-3.1-1-1.5-2.4-3.7-.4-8.6 7.8-2.9 4.8-5.6 8.9-6.1 9-.4.2-.8.8-.8 1.4 0 .6-1.3 2.7-3 4.8-1.6 2.1-3 4.1-3 4.5 0 .6-7.7 10.9-11.4 15.3-1.3 1.4-3.1 2.2-5.2 2.2-1.7 0-5.1.7-7.4 1.5-4.4 1.5-7.2 1.7-14.8.6zm23.6-13.1c1.5 0 9.2-8 9.2-9.6 0-.6.9-2.3 2-3.7 1.1-1.4 2-3.2 2-4.1 0-.9 1.4-4.6 3-8.3 2.4-5.2 3-8 3-13.2 0-11.6-3.3-17.4-10.7-19.2-2.3-.6-4.1-1.5-3.8-1.9.8-1.3-2.1-3.1-7.2-4.5-2.6-.7-3.9-1.4-2.8-1.4 1.6-.1 1.7-.3.5-1.1-.9-.6-2.4-.3-4.2.8-2.4 1.4-3 1.5-3.7.3-1.4-2.2-3.3-.2-2.6 2.8.5 2.2-.1 3.2-3.7 6.1-2.3 1.9-4.8 3.4-5.5 3.2-.8-.2-1.3.3-1.2 1 .5 2.4-1.2 5.7-3.2 6.3-1 .4-1.9 1.1-1.9 1.6 0 .6-.4.8-.9.5-1.1-.7-3.2 4.9-2.3 6 .4.4-.2.4-1.3 0s-1.6-.4-1.3 0c.4.4.2 1.6-.4 2.8-1 1.9-1 2 .5.7 2.1-1.7 2.3-.1.4 3.7-1.8 3.5-1.4 10.3.9 13.6.9 1.5 3.5 4 5.8 5.5 2.3 1.6 5.8 4.6 7.9 6.7 5 5.1 8.1 6.3 14.7 5.8 3-.2 6.1-.3 6.8-.4z" fill="#0a0a35"/><g fill="#011330"><path d="M256.2 377.8c-.7-.7-1.2-1.8-1.2-2.5 0-1.5-3.5-3.5-4.4-2.5-.4.3-.4-.2 0-1.2.5-1.4.4-1.7-.4-1.2s-1.2 0-1.2-1.3c0-1.1-1-2.7-2.1-3.5-1.5-1-2.2-2.7-2.4-5.1-.1-2.5-.9-4.3-2.8-5.9-1.5-1.3-2.4-2.6-2-3 .3-.3.1-.6-.5-.6-.7 0-1.2-.7-1.2-1.5s-1.8-3.8-4-6.7c-2.1-2.9-3.7-5.4-3.5-5.7.3-.2-.1-1.1-.7-1.9-1.2-1.4-1.6-2.7-1.9-6.7-.2-3.6.1-4.4 2.7-7 2.3-2.3 6.4-4.7 8.6-4.9.4-.1 2.1-1.7 3.7-3.6l3-3.5.1 3.8c0 2-.4 3.7-1 3.7-.5 0-1 .5-1 1 0 .6 1.2 1 2.8 1 1.7 0 3.4.9 4.6 2.5 1 1.4 2.6 2.5 3.5 2.5 2.6 0 6.1 2.9 6.1 5.1 0 1.1.7 1.9 1.6 1.9 1.6 0 11.4 9.6 11.4 11.2 0 .4.6.8 1.4.8.8 0 1.6.7 2 1.5.3.9 2.6 2.4 5 3.5 2.5 1 5 2.9 5.7 4.2.7 1.3 1.7 2.6 2.3 3 1.7 1.2-1.2 1-3.4-.2-1.5-.8-1.8-.6-1.6 1.6.1 1.9.5 2.4 1.9 2 .9-.2 1.7-.2 1.7 0 0 1.2-11.4 11.3-12.1 10.8-.5-.3-.9.1-.9.9 0 1.5-2.7 3.2-4.4 2.8-.4-.1-2 .6-3.3 1.5-3.7 2.4-8.3 3.5-8.3 2.1 0-.7-.6-.4-1.4.5-1 1.3-1.5 1.5-2.4.6zM368 326.3c-8.8-7.9-12.8-14.1-14-21.9-.6-3.7-1-7.7-.9-8.8.1-1.2-.1-2.8-.4-3.6-2.4-6.4-3.2-17.3-1.4-18.8 1-.9 1.3-2.6.9-6.2-.4-4-.1-5.1 1.2-5.6.9-.3 1.6-1.4 1.6-2.4 0-1.4 1.3-2.1 5.5-3 3.6-.7 5.5-1.6 5.5-2.6 0-1.6 2.6-1.9 3.5-.4.4.6 1.2.4 2.1-.5 1.4-1.3 1.9-1.3 5.2.5 2 1.1 5.3 3.3 7.2 5 2.7 2.4 3.2 3.3 2.1 3.9-.9.6-1 1.1-.2 1.5.6.4 1.1 1.8 1.1 3.2 0 1.8.5 2.4 2.3 2.4 2.7.1 6.2 2.5 4.8 3.4-1.2.8-.4 3.6 1.4 5.1.6.6 1.7 2 2.4 3.3.6 1.2 2.1 2.2 3.1 2.2 1.1 0 2.1.6 2.2 1.3 0 .6.2 1.7.2 2.2.1.6.5 1.6.9 2.3.5.6.4 1.2-.2 1.2-1.3 0-.7 3 .8 3.9.8.6.1 1.3-2.2 2.5-1.9.9-4.1 1.7-4.9 1.7-.7.1.3.5 2.2.8 3.4.6 3.2.8-5 3.4-11.5 3.7-14.8 5.4-15.5 7.7-.4 1.1-2.1 3.5-3.8 5.3-2.9 2.9-3.2 3.6-2.7 7.7.3 2.5.8 4.4 1.3 4.3.4-.2 1.2-.3 1.9-.3 1.5 0 0 1.5-1.5 1.5-.7.1-1.1.6-.9 1.3.3 1.9-.2 1.5-5.8-3.5zM359.4 229.3c.3-.6.1-1.3-.4-1.5-1.6-.5-1.6-5 0-5.6.8-.3 1.2-.1.8.3-.4.5-.3 1.4.3 2.2.6.7.8 1.3.3 1.3-.5.1.2.7 1.6 1.5 1.4.8 1.9 1.4 1.2 1.5-.7 0-1.1.4-.7.9.3.6-.4.9-1.5.8-1.2-.1-1.8-.7-1.6-1.4z"/></g><g fill="#060c2e"><path d="M284.2 353.4c-2.3-1.4-5.1-2.6-6.2-2.7-1-.1-2.4-1.1-3.1-2.4-.7-1.3-1.8-2.3-2.6-2.3-.7 0-1.3-.3-1.3-.7 0-1.9-8.9-10.4-11.8-11.4-2.5-.9-3-1.4-2.2-2.4.8-1 .5-1.7-1.2-2.9-1.2-.9-3.1-1.6-4.1-1.6-.9 0-2-.7-2.3-1.5-.4-.8-1.3-1.5-2.1-1.5s-1.1-.4-.8-1c.3-.5.2-1-.4-1-.5 0-1.3.5-1.6 1-.3.6-1.3 1-2.1 1s-1.3-.4-1-.9c.3-.5-.1-1.4-.9-2.1-1.2-1-1.3-1.6-.4-2.6.6-.8.8-1.4.4-1.4-1.6 0 11.2-14.3 13.7-15.3 1.2-.4 1.5-.2 1.1.9-.3.9.1 1.4 1.2 1.4 1.3 0 1.6.6 1.1 2.4-.3 1.2-.2 2.6.2 3 .4.4.7 1.1.8 1.4 0 .4.8 2.5 1.8 4.7.9 2.2 2 4.9 2.5 6 .4 1.1 2.9 3.1 5.6 4.5 2.6 1.4 5.3 3.6 6 5 4.2 8.6 4.1 8.5 8.9 8.5 2.4 0 4.2.3 4 .7-.7 1.1-.3 1 4.7-.7 2.3-.9 6.3-1.7 8.8-1.8 2.5-.2 5.6-.9 6.9-1.5 1.2-.7 2.2-1 2.2-.7 0 1.7-18.4 20.5-20.2 20.5-.7 0-3.2-1.2-5.6-2.6zM350.9 307.5c-10.7-10.9-12.5-13.1-12.2-14.2.2-.6-.3-1.8-1.2-2.7-1-1-1.2-1.6-.4-1.6.8 0 .9-.3 0-1.4-.9-1-.8-1.6.4-2.6 1.9-1.6 2.1-16 .3-17.8-.7-.7-1.3-2-1.3-2.9 0-.8-1.5-2.3-3.2-3.3-1.8-.9-3-2-2.7-2.3 1.1-1-5.8-1.9-10.2-1.2-2.4.3-4.4.3-4.4-.2-.1-2.6-3.2-4.5-8.2-5-6.5-.6-7.7-.8-10.6-1.8-2-.7-2.1-1-.9-2.4 2.6-3.1 5.7-9.2 5.7-11.4 0-2 .4-2.2 5-1.9 2.7.2 4.7.8 4.4 1.3-.3.5.2.9 1 .9s1.7-.4 2-.9c.4-.5 2.5-1.2 4.7-1.6 2.6-.5 3.7-1 2.9-1.5-1.7-1 1.1-1.9 6.5-2.1 6.5-.2 22.5 1.3 22.5 2.2 0 .4 1.3 1.2 2.9 1.7 2.3.8 3.2 2 4 5 .7 2.4 2 4.3 3.6 5.2 1.4.7 2.5 1.9 2.5 2.6 0 .8 1.3 2.3 3 3.5 2.2 1.7 2.9 2.9 2.6 4.6-.3 1.5 0 2.3 1 2.3.8 0 1.4.4 1.4.9 0 .6-1.2.6-3 .1s-3.2-.5-3.6.1c-.3.5-.9.7-1.4.4-1.8-1.1-6 .7-6 2.5 0 1-.7 2-1.5 2.4-2 .7-1.9 2.6.1 2.6.8 0 1.2.5.9 1.1-.4.5-.8 2.1-1 3.5-.1 1.3-1.1 3.4-2.1 4.5-1.5 1.7-1.6 2.4-.6 5.3.7 1.8 1.2 4.2 1.2 5.3 0 1.1.7 2.6 1.6 3.4 1 .8 1.3 2 .8 3.8-.8 3.1-.8 3.4.1 9.1.7 5 1.3 12 1 12-.1 0-3.5-3.4-7.6-7.5z"/></g></svg>